<svg xmlns="http://www.w3.org/2000/svg" width="282" height="218" viewBox="0 0 282 218">
    <defs>
        <style>
            .cls-1{fill:#2c262f}
        </style>
    </defs>
    <g id="decor" transform="translate(-634.699 -395.179)">
        <path id="Path_73424" d="M587.765 343.724s.8 1.642 1.244 2.587-.8-1.095-1.344-1.891c0 .547.8 2.09.6 2.09a4.33 4.33 0 0 1-.4-.7c.547 1.393-.5.4 0 2.09v-.348c.448.8.945 1.592 1.294 2.14s.348 1.145-.3 0a1.256 1.256 0 0 0-.3-.746v.5c-.945-1.443 0-.6-.747-1.692 0 .6.5 1.99 0 1.642-.9-1.443 0-.7-.9-1.891l.6.448c-1.543-2.239 0 0-1.344-2.339-.6 0 0 1-.547.746.4.846.747 1.194 1.144 2.04.348 1.742-2.488-3.483-1.741-1.294.448 1 1.493 2.886.7 2.04l-.9-1.692c-.4 0 1.194 2.488 0 1.543s0-.7 0-.846c-1-1.194.4 1.045 0 1.145l-.846-1.443v2.189a4.985 4.985 0 0 0-.747-1.343c0 1-1.144.4-2.14 0l.6 1.343a3.392 3.392 0 0 1-.547-.8 5.963 5.963 0 0 1 .7 1.393c.2.547-.6-.647-.747-1.095.3 1.244.448 2.836-.7 1.692v-.4c-.547-.4 1.194 2.737.3 1.692-.9 0-.846 1.294-2.388-.348.945 1.891-1.045-.5.4 2.09-1.045-1.095-1.244-1.592-2.189-2.189a13 13 0 0 1 .747 2.04l-.747-1.294.6 1.493-1.045-1.543v.448a4.24 4.24 0 0 1 .7.9c0 .746-1.094-.6-1.492-1.294v1.443a6.346 6.346 0 0 1-.4-1.145c.5 1.493-.9-1.393-.4 0a11.22 11.22 0 0 1 .548 1.095c-.548-.746-.846-.6-.9 0l-.5-.9c-.5 0-.547.9-1 1.145a6.066 6.066 0 0 1 1.244 2.14l-.846-1.343c.4.9.4.448.846 1.592a6.872 6.872 0 0 1-1.194-2.04v.6c0-.4-.348-.647-.647-1.194.448.9-1.144-1.244-.4.348v-.4c-.448.249-.348.846-.7 1.095a16.364 16.364 0 0 1 .9 2.09c-.5-.249-1.343-1.045-1.592-.746s.5 1.045.846 1.841c-.647-1.095-.945-.8-1.194-1.692-.3.4-.4.5-.348 1.642a9.253 9.253 0 0 1 .7 1c0 .249-.5-.349-.8-.9.4 1.941-3.085-2.538-2.189 0v1.443c-.348 0-.348-.9-.9-1.493.547 2.14-.945 0-.6 1.592-2.189-3.085-.945.846-2.538-1l.448.746c.3.846-.4-.348-.547-.5a5.584 5.584 0 0 1 .647 1.095c-.348 1.443-2.488 0-3.782-.3-.448 0 2.04 4.13.6 2.538l-.7-1.542c.3 2.139-1.393.7-1.244 2.538 0-.348-.4-.8-.3-.8-.746-1-.547 0 0 1.095 0 0-.448-.8-.746-1.194s.4 1.543 0 .547a1.3 1.3 0 0 1 0-.5c0 .6-.5 0 0 1.294-.547-.448 0 .8-.747 0 .6 1.443-.8-.4 0 1.543-1.045-1.99-1.294-1.393-.945-.348-.249-.647-.448-.547-.846-1.443a4.339 4.339 0 0 0 .448 1.592c-1.592-2.189.3 2.289-1.443-.7a9.549 9.549 0 0 1-.348 3.035c-1-1.99.4-.448-.647-2.538 0 1.045.547 2.886 0 2.637a3.14 3.14 0 0 1-.5-1.244c0 1.045-1 .249-.846 1.543a2.766 2.766 0 0 1 0-.6s-.348 0 0 .7a26.851 26.851 0 0 1 1.344 3.633c-1.144-2.687-.747-.448-2.14-3.881a6.7 6.7 0 0 0 .5 1.244 3.483 3.483 0 0 1-.6-1.194c0 .6.5 1.543.249 1.642s-.249-.647-.5-1.145c.3.9.6 1.841 0 1.592s-.348-.647 0-.647.448 2.637-.4 1.99c-.8-2.04-.448-.6-1.244-2.289v.647l.5.746c-.249 0 0 1.393-.3.9v-.249l.547.547c0 .945 1 2.14.5 1.791s0 0-.8-.9c0 .6.3 1.194 0 .846a14.352 14.352 0 0 1-.945-2.239c.5 1.443-.3.6 0 2.14a14.191 14.191 0 0 0-.6-1.443l.448 1.194a4.079 4.079 0 0 1-.647-1.194c-.348 0 1.045 2.09.3 1.344a4.651 4.651 0 0 0 0-.5c-.548-.348-.3 1.045-.9.6-.8-1.692 0-.547-.6-1.941-.3.5 0 2.438-.647 2.239.945 2.438-.846-1.095-.6 0a6.96 6.96 0 0 0-.348-1.095c-.448-.3-.348.846-.5 1.791v-.647c-.4-.5-.6 0-.9-.348a6.422 6.422 0 0 0 .448 1.443c-1.941-3.384-.4 2.388-2.04-.448a1.243 1.243 0 0 0 0-.6l-.249.746a9.978 9.978 0 0 0 .7 1.443v1.244a7.117 7.117 0 0 0-.9-2.289l.349 1.045c-.945-1.841.747 2.189 0 1v.448c-.5-1.244 0-.647-.448-1.692 0 0 .5 2.538 0 1.343v-.8c-.7-1.443-.6-1.045-.8-1.244l-.547-.6v.4c.9 3.334-.249.746 0 3.035-.348-2.189-.348-1.194-.8-2.637a6.35 6.35 0 0 1-.548-1.194c0 1.194-.547-.846 0 .9 0-.448 0 0-.5-1.145 0 .4.3.746.448 1.343.249 1.692-1.244-1.692-1 .6a13.594 13.594 0 0 1 0 3.483 4.977 4.977 0 0 1-.4-1.692c-.4-.647-.5-.5-.5 0a10.021 10.021 0 0 0-.448-1.244s.4 1.692 0 1.045l-.4-1.891v1.841a11.1 11.1 0 0 1-.348-1.791 4.472 4.472 0 0 0 0 2.189v.4a4.63 4.63 0 0 1-.348-1.343c0-1.045.348.4.5.846v.348c.9 2.687.348-.6.647-.5l.5 2.04v-1.72a8.958 8.958 0 0 1 .547 1.941c.448.946 0-.746.4.3a.551.551 0 0 1 0 .348v-.649c0 .448.448 1.393.249 1.145.7 1.045 0-1.642.647 0 0-.8-.4-1.493-.547-3.284l1.294 3.533L539 379.6l.348.7a11.6 11.6 0 0 0-.4-1.543c.6 1.244.4-.846 1.194 1.443-.3-1.095-.5-.746-.5-1.592.846 2.438 0-.5.7.547s0 .7.5 1.791c-.6-2.239.547.3.6 0-.6-1.742 0-.846 0-1.493 0 .547.846.746 1.344 1.244v.3c-.547-1.742 0-1.493 0-1.941a8.291 8.291 0 0 1 .5 1.941 2.793 2.793 0 0 1 0-1.145l.448 1.343s0-1.742.547-1a19.591 19.591 0 0 1-1.443-4.13 12.355 12.355 0 0 1 .7 2.04v-.348l.249 1.145c.348.448-.249-.945 0-.9.348.945.348.647.6 1.393s0-.348 0 0a3.18 3.18 0 0 1 .846 1.244 4.673 4.673 0 0 1-.4-1.393 8.767 8.767 0 0 0 .846 1.493c0-.647 0 0-.3-1.443a5.828 5.828 0 0 1 .5 1c0-.647.547-.4 0-1.791 0-1.543 1.144.4 1.344-.348v.5c0-.647.448-.547 0-1.592a7.831 7.831 0 0 1 .7 1.294c0-.4 0-.9.448-.3s.348.7 0 .7.747.945.5-.4c.4 1.194.8 1.393.8 1l-.547-.746c0-.249 0 0 .4 0l.547 1.543c1.344 1.592-.448-3.533 1.294-.6-.348-1.145-.6-.647-1.045-1.941.3 0 1.493 2.189 1.592 2.14s-.7-2.339 0-1.891a8.212 8.212 0 0 1-.995-2.587 7.315 7.315 0 0 1 1.343 2.637v-.249a1.938 1.938 0 0 0 .4 1.045v-.547c.4.5.647.3 1 1.194a1.69 1.69 0 0 0-.6-1.145c.647.647.5 0 1 0a4.985 4.985 0 0 1-.448-.9c.746.5-.3-1.095 0-1.443.547.7.846 1.941.846 1.145a4.968 4.968 0 0 1 .8 1.841c0-1.145.846.448 1.095.547v.149l-.547-1 .448.547a25.974 25.974 0 0 1-1.194-2.787c.348.5 0-.746.747.647-.547-.3.747 1.393.547 1.791s0-.249 0 0a.8.8 0 0 1 0 .4c.945 1.095-.6-1.692 0-1.791.348.8.846 1.443.8 1.244a16.584 16.584 0 0 1-.846-1.941c.5.5 0-.6 0-.547l-.3-.249a1.593 1.593 0 0 1 0-1.095c.348.647 0 .5.249.746-.5-1.493 1.095 1.244.9 0 .348.5.747 1.493 1 1.791 0-1.145.846.945.7 0a4.278 4.278 0 0 1-.8-1.891v1l-.448-1.692v.647a4.528 4.528 0 0 0-.7-1.493c1 1.493 0-1.095.7 0l1.294 2.637c.9 1 0-1.642.647-1.194l-.348-.4c-.5-1.045 0 0 0-.746a12.037 12.037 0 0 0 1.045 1.642c-.348-.647.3 0-.547-1.841l.8 1.045c.6.3-.9-2.687-.448-2.587a12.061 12.061 0 0 1 1 2.339s.3 0 0-.547c.348.547-.3-1.294.249-.547 0-.4-.647-1.294-.5-1.294v.4a11.51 11.51 0 0 0-.747-1.592c1.791 2.538.846-.647 2.339 1.493a2.741 2.741 0 0 1 .4-1c0 .249.248.4 0 .348.747.647-1.144-2.587-.348-1.841s.249.846.647 1.294c1.592 2.836 0-.6 1.294.945.7.846 0-1.294 0-1.244v.4a4.977 4.977 0 0 1-.448-2.737 8.054 8.054 0 0 0 .846 1.742c0-.249-.995-1.791-.945-2.239a13.675 13.675 0 0 1 1.543 2.189c.945 1.493.249-.249.5 0l.348.7c0-.4-.7-2.14-.249-2.189l-.348-.5c-.7-1.791.7.846 0-.5l1.045 1.642a12.8 12.8 0 0 1-.4-2.339 22.253 22.253 0 0 1 .9 2.986s.4-.4 0-1.244v.4c-.6-1.443-.747-2.239-.5-2.339 1.841 3.334 1.144.448 2.786 2.936 0-1.493 1.244 0 1.692-.5-1.692-2.488 0 0-1.443-2.787l1.294 1.393c.547.7 0 .647.547 1.244s.8 1.045 1.344 1.642c-.547-.945-.647-1.393-.3-1.145l-.9-1.095c-.448-1.642 1.592 2.04 1.194.4l.348.9c0-.6.747-.4-.3-2.637a6.377 6.377 0 0 1 .7 1.244c.647 0 0-2.836.9-1.741l.3.647c0-.249-.547-1.294 0-.7a3.913 3.913 0 0 0 .4.647c0-.249-.4-1.244 0-.945l.348.8c.945.547-.3-2.189 0-2.836a5.672 5.672 0 0 0 2.189 2.488v.3c.647 0 0-2.09 0-3.135 1.493 1.891 1.543.249 2.687 1.144a7.973 7.973 0 0 1-.846-1.741c.348.3-.4-1.493.547.249 1.045 1.642 1.045 1.045 1.244 1l-1.244-2.289c2.388 3.035.547-1.941 2.538.846a2.588 2.588 0 0 0-.249-1.343l.647 1.244c.547 0 .8 0 1-.348l.448.9a27.5 27.5 0 0 1-1.592-3.881l1.144 1.791c.348-.249 1.692 1.145 1.144-.746a4.132 4.132 0 0 1 .4.9s1.443.846 0-1.642c.9 1.642.5 0 .3-.9l.647 1.194a7.661 7.661 0 0 1-.945-2.588s.6.9.348.647c.547.5-.5-1.244 0-.746l.348.846c.3 0 0-.448-.348-1.393s.547 0 1.194 1.145c-.348-.7-.747-1.642-.448-1.393a3.685 3.685 0 0 1 .4.846c.8.6-.3-1.692.647-.647a2.746 2.746 0 0 0 .448.7h-.6a17.043 17.043 0 0 1 1.692 2.836c-.3-.945-1.045-2.936-.547-2.538l.249.348v-.249l.348.249c.547.9.547.348.7.3-.747-1.194-.448-1.095-1.194-1.99v.249s-.5-1.194 0-.6l-.945-2.04c1.095 1.592 1.941 2.339 2.588 3.334a4.677 4.677 0 0 0-.6-3.284c0-.348.5.6.747.945a1.733 1.733 0 0 0 0 .6c0-.7.448-.547-.448-2.189.647.6.7 1.543.9 1.095l.249.547c2.09 2.14-1.294-4.677 1.294-1.841a2.19 2.19 0 0 1-.4-.5c1.643.945.9-2.339 3.036-.5.5.3 0-.7-.349-1.592l.8 1.294-.647-1.642c-.3-1.294 2.438 2.886 1.692.547l-.6-.846c.249 0 0-.8.746 0 0 0-.448-.945 0-.5l.4.647-.3-1.343c.6.3 1.543 2.737 2.04 2.587a9.953 9.953 0 0 0-1-2.637 3.792 3.792 0 0 1-.846-1.045v-.448a28.221 28.221 0 0 0-3.334-5.324l.448 1.393-.647-.945c-.647-.846-.3 0 0 .647a7.308 7.308 0 0 0-.7-1.045l.846 2.09a12.171 12.171 0 0 0-1.194-1.99 22.786 22.786 0 0 1 1.244 2.388c-.647-.846-1.045-1.592-.7-.746a3.08 3.08 0 0 1-.547-1.095c0 .7 0 .448.348 1.542-.8-1.045 0 .547-1.344-1.343a5.969 5.969 0 0 1 .6 1.742c-1.095-2.389-.548 0-1.891-2.339 1.045 2.14 0 1.194.348 2.488 0 0-.249-.5 0-.4s-.647-.7-1-1a18.015 18.015 0 0 1 1.443 3.334 32.242 32.242 0 0 1-1.991-3.583c.8 1.343.448 1.543 1.145 2.637a10.742 10.742 0 0 1-1.244-1.741c1.144 2.09 0 .4.647 1.791-.8-.945-1.144-1.941-1.045-1.194a4.684 4.684 0 0 1-.908-1.452zm-3.384 6.817zm-.448.3a2.138 2.138 0 0 1 .448.846 7.575 7.575 0 0 0-.3-.846zm5.772 7.812z" class="cls-1" transform="translate(133.422 131.454)"/>
        <path id="Path_73475" d="M590.515 358.372s1.493 1.045 2.339 1.642-1.194-.6-2.04-1.045c.348.348 1.642 1.443 1.493 1.542l-.647-.448c1.045 1-.249.448 1 1.841l-.348-.3 1.941 1.592s.747.945-.249 0c0 0 0-.348-.5-.6l.3.448c-1.393-1.045-.348-.547-1.344-1.393.3.547 1.144 1.742.647 1.592-1.294-1.095 0-.746-1.443-1.543h.7a16.733 16.733 0 0 1-2.04-1.692c-.6 0 .4.846 0 .8.647.7 1.045.945 1.692 1.642.746 1.642-3.334-2.637-2.04-.8.7.9 2.14 2.488 1.094 1.891l-1.194-1.493c-.448 0 1.692 2.189.5 1.543s0-.7-.4-.8c-1.194-.945.6.9.4 1.045l-1.144-1.194c0 .448.3 1.742 0 2.289a4.534 4.534 0 0 0-1-1.194c0 1.045-1.194.7-2.289.249l.7 1.294a2.673 2.673 0 0 1-.6-.746c-.1-.3.547.8.746 1.294s-.647-.547-.8-.945c.348 1.244.5 2.886-.8 1.891v-.448c-.647-.249 1.294 2.737 0 1.841v-.249c-1.045 0-1.094 1.592-2.886 0 1.094 1.841-1.244-.3.348 2.189-1.194-.945-1.393-1.443-2.488-1.891-.249 0 .8 1.692.746 2.09l-.846-1.294.647 1.493-1.144-1.393v.8a4.494 4.494 0 0 1 .8.846c.249.4-1.294-.448-1.741-1.095v1.543a4.4 4.4 0 0 1-.5-1.194c.547 1.543-.946-1.294-.448 0 0 .249.448.746.647 1-.7-.647-1.045-.4-1.094 0l-.547-.9c-.647 0-.747 1.095-1.294 1.443a5.476 5.476 0 0 1 1.393 2.09l-.995-1.294c.448.9.5.4 1 1.543-.3 0-1.194-1.443-1.344-1.941v.647c-.3-.4-.348-.647-.7-1.194.448.9-1.344-1.045-.5.5l-.3-.4c-.547.348-.5 1-.9 1.343.8 1.194.448 1.045.946 2.09-.6 0-1.543-.846-1.891-.448s.6 1 .945 1.791c-.746-1.045-1.094-.7-1.393-1.592-.348.5-.448.647-.5 1.891a3.336 3.336 0 0 1 .8.945c0 .249-.547-.3-.9-.8.4 2.04-3.632-2.04-2.637.547v1.543c-.348 0-.4-.9-1-1.443.6 2.189-1.144.4-.846 1.891-2.488-2.836-1.194 1.145-3.035-.5l.5.7c.4.8-.4-.3-.647-.4s.6.547.8 1c-.547 1.642-3.035.5-4.628.6-.547 0 2.289 3.981.6 2.587l-.747-1.493c0 2.239-1.791 1.144-1.692 3.085 0-.348-.448-.8-.348-.846-.846-.846-.7.4 0 1.194a10.791 10.791 0 0 0-.846-1.045c-.348-.348.4 1.543-.348.647a.8.8 0 0 1 0-.5c0 .6-.6 0 .249 1.343-.7-.348-.249.9-.945.4.647 1.393-.945-.3 0 1.543-1.244-1.891-1.543-1.145-1.194 0-.3-.6-.547-.448-.945-1.294-.249 0 0 .647.448 1.592-1.841-1.99.348 2.389-1.742-.4a9.944 9.944 0 0 1-.547 3.384c-1.144-1.891.547-.6-.747-2.587 0 1.145.647 2.986 0 2.886s-.448-.9-.6-1.244c0 1.145-1.244.547-1.095 1.891a2.776 2.776 0 0 1 0-.6s-.4 0 0 .747v-.3a16.78 16.78 0 0 1 1.592 3.533c-1.343-2.587-.9-.3-2.537-3.632a2.986 2.986 0 0 0 .547 1.244 3.25 3.25 0 0 1-.746-1.145c0 .7.647 1.543.3 1.742s-.3-.647-.547-1.145c.3.9.647 1.841 0 1.642s-.348-.547-.3-.6.547 2.687-.5 2.189c-.945-1.891-.547-.5-1.493-2.04v.647l.547.7c-.249 0 0 1.393-.3 1v-.746l-.3.6.647.448c0 .945 1.194 1.99.6 1.742s0 0-.945-.746c0 .6.348 1.194 0 .9a23.032 23.032 0 0 1-1.244-2.09c.647 1.393-.348.7.3 2.239a6.98 6.98 0 0 0-.747-1.393l.547 1.145a2.788 2.788 0 0 1-.8-1.145c-.5 0 1.294 1.991.348 1.344v-.448c0-.448-.4 1.145-1.095.846-1.045-1.543 0-.6-.8-1.891-.4.6 0 2.587-.846 2.488 1.244 2.339-1-.9-.7.3a4.041 4.041 0 0 0-.5-1.045c-.547 0-.4 1-.6 2.04v-.647c-.5-.448-.747 0-1.144 0a4.985 4.985 0 0 0 .6 1.443c-2.488-3.035-.448 2.588-2.588 0v-.6l-.3.846a8.125 8.125 0 0 0 .9 1.294c.249.647.348 1.194 0 1.294a5.568 5.568 0 0 0-1.244-2.189l.5 1c-1.194-1.692 1 2.09 0 1.095v.5c-.647-1.145 0-.647-.547-1.642 0 0 .647 2.488 0 1.393v-.8c-.9-1.294-.747-.945-1.045-1.095l-.7-.448.3.3c1.194 3.284-.348.846 0 3.085-.547-2.09-.448-1.145-1.095-2.538a3.982 3.982 0 0 1-.747-1.045c.348 1.144-.7-.747 0 1-.249-.448 0 0-.7-1.095 0 .448.4.746.647 1.294.348 1.692-1.692-1.393-1.244.9 0 1.045.5 2.587.4 3.533a4.985 4.985 0 0 1-.6-1.692c-.547-.547-.647-.348-.647.249a3.626 3.626 0 0 0-.6-1.144s.6 1.642 0 1.094l-.6-1.841v1.891a4.976 4.976 0 0 1-.5-1.791 3.132 3.132 0 0 0 0 2.239l.348.4a4.972 4.972 0 0 1-.547-1.294c0-1.045.5.3.7.746v.348c1.244 2.538.448-.7.8-.7l.7 1.99-.348-1.742a5.731 5.731 0 0 1 .747 1.891c.647.8 0-.8.547 0a.644.644 0 0 1 0 .348v-.647c0 .4.647 1.294.4 1.095.9.9 0-1.692.8-.348 0-.9-.547-1.443-.9-3.234l1.841 3.284-.6-1.393s.249 0 .5.647c0-1.045-.348-.6-.6-1.543.846 1.145.448-.945 1.543 1.244-.4-1.095-.647-.7-.7-1.543 1.194 2.289 0-.6.9.4s0 .7.746 1.692c-.846-2.14.647 0 .7-.3-.8-1.642 0-.9 0-1.592 0 .547 1.095.547 1.741 1v.249c-.747-1.642-.249-1.542 0-1.99a7.026 7.026 0 0 1 .747 1.891 2.239 2.239 0 0 1 0-1.144l.547 1.244c.249 0 0-1.742.7-1.095a14.528 14.528 0 0 1-1.941-3.98 7.808 7.808 0 0 1 .9 1.94v-.348l.348 1.145c.448.348-.348-.945 0-.9.448.846.448.547.747 1.244s-.3-.3 0 0a2.737 2.737 0 0 1 1.095 1.095 3.232 3.232 0 0 1-.547-1.343c.249 0 .647 1 1.045 1.343-.249-.647.3 0-.4-1.393 0 0 .448.547.647.846 0-.647.647-.547 0-1.791 0-1.543 1.443 0 1.642-.647l.249.4c0-.647.5-.647 0-1.692a4.072 4.072 0 0 1 .9 1.194c0-.448 0-.945.5-.4s.448.6 0 .647c.5 0 .946.9.6-.448.5 1.144 1 1.244.945.846l-.647-.7c0-.249 0-.249.448 0l.746 1.493c1.642 1.393-.6-3.632 1.543-.945-.448-1.095-.747-.547-1.294-1.791.4 0 1.891 1.941 1.99 1.891.846.547-.9-2.289 0-1.99a6.773 6.773 0 0 1-1.194-2.488 5.871 5.871 0 0 1 1.642 2.438h-.248a1.294 1.294 0 0 0 .448 1v-.547c.448.448.8 0 1.194 1.045a1.394 1.394 0 0 0-.7-1.045c.747.547.547-.3 1.194 0 0 0-.647-.8-.547-.8.9.3-.348-1.095 0-1.543.7.647 1.045 1.891 1 1a3.931 3.931 0 0 1 1.045 1.791c-.249-1.194 1 0 1.294.349v.1l-.7-.945a.844.844 0 0 1 .547.448 24.267 24.267 0 0 1-1.443-2.637c.448.448 0-.8.945.5-.7 0 .846 1.343.647 1.742s0-.249 0 0v.348c1.144.945-.746-1.592-.3-1.841.4.8.945 1.393.945 1.145s-.846-1.194-1.045-1.841c.6.4 0-.647 0-.647h-.348a1.245 1.245 0 0 1 0-1.095c.4.547 0 .5.348.7-.647-1.443 1.294 1.095 1.045 0 .448.4.9 1.393 1.194 1.642-.249-1.194 1.045.8.846 0a3.632 3.632 0 0 1-.945-1.841v1.095l-.547-1.692v.746a2.932 2.932 0 0 0-.8-1.443c1.144 1.344 0-1.194.8-.348l1.543 2.488c1.095.846 0-1.692.846-1.443l-.448-.3c-.6-1.045 0-.348 0-.846a9.306 9.306 0 0 0 1.194 1.542c-.4-.6.4 0-.6-1.891l.945.945c.7 0-1.045-2.637-.5-2.637.5 1 1.045 1.443 1.194 2.289 0 0 .348 0 0-.6.4.448-.348-1.343.249-.647 0-.4-.7-1.294-.5-1.294v.4a5.487 5.487 0 0 0-.846-1.543c2.09 2.289 1-.9 2.786 1.045a4.519 4.519 0 0 1 .5-1.194s.3.4 0 .349c.846.547-1.344-2.488-.4-1.891s.3.846.746 1.244c1.841 2.687 0-.7 1.543.7.846.8 0-1.343.3-1.393l.3.4a4.181 4.181 0 0 1-.448-2.886c.6 1.145 0 .7 1 1.692 0 0-1.194-1.692-1.094-2.189a21.634 21.634 0 0 1 1.791 1.99v.249c1.144 1.393.348-.249.647 0l.448.647c0-.5-.8-2.139-.3-2.339l-.348-.448c-.846-1.742.8.8 0-.6l1.194 1.592a10.375 10.375 0 0 1-.4-2.488 19 19 0 0 1 1 3.035 1.173 1.173 0 0 0 0-1.344v.448c-.647-1.393-.846-2.239-.5-2.389 2.09 3.185 1.393 0 3.284 2.488 0-1.543 1.493-.249 2.04-.9-1.941-2.289 0 0-1.642-2.687 0-.3 0-.3.3 0l1.499 1.169c.6.647 0 .647.6 1.244s.9.945 1.543 1.493c-.647-.9-.746-1.393-.3-1.194l-1.094-.945c-.4-1.692 1.841 1.841 1.443 0l.4.9c0-.6.9-.6 0-2.787 0 .3.746.945.746 1.194.8 0 0-3.035 1.144-2.14l.4.647c0-.249-.6-1.244 0-.746a3.228 3.228 0 0 0 .448.647c0-.249-.448-1.244 0-1l.348.746c1.144.448-.249-2.289 0-3.035 1.194 1.841 2.04 2.14 2.488 2.239v.3c.846 0 0-2.289.3-3.433 1.692 1.742 1.841 0 3.185.647a4.968 4.968 0 0 1-.946-1.692c.4.3-.448-1.542.647 0 1.194 1.592 1.194.945 1.493.846l-1.443-2.239c2.737 2.786.8-2.239 3.035.4a2.68 2.68 0 0 0-.249-1.393l.8 1.145c.6 0 .9 0 1.194-.6l.5.9c.3 0-1.941-3.583-1.741-3.832l1.294 1.692c.448-.348 1.991.846 1.443-1.095a4.965 4.965 0 0 1 .448.9s1.692.6 0-1.742c1.045 1.543.647-.249.448-1.095l.747 1.145c-.8-1.592-1.045-1.99-1-2.637s.7.846.4.647c.647.4-.547-1.244 0-.846l.4.8c.348 0 0-.448-.4-1.393s.7 0 1.493.9c-.448-.647-.9-1.592-.547-1.393a3.589 3.589 0 0 1 .5.747c1.045.448-.348-1.742.8-.946a2.591 2.591 0 0 0 .6.647c-.4.249-.746.4-.746.3.746 1 1.194.945 2.04 2.538-.348-.945-1.244-2.936-.6-2.687l.3.348v-.3c0-.3.348 0 .448 0 .7.8.7 0 .9 0-.945-1.045-.6-1.045-1.493-1.791V371.678c-.348-.647-.647-1.194 0-.7l-1.244-1.891c1.443 1.343 2.488 1.791 3.334 2.637 0-1 .7-1.343-.9-3.483 0-.348.647.448 1 .7s0 .3.249.6c-.249-.746.5-.9-.8-2.189.9.249 1.095 1.294 1.244.7l.4.448c3.035 1-2.438-4.379 1.294-3.035a1.742 1.742 0 0 1-.647-.249c2.289-.348 0-3.135 3.135-3.533.7-.249-.4-.7-1.194-1.194l1.443.348-1.493-.9c-1.095-.8 3.832-.348 1.642-1.642h-1.644c0-.249-.547-.9.647-.8 0 0-1.045 0-.5-.249h.746a8.679 8.679 0 0 0-1.294-.746c.5-.547 3.135 0 3.185-.945a4.979 4.979 0 0 0-2.836-.5 2.183 2.183 0 0 1-1.244.448h-.448a43.56 43.56 0 0 0-6.22.945h1.841a18.078 18.078 0 0 0-2.339 0 20.987 20.987 0 0 1 2.737 0h-2.31c.747 0 .3.249 1.543.4-1.294 0 .249.4-1.891 0a6.325 6.325 0 0 1 1.741.6c-2.537-.8 0 .3-2.936-.547 2.189.8.9.647 1.991 1.343 0 0-.5-.249-.348-.249a6.047 6.047 0 0 1-1.344-.3 16.586 16.586 0 0 1 3.085 1.841c-1.741-.7-1.99-1.144-3.632-1.891 1.443.7 1.294 1 2.438 1.543a14.143 14.143 0 0 1-1.99-.9c2.14 1.244.348.3 1.542 1.194-1.144-.448-1.941-1.145-1.443-.6a6.821 6.821 0 0 1-1.441-.51zm-1.194 7.315zm-.5.448c.348.348.6.746.547.8s-.197-.552-.545-.801zm7.265 6.568c0 .249 0 0-.348 0a.544.544 0 0 0 0-.3z" class="cls-1" transform="translate(106.34 180.766)"/>
        <path id="Path_73526" d="M552.763 386.615c.349 0 0-1.791 0-2.836s.249 1.343.4 2.289c0-.5.3-2.189.5-2.14s0 .4 0 .8c0-1.493.7 0 .846-1.99v-1.841c0-.647 0-1.194.3 0v.3c.249 1.692 0 .6 0 1.891.249-.6.4-2.04.647-1.592 0 1.692-.4.647 0 2.09l-.4-.6c.5 2.637 0 0 .3 2.637.5.448.4-.9.9-.448v-2.339c.4-1.742.946 4.18 1.145 1.891 0-1.145 0-3.234.249-2.189v1.941c.448 0 0-2.787.5-1.543s-.249.647 0 .9c.5 1.443 0-1.095.249-1.145l.3 1.692c.4-.348.7-1.642 1.095-2.04a8.432 8.432 0 0 0 .3 1.543c.448-.945 1.343 0 2.14.846v-1.493a2.192 2.192 0 0 1 0 .9c.349.5 0-.9 0-1.493s.349.8.349 1.244c0-1.294.547-2.836 1.343-1.443v.448c.5.5-.349-2.986.3-1.742v.249c.846.448 1.244-1.045 2.388.9-.5-2.04.945.7 0-2.09.8 1.244.846 1.791 1.692 2.538s-.3-1.791-.249-2.14l.5 1.443v-1.592l.7 1.692v-.448a3.337 3.337 0 0 1-.5-1.045c0-.7 1 .846 1.244 1.543v-1.443a4.512 4.512 0 0 1 0 1.244c0-1.592.6 1.493.448 0a11.261 11.261 0 0 1-.4-1.194c.5.846.846.7.946.249l.348 1c.547 0 .8-.846 1.343-1a6.229 6.229 0 0 1-.7-2.637l.647 1.493c-.249-1-.349-.5-.6-1.742a6.021 6.021 0 0 1 .9 2.189v-.6a12.65 12.65 0 0 1 .448 1.294c-.3-1 1.045 1.294.5-.348v.448c.547-.249.547-.846.946-1.095a11.846 11.846 0 0 1-.6-2.14c.448.249 1.244 1.095 1.542.846s-.4-1.095-.647-1.941c.547 1.194.9.9 1.095 1.791.3-.348.448-.448.5-1.642a7.805 7.805 0 0 1-.6-1.045 3.206 3.206 0 0 1 .7.945c-.249-2.04 3.035 2.637 2.338 0v-1.505c.3 0 .3.9.846 1.542-.5-2.189.945 0 .746-1.692 2.14 3.135 1.045-.9 2.638.945l-.448-.746c-.3-.8.4.348.6.5s-.547-.6-.7-1.095c.4-1.443 2.637 0 4.08 0 .448 0-2.289-3.981-.7-2.488l.746 1.443c-.348-2.09 1.543-.846 1.294-2.737 0 .348.448.746.349.8.8.9.6-.3 0-1.095a10.8 10.8 0 0 0 .846 1.045c.349.348-.5-1.493 0-.547a1.131 1.131 0 0 1 0 .448c-.249-.547.547 0-.348-1.294.647.4 0-.846.8-.3-.747-1.343.846.3-.349-1.493 1.294 1.841 1.493 1.145 1 0 .349.6.547.448 1.045 1.244a3.015 3.015 0 0 0-.6-1.493c1.891 1.941-.647-2.239 1.592.4a11.552 11.552 0 0 1 0-3.135c1.393 1.791-.349.547 1.095 2.438 0-1.095-1.045-2.836 0-2.737s.5.846.7 1.194c0-1.095 1-.5.6-1.791a2.038 2.038 0 0 1 .3.547s.4 0-.249-.647v.249a17.209 17.209 0 0 1-2.09-3.284c1.692 2.388.8.3 2.936 3.334a9.932 9.932 0 0 0-.746-1.144 2.929 2.929 0 0 1 .846 1.045c0-.647-.846-1.393-.6-1.592s.4.6.746 1.045c-.5-.846-1-1.692-.5-1.543s.448.547.348.6-.995-2.488 0-2.09c1.244 1.791.6.448 1.791 1.891v-.6l-.647-.647s-.5-1.294 0-.945l.348.7v-.547l-.647-.4c-.448-.9-1.493-1.791-.946-1.592s0 0 1 .647c-.3-.547-.6-1.095 0-.846s1.294 1.592 1.592 1.891c-.945-1.244 0-.647-.846-2.04a9.943 9.943 0 0 0 1 1.244l-.747-1.045a3.691 3.691 0 0 1 .946 1c.4 0-1.592-1.742-.647-1.194v.4c0 .4 0-1.095.747-.846 1.294 1.343 0 .547 1.144 1.692 0-.6-.647-2.389 0-2.389-1.692-2.04 1.145.746.5-.348a8.561 8.561 0 0 0 .747.945c.5 0 0-.945 0-1.941l.4.6c.547.3.647 0 1 0a5.43 5.43 0 0 0-.946-1.244c3.035 2.438-.448-2.388 2.14-.348 0 0 0 .547.3.5v-.8a7.451 7.451 0 0 0-1.194-1.095c-.4-.547-.647-1-.548-1.095a6.676 6.676 0 0 0 1.742 1.791l-.747-.846c1.543 1.393-1.493-1.742-.348-.945l.4.448c0-.3-.547-1-.3-.945.9.945.3.547 1 1.393 0 0-1.393-2.14-.349-1.294a.782.782 0 0 0 .3.746c1.194 1.045.946.746 1.194.8l.746.3-.348-.249c-2.14-2.737 0-.8-1.344-2.737 1.194 1.841.8.945 1.791 2.09a8.619 8.619 0 0 1 1.045.846c-.7-1 .846.547 0-.9.348.348 0 0 .945.846 0-.448-.6-.6-1-1.095-.9-1.443 1.891 1 .7-1-.348-.945-1.393-2.189-1.642-3.035a4.967 4.967 0 0 1 1.095 1.343c.647.4.647 0 .4-.348a8.453 8.453 0 0 0 .945.945s-1.094-1.343-.448-.945l1.194 1.543c0-.5-.647-1.244-.846-1.692a7.914 7.914 0 0 1 1.144 1.443 3.932 3.932 0 0 0-.995-1.941h-.4a4.078 4.078 0 0 1 .9 1.045c.6.9-.5 0-.846-.547v-.3c-1.991-2.04 0 .7-.4.746l-1.294-1.642.945 1.493a6.877 6.877 0 0 1-1.344-1.551c-.846-.6.349.7-.547 0v-.3l.3.6c-.249-.348-1-1.045-.7-.9-1.095-.7.647 1.493-.5.4 0 .846 1 1.145 1.941 2.687l-2.687-2.587 1 1.145-.6-.5c.547.9.448.5 1.045 1.294-1.095-.9 0 .9-1.692-.9.7.945.746.547 1.095 1.294-1.791-1.891 0 .5-.846-.249s0-.647-1.194-1.393c1.443 1.791-.647 0-.5.348 1.244 1.343 0 .846.448 1.443-.4-.448-1.095-.348-1.742-.647v-.249c1.194 1.393.747 1.343.846 1.741a6.667 6.667 0 0 1-1.195-1.592 2.838 2.838 0 0 1 .547.945l-.845-1.045c0 .249.647 1.542 0 1.095a18.59 18.59 0 0 1 2.886 3.334 10.556 10.556 0 0 1-1.393-1.642s.3.5 0 .3l-.647-.945c-.448-.249.6.8.4.8l-1-1.095a3.932 3.932 0 0 1-1.244-.9 8.282 8.282 0 0 1 .9 1.144 9.2 9.2 0 0 0-1.294-1.095 9.849 9.849 0 0 1 .746 1.244l-.8-.746c.349.547-.348.547.8 1.592.647 1.343-1.244 0-1.144.7l-.349-.348a3.1 3.1 0 0 0 .349 1.543 4.969 4.969 0 0 1-1.045-1.045c0 .4.4.846-.348.4s-.547-.5-.249-.6-1-.7-.348.5c-.747-1.045-1.194-1.095-1-.746l.7.6h-.3l-1.045-1.294c-1.692-1.194 1.543 3.234-.945.9.647 1 .746.448 1.493 1.543-.3 0-2.04-1.692-2.09-1.642-.846-.5 1.344 2.04.647 1.791a8.418 8.418 0 0 1 1.642 2.189c-.349 0-1.841-1.692-1.991-2.14s0 0 .249 0a1.6 1.6 0 0 0-.647-.9l.349.448c-.448-.4-.647 0-1.244-.9a2.093 2.093 0 0 0 .9.945c-.8-.5-.4.249-1 0l.7.746c-.846-.249.547 1 .448 1.393-.7-.547-1.294-1.692-1.095-.9a5.524 5.524 0 0 1-1.244-1.642c.5 1.095-.9-.249-1.144-.3v-.1l.846.846a.994.994 0 0 1-.6-.448c.448.7 1.294 1.493 1.841 2.438-.5-.4 0 .746-.9-.448.6 0-1.045-1.244-.946-1.592v-.348c-1.144-.9.946 1.493.647 1.692-.5-.746-1.095-1.294-1.045-1.095s1 1.095 1.294 1.742c-.6-.4 0 .547 0 .547h.3c.5.7.349.7.4 1-.448-.547 0-.448-.4-.647.8 1.343-1.344-1.045-.9 0-.448-.4-1-1.294-1.343-1.543.5 1.045-1-.8-.647 0a4.97 4.97 0 0 1 1.194 1.692v-.945l.8 1.543v-.7a3.829 3.829 0 0 0 .946 1.343c-1.244-1.244.348 1.095-.6.3l-1.791-2.339c-1.045-.846.448 1.543-.349 1.244l.4.3c.647 1 0 .3 0 .8a8.392 8.392 0 0 0-1.294-1.493c.448.6-.3 0 .846 1.742l-.946-.945c-.6 0 1.344 2.538.846 2.488a16.339 16.339 0 0 1-1.344-2.189s-.3 0 0 .547c-.4-.448.547 1.244 0 .547 0 .4.8 1.244.647 1.244l-.3-.4a8 8 0 0 0 .946 1.493c-2.04-2.289-.7.8-2.488-1.194a2.036 2.036 0 0 1 0 1.045c0-.249-.3-.4 0-.349-.8-.547 1.443 2.438.547 1.791s-.349-.8-.747-1.244c-1.891-2.637 0 .6-1.393-.8-.747-.8.3 1.244 0 1.244v-.4a4.973 4.973 0 0 1 .7 2.687 9.948 9.948 0 0 0-.995-1.692c0 .249 1.144 1.742 1.144 2.189a15.631 15.631 0 0 1-1.742-2.09c-1.095-1.443-.249.249-.547 0l-.4-.7c0 .448.9 2.09.448 2.189l.348.5c.846 1.742-.746-.846 0 .5l-1.095-1.642a14.076 14.076 0 0 1 .5 2.339 24.309 24.309 0 0 1-1.045-2.936s-.348.349 0 1.244v-.448c.647 1.443.8 2.189.547 2.339-1.891-3.284-1.144-.448-2.836-2.886.3 1.443-1.145 0-1.543.448 1.642 2.488 0 0 1.393 2.787l-1.194-1.393c-.547-.746-.249-.647-.547-1.244a7.674 7.674 0 0 0-1.294-1.692c.547.945.647 1.393.3 1.145l.9 1.095c.4 1.642-1.543-2.09-1.145-.448l-.3-.945c0 .6-.7.348 0 2.637a5.919 5.919 0 0 1-.6-1.294c-.6 0 0 2.836-.9 1.692v-.7s.448 1.343 0 .7a4.109 4.109 0 0 0-.348-.7c0 .249.348 1.294 0 .945v-.8c-.846-.7 0 2.14 0 2.787a6.019 6.019 0 0 0-1.841-2.737v-.3c-.6 0 0 2.04-.348 3.035-1.194-2.04-1.393-.5-2.338-1.592a8.282 8.282 0 0 1 .547 1.841c0-.348 0 1.543-.448-.348-.8-1.841-.846-1.244-1.045-1.244l.846 2.488c-1.742-3.433-.846 1.791-2.189-1.393v1.393l-.448-1.343c-.448-.249-.647-.4-.945 0v-1s.846 3.981.647 4.13l-.647-1.99c-.4 0-1.244-1.543-1.145.4a3.143 3.143 0 0 1 0-1s-1.045-1.194-.3 1.592c-.448-1.791-.448 0-.5.8v-1.343a8.258 8.258 0 0 1 0 2.787s-.3-1.095 0-.747c-.348-.7 0 1.294-.3.647v.547c0 1.045-.5 0-.8-1.493v1.443a3.822 3.822 0 0 1 0-.9c-.547-.846-.249 1.692-.746.4v-.8h.547a17.7 17.7 0 0 1-.647-3.185c0 1 0 3.085-.3 2.538v-.548c0-1.045-.348-.547-.448-.547a12.37 12.37 0 0 0 .348 2.289v-.249h.3v2.836c-.5-1.891-.945-2.886-1.144-4.08a4.528 4.528 0 0 0-.647 3.234c0 .348 0-.746-.3-1.144a1.845 1.845 0 0 0 0-.6c0 .7-.6.3-.448 2.139-.349-.8 0-1.692-.349-1.343v-.547c-.9-2.886-.746 4.727-1.841 1.045a2.479 2.479 0 0 1 0 .647c-.946-1.642-1.841 1.642-2.737-1 0-.547 0 .6-.448 1.493v-1.493l-.3 1.741c-.448 1.244-.5-3.682-1.095-1.343v1.045c0-.249-.6.547-.5-.647v-.249l-.5 1.294c-.3-.547 0-3.085 0-3.284a10.834 10.834 0 0 0-.7 2.786 2.588 2.588 0 0 1 0 1.294v.4a23.192 23.192 0 0 0-.3 6.27l.448-1.343v1.095h-.3c0 1.095 0 0 .448-.5a4.956 4.956 0 0 0 0 1.244l.5-2.189a13.562 13.562 0 0 0 0 2.339c.248-1.045 0-2.04.3-2.737v1.045a4.956 4.956 0 0 1 0 1.244c0-.7.448-.3.6-1.493 0 1.294.6-.3.448 1.891a6.873 6.873 0 0 1 .548-1.841c-.4 2.637.547 0 .4 2.986 0-2.339.746-1.045 1.144-2.339v.448a2.609 2.609 0 0 0 .4 1.343 17.714 17.714 0 0 1 .448-3.583 27.9 27.9 0 0 1 0 4.081c0-1.543.4-1.592.3-2.886a13.606 13.606 0 0 1 .3 2.189c0-2.438 0-.448.3-1.941.3 1.194 0 2.289.4 1.543a3.384 3.384 0 0 1-4.727 2.438zm6.668-4.976zm.547 0h-.249a2.586 2.586 0 0 1 0-.945 3 3 0 0 0 .249.9zm-2.737-9.4v.348z" class="cls-1" transform="translate(194.976 152.579)"/>
        <path id="Path_73577" d="M553.861 396.694c.348 0 0-1.791.348-2.836s0 1.343 0 2.289c.3-.448.547-2.14.747-2.04a4.063 4.063 0 0 1 0 .746c.349-1.443.846 0 1.194-1.841v.448a21.437 21.437 0 0 1 0-2.538s.3-1.145.3 0v.3c0 1.742-.249.6-.3 1.891.348-.547.746-1.99.945-1.493 0 1.692-.547.547-.249 2.04l-.349-.647c0 2.687-.249 0 0 2.687.5.5.6-.846 1.095-.348v-2.339c0-.945.547 4.279 1.045 1.99 0-1.095 0-3.234.547-2.14v1.937c.5 0 0-2.737.8-1.493s-.4.647-.3.9c.349 1.493 0-1.095.448-1.095v1.688c.5-.3 1.045-1.543 1.592-1.841a4.033 4.033 0 0 0 0 1.543c.7-.9 1.542 0 2.339 1.095v-1.493a2.236 2.236 0 0 1 0 .945c.348.5 0-.945 0-1.543v1.294c.4-1.244 1.145-2.787 1.841-1.294v.448c.448.547 0-3.035.6-1.692v.249c.946.547 1.692-.9 2.687 1.145 0-2.09 1.045.8.6-2.14.747 1.343.7 1.891 1.592 2.737v-2.239l.349 1.493v-1.592l.6 1.742v-.448a3.23 3.23 0 0 1-.4-1.045c0-.746 1.045.846 1.244 1.592l.547-1.443a3.442 3.442 0 0 1 0 1.244c0-1.642.5 1.543.547 0a5.692 5.692 0 0 1-.249-1.194c.4.846.9.7 1.095.249v1.045c.7 0 1.144-.9 1.841-1.095a4.975 4.975 0 0 1-.8-2.389l.6 1.493c0-1-.4-.5-.547-1.742.3 0 .8 1.692.8 2.239v-.647a2.035 2.035 0 0 0 .348 1.294c0-1 1.095 1.343.7-.348v.448c.647-.249.746-.9 1.244-1.194-.5-1.294 0-1.095-.448-2.189.547.249 1.393 1.095 1.791.8s-.4-1.145-.6-1.941c.547 1.144.945.846 1.095 1.791.448-.448.6-.547.8-1.791a4.589 4.589 0 0 1-.6-1.045c0-.249.5.348.747.945 0-2.04 3.334 2.538 2.737 0v-1.393c.4 0 .3.945.846 1.542-.348-2.239 1.145-.249 1-1.791 2.14 3.135 1.244-.945 2.886.9l-.448-.746c-.3-.846.4.348.6.448s-.5-.6-.647-1.095c.6-1.543 2.886 0 4.429 0 .547 0-1.941-4.18-.4-2.587l.647 1.493c0-2.189 1.741-.846 1.791-2.787a2.81 2.81 0 0 1 .3.846c.746.946.647-.3 0-1.194 0 0 .448.8.746 1.194s-.249-1.592.4-.6a.942.942 0 0 1 0 .448c0-.547.6 0 0-1.294.6.4.3-.9.946-.3-.6-1.443.9.348 0-1.592 1.045 1.99 1.393 1.343 1.095.3.249.6.5.5.9 1.393a4.9 4.9 0 0 0-.4-1.642c1.692 2.14 0-2.339 1.692.547a9.943 9.943 0 0 1 .647-3.284c1.045 1.99-.547.6.6 2.637 0-1.145-.448-2.986.4-2.836s.349.9.5 1.294c0-1.145 1.194-.448 1.094-1.791a1.392 1.392 0 0 1 0 .6s.4 0 0-.747v.3a15.475 15.475 0 0 1-1.443-3.632c1.194 2.687.846.4 2.339 3.782a6.759 6.759 0 0 0-.5-1.244 2.538 2.538 0 0 1 .647 1.194c0-.7-.547-1.592 0-1.741s0 .647.5 1.145c-.3-.9-.6-1.841 0-1.642s.348.6.249.647-.448-2.687.547-2.14c.846 1.941.5.5 1.443 2.14v-.658l-.547-.746c.249 0 0-1.393.3-1v.8l.3-.547-.6-.5c0-1-1.144-2.04-.6-1.791s.249 0 .9.8c0-.547-.348-1.194 0-.9a13.1 13.1 0 0 1 1.145 2.189c-.6-1.443.4-.7 0-2.239a9.022 9.022 0 0 0 .7 1.393l-.5-1.144a3.423 3.423 0 0 1 .746 1.144c.448 0-1.244-2.04-.348-1.343a.951.951 0 0 1 0 .448c.647.249.4-1.095 1.095-.746 1 1.543 0 .547.746 1.891.4-.6 0-2.587.8-2.488-1.194-2.389 1 .9.647-.3 0 0 .647 1.294.5 1.045s.448-.945.547-1.99l.3.647c.5.4.7 0 1.045 0a4.039 4.039 0 0 0-.6-1.443c2.538 3.035.3-2.538 2.488 0v-.249a11.049 11.049 0 0 0-.945-1.294c-.249-.647-.349-1.145-.249-1.244a5.718 5.718 0 0 0 1.294 2.14l-.5-1c1.244 1.642-1.095-2.04 0-1.045l.3.547c0-.348-.3-1.095 0-1.045.7 1.145 0 .647.7 1.592 0 0-.8-2.438 0-1.393a4.969 4.969 0 0 1 0 .846c1 1.244.8.9 1.095 1l.7.448-.3-.348c-1.393-3.185.249-.846-.5-3.035.7 2.09.547 1.145 1.244 2.438a5.874 5.874 0 0 1 .846 1.095c-.448-1.194.747.647 0-1.045.249.448 0 0 .747 1.045 0-.448-.448-.7-.7-1.244-.5-1.642 1.741 1.343 1.144-.945 0-1.045-.746-2.538-.746-3.433a4.969 4.969 0 0 1 .746 1.592c.547.5.647.3.6-.3a4.147 4.147 0 0 0 .7 1.144s-.747-1.592 0-1.095.6 1.294.8 1.791c0-.5-.3-1.393-.3-1.891a7.416 7.416 0 0 1 .7 1.741 3.134 3.134 0 0 0-.4-2.189l-.348-.348a9.132 9.132 0 0 1 .647 1.244c.05.249-.5-.3-.746-.7v-.348c-1.543-2.438-.349.7-.7.7l-.9-1.841.547 1.642a6.275 6.275 0 0 1-.945-1.791c-.7-.747 0 .746-.547 0a.755.755 0 0 1 0-.3v.647c0-.4-.746-1.294-.5-1.095-.9-.846 0 1.692-.7.4 0 .9.7 1.343 1.194 3.135l-2.04-3.185.7 1.393-.547-.647c.349 1.045.349.6.747 1.493-.946-1.095-.349.945-1.592-1.145.448 1.045.647.647.8 1.493-1.344-2.239 0 .547-.9-.348s0-.746-.846-1.642c1 2.04-.647 0-.647.249.9 1.592 0 .9 0 1.592 0-.547-1.094-.547-1.692-.945v-.3c.8 1.642.349 1.493.3 1.941a5.524 5.524 0 0 1-.8-1.841 2.334 2.334 0 0 1 0 1.144l-.6-1.244c-.249 0 0 1.692-.547 1.095.6 1.145 1.99 2.985 1.99 3.931a11.062 11.062 0 0 1-.946-1.941v.348l-.4-1.095c-.4-.348.4.9 0 .846-.5-.846-.448-.547-.8-1.244s.3.3 0 0a3.387 3.387 0 0 1-1.144-1.145 3.876 3.876 0 0 1 .6 1.343 9.181 9.181 0 0 0-1.046-1.343c.249.647 0 0 .448 1.393a8.823 8.823 0 0 1-.647-.9c0 .647-.6.547.3 1.841 0 1.543-1.343 0-1.493.6v-.4c0 .647-.448.6 0 1.642a6.933 6.933 0 0 1-.9-1.194c0 .448.249.945-.448.4s-.448-.647 0-.7c-.5 0-.9-.9-.547.448-.547-1.144-1-1.244-.945-.846l.647.647c0 .249 0 .249-.448 0l-.7-1.493c-1.543-1.443.6 3.583-1.443.846.4 1.095.7.547 1.244 1.791-.4 0-1.791-1.99-1.891-1.941s.846 2.289 0 1.941a7.079 7.079 0 0 1 1.144 2.488 6.512 6.512 0 0 1-1.592-2.488l.249.249a1.494 1.494 0 0 0-.4-1.045v.547c-.448-.448-.746 0-1.144-1.095a1.54 1.54 0 0 0 .7 1.095c-.747-.6-.547.249-1.145 0 0 .249.547.8.5.846-.846-.4.349 1.095 0 1.493-.6-.647-.945-1.891-.945-1.045a3.932 3.932 0 0 1-.9-1.841c0 1.194-.946-.348-1.244-.448v-.1l.647 1s-.249 0-.5-.547a23.527 23.527 0 0 1 1.344 2.737c-.448-.448 0 .8-.9-.6.647.249-.8-1.343-.547-1.742s0 .249-.3 0a2.025 2.025 0 0 1 0-.4c-1.046-1 .7 1.642 0 1.841-.349-.8-.9-1.393-.846-1.194a13.083 13.083 0 0 1 .946 1.891c-.6-.448 0 .6 0 .647h.3c.348.8 0 .746 0 1.095-.349-.6 0-.5-.3-.746.547 1.493-1.194-1.145-1 0-.4-.448-.8-1.443-1.095-1.742 0 1.194-.9-.9-.8 0a3.786 3.786 0 0 1 .9 1.841v-1l.5 1.692v-.746a3.176 3.176 0 0 0 .7 1.493c-1.045-1.443 0 1.194-.747.249l-1.393-2.587c-1.045-.945 0 1.692-.846 1.343l.4.348c.5 1.045 0 .3 0 .8a15.549 15.549 0 0 0-1.095-1.642c.348.647-.4 0 .5 1.891l-.846-1c-.647-.249.9 2.687.349 2.637a14.95 14.95 0 0 1-1.045-2.339s-.3 0 0 .547c-.348-.5.3 1.393-.3.6 0 .448.647 1.343.448 1.343v-.4c0 .4 0 .7.746 1.592-1.841-2.488-1 .8-2.588-1.343a3.181 3.181 0 0 1-.547 1.095c0-.249-.249-.4 0-.349-.8-.6 1.144 2.587 0 1.891s0-.846-.6-1.294c-1.592-2.836-.3.647-1.443-.9-.7-.846 0 1.343-.348 1.343V374a4.382 4.382 0 0 1 0 2.886 6.267 6.267 0 0 0-.846-1.741s1.045 1.791.946 2.239a11.946 11.946 0 0 1-1.642-2.139V375c-.946-1.493-.3.249-.6 0l-.349-.7c-.3.448.6 2.189 0 2.339l.3.448c.7 1.841-.7-.846 0 .6l-1.045-1.692a10.448 10.448 0 0 1 0 2.438 14.2 14.2 0 0 1-.746-3.085s-.5.448 0 1.343v-.448c.547 1.443.647 2.289.3 2.438-1.741-3.384-1.294-.4-2.936-2.886 0 1.543-1.393 0-1.941.647 1.642 2.488 0 0 1.344 2.836 0 .249 0 0-.3 0l-1.294-1.343c-.5-.746 0-.7-.5-1.294a19.474 19.474 0 0 0-1.359-1.641c.547.945.647 1.443.249 1.145l.9 1.095c.3 1.692-1.542-2.04-1.294-.4l-.3-.9c0 .6-.846.4 0 2.687a3.582 3.582 0 0 1-.6-1.244c-.7 0 0 2.936-1.194 1.791l-.3-.7c0 .249.448 1.393 0 .746a4.126 4.126 0 0 0-.348-.7v1l-.249-.846c-.9-.647 0 2.239 0 2.886a5.573 5.573 0 0 0-1.891-2.737v-.249c-.7 0-.348 2.09-.647 3.085-1.145-2.09-1.543-.547-2.488-1.642a5.634 5.634 0 0 1 .4 1.891c0-.4 0 1.593-.5-.348-.647-1.841-.8-1.294-1-1.294l.6 2.587c-1.493-3.583-1.244 1.742-2.339-1.543v1.393l-.249-1.393c-.448-.3-.7-.448-1.095 0v-1.045c-.249 0 .348 4.08 0 4.23l-.448-2.09c-.5 0-1.194-1.642-1.443.3a3.652 3.652 0 0 1 0-1s-1.045-1.294-.647 1.542c0-1.841-.547 0-.747.746V382.6c0 1.791 0 2.289-.348 2.787s0-1.095 0-.746c-.3-.7 0 1.294-.448.6v-.9c-.3 0 0 .4-.3 1.443s-.547-.348-.7-1.592v1.443a5.034 5.034 0 0 1 0-.9c-.5-.9-.6 1.642-1 .3v-.835c0-.149.647 0 .6 0a15.4 15.4 0 0 1 0-3.234c0 .945-.5 3.035-.8 2.488v-.948c0-1.095-.348-.6-.5-.647a11.762 11.762 0 0 0 0 2.339h.349c0 .7 0 1.294-.4.547v2.239c0-1.941-.647-2.986-.7-4.18a4.23 4.23 0 0 0-1.344 3.135V384.2c0 .647-.746.249-.846 2.09-.3-.846 0-1.692-.249-1.393v-.547c-.8-2.936-1.542 4.677-2.438.846a2.539 2.539 0 0 1 0 .647c-1.045-1.692-2.438 1.493-3.433-1.194-.3-.547-.349.6-.6 1.493v-1.493l-.448 1.692c-.547 1.244-.6-3.732-1.344-1.343v1s-.7.547-.6-.6v.1l-.6 1.343c-.4-.6 0-3.135-.348-3.334a8.2 8.2 0 0 0-.746 2.787v1.692a22.668 22.668 0 0 0 0 6.319l.448-1.393v1.145h-.3c0 1.045.249 0 .4-.5a6.4 6.4 0 0 0 0 1.244l.448-2.189a9.029 9.029 0 0 0 0 2.289 7.287 7.287 0 0 1 .3-2.687c0 1.045 0 1.891.249 1.045a3.283 3.283 0 0 1 0 1.194c0-.7.448-.249.647-1.493 0 1.344.6-.3.448 1.891a6.774 6.774 0 0 1 .6-1.791c-.448 2.637.6 0 .4 3.035.349-2.389.846-1.045 1.294-2.289v.4a4.976 4.976 0 0 1 .349 1.393 17.543 17.543 0 0 1 .746-3.583 27.2 27.2 0 0 1 0 4.08c0-1.542.547-1.542.5-2.836a10.918 10.918 0 0 1 0 2.189c0-2.438 0-.4.448-1.891 0 1.194 0 2.289.349 1.543a3.235 3.235 0 0 1 .12 1.593zm8.21-4.18zm.7 0h-.3a2.638 2.638 0 0 1 0-.945 2.786 2.786 0 0 0 .3.9zm-1.741-9.6v.348-.348z" class="cls-1" transform="translate(177.099 200.016)"/>
        <path id="Path_73628" d="M569.892 403.783c.5 0-.5-1.742-.846-2.737s.846 1.095 1.443 1.841v-2.339a2.284 2.284 0 0 1 .348.7c-.249-1.493 1.145-.6.8-2.438v.348c-.5-.8-.9-1.642-1.194-2.239s0-1.194.547 0v.3c.945 1.443 0 .647.5 1.841 0-.746 0-2.289.647-1.99.846 1.493-.547.9.6 2.04l-.846-.348c1.592 2.189-.4 0 1.244 2.388.9 0 .4-1.144 1.344-1.095-.3-.9-.7-1.194-.946-2.14 0-1.99 2.687 3.384 2.388 1-.348-1.095-1.244-3.035-.249-2.289l.746 1.791c.747 0-.9-2.637.4-1.891v1c1.145 1.095 0-1.145 0-1.294l.9 1.443c.6-.6.8-2.09 1.393-2.787a3.583 3.583 0 0 0 .746 1.343c.6-1.244 2.239-.945 3.633-.647l-.349-1.493a2.348 2.348 0 0 1 .547.8c.05.3-.448-.846-.6-1.443s.7.6.8 1.045c0-1.443.448-3.384 1.941-2.438v.448c.8 0-1-2.936 0-2.04v.3c1.493 0 1.991-2.04 3.981-.746-.945-1.891 1.592 0 0-2.438 1.393.846 1.542 1.393 2.936 1.642.3 0-.647-1.791-.5-2.239l.846 1.294-.5-1.592 1.194 1.393v-.547a2.749 2.749 0 0 1-.846-.8c-.2-.4 1.642.249 2.09.9l.249-1.742a2.586 2.586 0 0 1 .4 1.194c-.349-1.642 1 1.294.7-.249a3.338 3.338 0 0 1-.647-1.045c.747.6 1.294.249 1.493-.348l.5.9c.9-.3 1.294-1.493 2.09-2.04-.547 0-1.542-1.742-1.393-2.09l1.045 1.294c-.448-.945-.647-.348-1-1.543.4 0 1.244 1.343 1.393 1.891v-.7c.3.348.348.647.7 1.145-.448-.945 1.542.9.8-.7l.3.4c.8-.6.846-1.294 1.493-1.841-.8-1.145-.348-1.095-.846-2.14.746 0 1.941.5 2.438 0s-.547-1.045-.9-1.891c.8 1.045 1.294.5 1.543 1.493a3.533 3.533 0 0 0 1-2.339c-.4-.4-.647-.5-.846-.846s.7 0 1.045.647c0-2.289 4.479 1.294 3.682-1.443v-1.543c.5 0 .348.9 1.095 1.343-.4-2.389 1.542-.8 1.393-2.488 2.837 2.587 1.791-1.692 4.031-.348l-.6-.7c-.349-.8.547 0 .8.3s-.7-.5-.846-.945c.946-2.09 4.08-1.592 6.27-2.239.747-.3-2.488-3.881-.448-2.786l.8 1.443c0-2.488 2.538-1.891 2.687-4.13 0 .348.448.746.348.846 1 .746.945-.7.348-1.493.249 0 .6.7 1 1s-.3-1.692.6-.9a1.091 1.091 0 0 1 0 .5c0-.6.846-.5 0-1.443.846 0 .5-1.145 1.344-.8-.747-1.393 1.194 0 0-1.791 1.344 1.791 1.891.8 1.493-.249.348.647.7.4 1.144 1.194.3-.249.349-.8-.4-1.692 2.24 1.692 0-2.637 2.289 0a13.723 13.723 0 0 1 1.095-4.13c1.344 1.791-.8.9.7 2.737.249-1.343-.5-3.234.647-3.433s.5.846.647 1.194c.249-1.343 1.692-1.045 1.692-2.538a2.091 2.091 0 0 1 0 .6s.547 0 0-.8v.348c-1.145-1.045-1.343-2.886-1.791-3.533 1.542 2.488 1.144 0 3.035 3.234a2.83 2.83 0 0 0-.647-1.194c.249 0 .547.3.9 1.045 0-.846-.7-1.543 0-1.891a10.945 10.945 0 0 1 .6 1.095c-.349-.946-.7-1.891 0-1.841s.448.547.348.6-.4-2.936.9-2.737c1.045 1.891.647.348 1.841 1.841v-1l-.7-.6c.348-.249 0-1.543.5-1.294v.8l.448-.746-.8-.3c0-1.045-1.443-1.841-.647-1.791 0 0 .348-.249 1.194.5 0-.6-.349-1.244 0-1.045s1.144 1.692 1.443 1.941c-.746-1.343.547-.945 0-2.438a4.963 4.963 0 0 0 .846 1.294l-.6-1.095c.4 0 .547.348 1 1 .6 0-1.543-1.791-.4-1.393a1.948 1.948 0 0 1 0 .448c.9 0 .647-1.493 1.542-1.343 1.244 1.393 0 .7.9 1.841.6-.846.3-2.986 1.344-3.185h-.3c-1.393-2.239 1.343.647.995-.647a5.868 5.868 0 0 0 .6 1.045c.747 0 .7-1.294 1-2.538l.3.647c.647.3 1-.3 1.493 0-.3-.647 0-.7-.7-1.393 3.235 2.438.8-3.135 3.533-1.045v.6l.448-1.045c-.7-.9-.5-.5-1.194-1.145s-.348-1.194 0-1.343c0 .9 1.045 1.543 1.543 1.99a10.051 10.051 0 0 0-.6-.945c1.542 1.443-1.194-1.941 0-1.194l.3.547v-1.194c.846 1.045 0 .647.7 1.592.3-.3-.747-2.538.3-1.642v.945c1.194 1.095 1 .746 1.393.8l.9.249-.348-.3c-1.493-3.135.448-1.045 0-3.334.6 2.189.547 1.145 1.343 2.438a2.879 2.879 0 0 1 1 .9c-.4-1.194.946.547.349-1.194 0 .4.3 0 .9.9 0-.5-.547-.647-.846-1.194-.4-1.742 2.289 1 1.791-1.393 0-1.194-.547-2.687-.4-3.732a3.184 3.184 0 0 1 .747 1.642c.7.4.9 0 .9-.547a3.032 3.032 0 0 0 .8 1.095c0-.249-.747-1.642 0-1.194s.6 1.294.746 1.791V329a3.586 3.586 0 0 1 .647 1.741 2.788 2.788 0 0 0 0-2.388l-.5-.3a6.5 6.5 0 0 1 .7 1.244c.05.3-.647 0-.9-.6v-.4c-1.692-2.289-.647.945-1.145 1.045l-.9-1.891.448 1.741a3.479 3.479 0 0 1-1-1.741c-.846-.647 0 .8-.747 0s0-.249 0-.3v.7c0-.4-.8-1.194-.448-1.095-1.194-.647 0 1.891-1.095.647-.4 1.045.746 1.343 1.095 3.185l-2.339-2.936.7 1.343s-.3 0-.6-.547c0 1.045.4.5.747 1.443-1.095-.945-.7 1.194-2.04-.8.448 1.095.8.547.846 1.493-1.493-2.14 0 .647-1.194 0s0-.8-.9-1.592c1 2.04-.946 0-1 .6 1 1.543 0 1.045-.349 1.841-.3-.5-1.443 0-2.289-.448v-.3c.945 1.592.3 1.592 0 2.14a4.378 4.378 0 0 1-.846-1.841l-.349.249a1.344 1.344 0 0 1 0 1.145l-.7-1.194c-.349.348 0 1.891-1 1.493.7 1.095 2.438 2.637 2.338 3.732a6.325 6.325 0 0 1-1.095-1.841v.4l1.094-1.593c-.5-.249.448.9 0 .945-.547-.846-.547-.5-.945-1.145s.4 0 .249 0a2.339 2.339 0 0 1-1.443-.846c.348.448.746 1.095.647 1.294s-.8-.846-1.294-1.095c.249.6-.4 0 .448 1.443 0 0-.547-.5-.846-.8 0 .7-.9.9 0 1.99 0 1.692-1.941.348-2.289 1.343l-.3-.4c0 .746-.7.945-.4 1.99a3.718 3.718 0 0 1-1.095-1.045c0 .547 0 1-.747.7s-.547-.547 0-.746c-.647 0-1.194-.647-.846.8-.6-1.145-1.244-1.095-1.194-.647l.8.547c0 .3-.349.348-.6.4l-.9-1.393c-1.991-1.045.547 3.831-2.09 1.592.5 1.095.945.348 1.542 1.543-.5 0-2.289-1.493-2.438-1.393-1.045-.348.945 2.289 0 2.189.4.4 1.443 1.642 1.343 2.388s-1.941-1.642-1.991-2.189.249 0 .349 0a1.094 1.094 0 0 0-.547-1l.3.547c-.547-.348-1.045 0-1.493-.8a.946.946 0 0 0 .846.945c-1-.3-.747.547-1.592.5 0 0 .746.7.7.746-1.194 0 .348 1.144 0 1.692-.846-.5-1.194-1.791-1.244-.8-.647-.249-1-1.194-1.194-1.692.249 1.294-1.294 0-1.642 0v-.547a.5.5 0 0 1 0 .5l.846.846a.885.885 0 0 1-.647-.4c.3.746 1.294 1.493 1.642 2.538-.547-.3 0 .945-1.194-.249.9 0-1-1.194-.7-1.742 0 0 0 .3-.349.249a.6.6 0 0 1 0-.4c-1.393-.7.846 1.592 0 2.04-.448-.8-1.144-1.244-1.095-1s1 1.045 1.194 1.742c-.8-.249 0 .746-.348.8h.448c.448.746 0 .8 0 1.244-.448-.547 0-.547-.348-.746.7 1.443-1.592-.746-1.393.4-.547-.348-1-1.343-1.443-1.493 0 1.244-1.194-.6-1.095.5a2.688 2.688 0 0 1 1.095 1.791v-1.294l.547 1.742s0-.945.3-.9c.348.945 0 .7.945 1.393-1.443-1.194 0 1.294-1.095.647l-1.841-2.339c-1.344-.6 0 1.941-1.194 1.941h.547c.6 1-.348.5-.3 1.045a6.718 6.718 0 0 0-1.393-1.343c.448.547-.6.348.547 1.941l-1.095-.8c-.946 0 1.045 2.737.3 2.936-.5-1-1.194-1.343-1.294-2.239 0 0-.448 0 0 .647-.5-.4.3 1.443-.448.846 0 .4.8 1.244.547 1.343l-.3-.4c.3.4 0 .8.945 1.493-2.488-1.941-1.443 1.443-3.582-.249a4.983 4.983 0 0 1-.8 1.543c0-.249-.3-.348 0-.348-1.045-.3 1.443 2.488 0 2.14s0-.945-.8-1.244c-2.04-2.488-.4.846-1.941-.3v-.249c-.945-.6 0 1.543-.6 1.742a2.488 2.488 0 0 0-.3-.4 4.479 4.479 0 0 1 .249 3.235c-.647-1.145 0-.7-1.094-1.642 0 .3 1.344 1.543 1.144 2.189a9.948 9.948 0 0 1-2.139-1.742l.348-.348c-1.294-1.244-.448.4-.846.348l-.448-.647c-.448.7.747 2.239 0 2.637l.448.4c.846 1.791-1-.647-.448.746l-1.294-1.443a9.937 9.937 0 0 1 0 2.737 10.853 10.853 0 0 1-.846-3.185 1.094 1.094 0 0 0-.249 1.542v-.5c.647 1.443.747 2.339.249 2.637-2.239-3.035-1.791 0-3.931-1.891 0 1.742-1.991.746-2.787 1.692 2.139 2.09 0 .249 1.692 2.637 0 .3-.249.348-.349 0l-1.791-.945c-.7-.547 0-.7-.647-1.194a8.3 8.3 0 0 0-1.791-1.294c.746.846.8 1.393.249 1.244l1.244.846c.3 1.791-2.14-1.592-1.841 0l-.348-.945c0 .746-1.294 1 0 3.185 0-.249-.846-.846-.8-1.144-1.095.348-.349 3.483-1.891 2.786l-.4-.647c0 .249.6 1.294 0 .846s-.4-.647-.5-.647.348 1.393 0 1.194l-.349-.8c-1.393 0 0 2.538-.448 3.483a3.633 3.633 0 0 0-2.836-1.941v-.249c-1.095.448-.6 2.637-1 3.981-1.941-1.592-2.438.5-4.13 0a3.583 3.583 0 0 1 .946 1.742c-.5-.249 0 1.642-.846 0-1.244-1.543-1.393-.8-1.741-.6l1.393 2.239c-3.035-2.587-1.592 2.687-3.981 0v1.542l-.8-1.194a1.991 1.991 0 0 0-1.742.9l-.4-.945c-.448 0 1.692 3.782 1.344 4.13l-1.244-1.742c-.746.547-2.438-.6-2.189 1.493 0-.3-.448-.8-.349-.945s-2.09-.448-.5 1.941c-.945-1.592-.846.3-.846 1.294l-.549-.249c.6 1.742.8 2.14.6 2.836s-.647-.9-.348-.647c-.747-.4.4 1.294-.448.945l-.3-.9c-.448 0 0 .547 0 1.592s-.9 0-1.592-.945c.3.7.6 1.742 0 1.543a2.924 2.924 0 0 1-.349-.846c-1.095-.448 0 1.941-1.294 1a3.191 3.191 0 0 0-.5-.647c.548-.249 1-.448 1-.3-.6-1.145-1.144-1.095-1.692-2.836 0 1.045.6 3.185 0 2.886l-.3-.4v.3c0 .3-.348 0-.5 0-.547-.9-.746-.249-1 0 .7 1.244.3 1.194 1.095 2.04v-.249l.5-.348c0 .7.249 1.343-.348.8l.8 2.139c-1.244-1.592-2.289-2.189-2.936-3.234 0 1.045-1.244 1.294-.448 3.831 0 .4-.6-.547-.846-.9s0-.3 0-.7c0 .8-.945.846 0 2.538-.846-.5-.5-1.642-.995-1.045v-.547c-2.538-2.04 0 4.976-3.135 2.488a1.1 1.1 0 0 1 .448.5c-2.338-.8-2.737 3.035-5.424 1.294-.7-.3-.3.8-.249 1.742l-.647-1.343v1.791c0 1.443-2.587-2.936-2.538-.4l.448.9c-.4 0-.8 1-1.144 0 0 0 .249 1.045 0 .6l-.3-.746-.3 1.592c-.8-.3-1-2.986-1.891-2.787a5.568 5.568 0 0 0 0 2.986 2.3 2.3 0 0 1 .746 1.045v.547a13.886 13.886 0 0 0 2.637 5.722v-1.543l.547 1h-.441c.647.9.5 0 .448-.746a3.888 3.888 0 0 0 .647 1.095l-.249-2.289c.4.8.4 1.791.946 2.09 0-1.045-.946-1.791-.8-2.587.647.9.9 1.692.846.746a2.188 2.188 0 0 1 .3 1.194c0-.746.647-.547.3-1.741.747 1.095.8-.7 1.592 1.343a4.084 4.084 0 0 1 0-1.941c.548 2.587 1 0 1.941 2.388-.547-2.289.846-1.443.945-2.886v.5c0-.05.8.647 1.194.945a9.948 9.948 0 0 1-.6-3.682c1.145 1.543.647 2.239 1.493 3.831-.647-1.443 0-1.791-.6-2.936a7.218 7.218 0 0 1 1.343 1.791c-.945-2.239 0-.5-.249-1.99.945.9 1.045 2.04 1.244 1.145a2.141 2.141 0 0 1 .451 1.107zm9.554-9.5zm.9-.547a.6.6 0 0 0-.4 0c-.3-.448-.5-.9-.4-.9s.548.647.9.9zm-6.618-7.464c0-.249.249 0 .4.249a.542.542 0 0 0 0 .249z" class="cls-1" transform="translate(211.66 68.53)"/>
        <path id="Path_73679" d="M548.364 363.362c.348 0 0-1.791.4-2.836s0 1.343.249 2.289c.3-.5.6-2.14.8-2.09a2.243 2.243 0 0 1 0 .8c.349-1.443.9 0 1.294-1.841v-2.04c0-.647.3-1.194.348 0v.3c0 1.742-.249.6-.3 1.841.348-.547.8-1.941 1-1.443 0 1.692-.6.547-.3 2.04l-.348-.647c0 2.687-.249 0 0 2.687.547.5.6-.9 1.144-.4v-2.289c0-.945.547 4.23 1.095 1.99 0-1.145 0-3.284.6-2.14v1.941c.547 0 .3-2.787.846-1.493s-.4.647-.348.9c.4 1.493 0-1.095.5-1.095v1.692c.547-.3 1.094-1.543 1.642-1.841a4.131 4.131 0 0 0 0 1.543c.7-.9 1.592 0 2.388 1.095v-1.493a2.488 2.488 0 0 1 0 .945c.3.547 0-.9 0-1.493s.249.846 0 1.294c.4-1.294 1.194-2.787 1.841-1.244v.4c.448.6 0-2.986.647-1.642v.249c.9.547 1.692-.9 2.637 1.244 0-2.14.945.8.647-2.09.7 1.393.6 1.941 1.443 2.787v-2.289l.4 1.791v-.448a2.691 2.691 0 0 1-.3-1.095c.249-.746.945.945 1.095 1.742l.6-1.393a3.328 3.328 0 0 1 0 1.244c0-1.642.3 1.543.5 0a10.627 10.627 0 0 1 0-1.244c.348.9.8.846 1.045.4v1.045c.647 0 1.194-.7 1.841-.8a4.975 4.975 0 0 1-.448-2.488l.4 1.592c0-1-.349-.547-.3-1.841.3 0 .5 1.791.448 2.339v.746c0-1 .8 1.493.647-.249v.5c.647 0 .846-.746 1.343-.945a8.625 8.625 0 0 1 0-2.239c.5.348 1.145 1.343 1.592 1.095s0-1.145 0-1.99c.3 1.244.746 1 .7 1.941.547-.3.7-.4 1.144-1.592a7.544 7.544 0 0 1-.4-1.095c0-.249.448.448.547 1.045.348-2.09 2.737 3.185 2.737.4l.3-1.493c.349 0 0 .945.5 1.642 0-2.239 1.194 0 1.393-1.493 1.443 3.483 1.493-.7 2.787 1.393l-.3-.8c0-.9.349.4.5.547 0-.647-.4-.7-.4-1.194 1-1.393 3.085.448 4.677.746.547 0-1.144-4.429 0-2.637l.3 1.642c.4-2.19 2.04-.647 2.488-2.538v.846c.6 1.095.8 0 .448-1.095 0 0 .349.8.6 1.244s0-1.592.5-.547a1.09 1.09 0 0 1 0 .5c0-.6.647 0 0-1.343.6.5.5-.8 1.045 0-.349-1.543.846.448 0-1.592.8 2.09 1.294 1.443 1.144.4 0 .647.448.6.7 1.493a2.532 2.532 0 0 0 0-1.692c1.443 2.339 0-2.389 1.692.746a11.438 11.438 0 0 1 1.145-3.234c.846 2.09-.647.547.249 2.687.3-1.095 0-3.035.8-2.787s0 .945.349 1.294c.3-1.095 1.344-.3 1.443-1.642a2.155 2.155 0 0 1 0 .6s.4 0 0-.746v.3a17.718 17.718 0 0 1-1.045-3.782c.946 2.787.846.448 1.99 3.981a3.429 3.429 0 0 0-.4-1.294 3.709 3.709 0 0 1 .6 1.244c0-.7-.4-1.642 0-1.742s0 .647.349 1.194c0-.945-.4-1.941 0-1.692s.3.647 0 .7 0-2.737.8-2.14c.7 2.04.448.547 1.244 2.239v-.647l-.5-.8s0-1.393.4-.945v.8l.349-.547-.6-.547c0-1-1-2.139-.4-1.791s.249 0 .846.846c0-.6-.249-1.244 0-.9s.8 1.891 1 2.239c-.5-1.493.448-.7 0-2.289a14.545 14.545 0 0 0 .647 1.443l-.448-1.194a3.08 3.08 0 0 1 .7 1.194c.5 0-1.095-2.09-.249-1.343a.947.947 0 0 1 0 .448c.647.3.5-1.095 1.144-.747.946 1.642 0 .6.647 1.941.448-.6 0-2.587 1-2.438-1.094-2.438 1 .945.746-.3a5.487 5.487 0 0 0 .448 1.095c.547 0 .448-.946.647-1.99v.647c.5.4.746 0 1.145 0a4.047 4.047 0 0 0-.6-1.443c2.488 3.085.448-2.538 2.588 0v.6l.3-.846a7.975 7.975 0 0 0-.945-1.294c0-.647-.349-1.194 0-1.294a5.27 5.27 0 0 0 1.244 2.189l-.5-1c1.244 1.642-1.045-2.09 0-1.045l.3.547c0-.4-.249-1.145 0-1.095.7 1.145 0 .647.647 1.592 0 0-.747-2.438 0-1.393s0 .5 0 .846c.945 1.244.8.9 1.045 1.045l.7.448-.3-.348c-1.393-3.185.249-.846-.448-3.035.647 2.04.547 1.095 1.244 2.438a3.227 3.227 0 0 1 .8 1.045c-.4-1.145.8.7 0-1.045.249.448.249 0 .8 1.045 0-.448-.5-.7-.746-1.244-.448-1.642 1.791 1.294 1.194-1 0-1.045-.747-2.538-.747-3.483a4.33 4.33 0 0 1 .8 1.642c.547.448.647.249.6-.348a4.138 4.138 0 0 0 .7 1.144c0-.249-.746-1.592 0-1.144s.647 1.294.846 1.791c0-.5-.3-1.393-.349-1.891a5.874 5.874 0 0 1 .747 1.692 3.135 3.135 0 0 0-.4-2.189l-.4-.3a7.635 7.635 0 0 1 .7 1.194c.05.249-.5-.249-.747-.647v-.358c-1.542-2.388-.348.7-.7.746l-.945-1.841.6 1.642a6.379 6.379 0 0 1-1-1.742c-.7-.8 0 .7-.547 0a.644.644 0 0 1 0-.348v.647c0-.4-.746-1.244-.5-1.045-.945-.846 0 1.692-.7.4 0 .9.7 1.343 1.194 3.135l-2.09-3.135.7 1.343-.5-.6c.3 1.045.349.547.7 1.493-.9-1.095-.348.945-1.592-1.144.448 1.045.647.647.8 1.493-1.344-2.239 0 .547-.9-.348s0-.7-.846-1.642c.945 2.09-.647 0-.647.3.846 1.592 0 .9 0 1.592 0-.547-1.094-.547-1.692-1v-.246c.846 1.642.348 1.493.3 1.941a6.308 6.308 0 0 1-.747-1.841 2.538 2.538 0 0 1 .3 1.095l-.6-1.194s0 1.692-.6 1.095a15.563 15.563 0 0 1 1.891 3.931 14.938 14.938 0 0 1-.9-1.94v.348l-.4-1.095c-.4-.4.349.9 0 .846-.448-.846-.448-.547-.746-1.244s.3.3 0 0a2.735 2.735 0 0 1-1.094-1.095c.3.448.646 1.145.547 1.344s-.6-1-1-1.393a9.225 9.225 0 0 1 .4 1.443s-.4-.6-.647-.945c0 .7-.6.547.3 1.841 0 1.543-1.344-.249-1.543.547v-.448c0 .647-.5.647-.249 1.692a3.426 3.426 0 0 1-.8-1.244c0 .448 0 .945-.5.348s-.448-.647 0-.647c-.5 0-.9-.945-.6.4-.448-1.194-.9-1.294-.9-.9l.6.7c0 .249-.249 0-.448 0l-.647-1.543c-1.393-1.543.4 3.583-1.443.746.3 1.095.647.6 1.095 1.891-.4 0-1.642-2.09-1.741-2.09s.647 2.389 0 1.99a6.519 6.519 0 0 1 .945 2.538c-.4 0-1.344-2.09-1.393-2.587s0 0 0 .249a1.64 1.64 0 0 0-.349-1.045v.547c-.4-.5-.746-.249-1.045-1.194a1.294 1.294 0 0 0 .6 1.145c-.7-.647-.6 0-1.145 0a6.93 6.93 0 0 1 .448.9c-.846-.4 0 1.145 0 1.543-.547-.746-.8-1.99-.846-1.145a5.534 5.534 0 0 1-.8-1.891c0 1.194-.9-.448-1.145-.547v-.149l.6 1.045s-.3 0-.5-.547a24.515 24.515 0 0 1 1.095 2.837c-.4-.5 0 .746-.846-.7.647.348-.647-1.393-.4-1.791s0 .249 0 0a.8.8 0 0 1 0-.4c-.945-1.145.5 1.692 0 1.841-.3-.846-.746-1.493-.746-1.294a17.928 17.928 0 0 1 .746 1.99c-.547-.5 0 .6-.249.6l.249.249c.3.8 0 .746 0 1.095-.3-.6 0-.5 0-.746.4 1.543-1.094-1.294-1 0-.348-.5-.647-1.543-.945-1.841 0 1.194-.8-1-.8 0a3.386 3.386 0 0 1 .647 1.941l.3-1 .249 1.742s0-.846.3-.7a2.884 2.884 0 0 0 .547 1.543c-.945-1.543 0 1.145-.846 0l-1.095-2.737c-.9-1.045 0 1.692-.946 1.244l.349.4c.348 1.145 0 .3 0 .8a10.941 10.941 0 0 0-.9-1.742c.249.647-.4 0 .249 1.941l-.7-1.145c-.647-.3.5 2.836 0 2.687a12.535 12.535 0 0 1-.7-2.438s-.3 0 0 .547c-.3-.547 0 1.393-.348.547 0 .448.448 1.393 0 1.393a2.1 2.1 0 0 1 0-.448 3.928 3.928 0 0 0 .5 1.642c-1.543-2.687-1.145.7-2.438-1.642a2.686 2.686 0 0 1-.7 1v-.356c-.7-.746.7 2.737 0 1.941s0-.9-.4-1.443c-1.145-3.035-.4.6-1.344-1.045v-.249c-.6-.945 0 1.393-.6 1.294v-.5a4.973 4.973 0 0 1 0 2.886 6.474 6.474 0 0 0-.547-1.841s.7 1.941.5 2.389a15.807 15.807 0 0 1-1.194-2.438c-.7-1.642-.349 0-.6 0v-.7c-.349.348 0 2.239-.3 2.239v.547c.348 1.941-.547-.945-.349.5l-.7-1.841a10.611 10.611 0 0 1-.3 2.488 18.413 18.413 0 0 1 0-3.185s-.547.3-.348 1.294v-.448a6.363 6.363 0 0 1 0 2.438c-1.045-3.682-1.194-.647-2.289-3.434 0 1.543-1.393 0-2.04.249 1.045 2.787 0 0 .647 3.035l-1-1.592c-.4-.846 0-.7 0-1.344s-.5-1.194-.945-1.941c.348 1.045.3 1.543 0 1.194l.647 1.294c0 1.692-1.095-2.339-1.194-.647v-1c0 .647-1 .249-.647 2.687a4.128 4.128 0 0 1-.349-1.343c-.7-.249-.8 2.836-1.642 1.493a4.564 4.564 0 0 0 0-.8c0 .3 0 1.344-.3 1v-.846c-.846-.8-.547 2.189-.946 2.787a4.976 4.976 0 0 0-1.443-3.035v-.3c-.747 0-.846 2.04-1.393 3.035-.846-2.289-1.592-.746-2.488-1.941a5.365 5.365 0 0 1 0 1.941c0-.448 0 1.543-.5-.448-.448-1.941-.7-1.343-.945-1.343l.348 2.587c-1.244-3.682-1.592 1.642-2.388-1.692 0 .647-.3.7-.4 1.344v-1.393c-.5-.3-.747-.448-1.244 0v-1c-.3 0 0 4.08 0 4.18l-.348-2.09c-.547 0-1.244-1.692-1.592.3a2.391 2.391 0 0 1 0-1.045c-.249 0-1.095-1.344-.747 1.542 0-1.891-.6 0-.846.7v-1.393c0 1.791 0 2.289-.4 2.787s0-1.095 0-.746c-.3-.7 0 1.344-.5.6v-.9c-.3 0 0 .4-.3 1.443s-.6-.3-.7-1.543c0 .746 0 1.791-.3 1.443a5.545 5.545 0 0 1 0-.945c-.5-.9-.647 1.642-1 .3a6.565 6.565 0 0 0 0-.846h.647a15.4 15.4 0 0 1 0-3.234c0 .945-.547 3.035-.846 2.488v-.6s0-.348-.249-.348c0-1.095-.348-.6-.5-.647a7.181 7.181 0 0 0 0 2.339h.4c0 .7-.249 1.294-.4.547v2.239c-.249-1.941-.647-2.986-.747-4.18a4.132 4.132 0 0 0-1.344 3.135v-1.729c-.3.647-.8 0-.9 2.09-.3-.846 0-1.692-.249-1.393v-.6c-.846-2.886-1.642 4.628-2.538.846a2.539 2.539 0 0 1 0 .647c-1.045-1.692-2.538 1.443-3.433-1.294 0-.6-.4.6-.7 1.443v-1.493l-.5 1.692c-.647 1.244-.4-3.732-1.294-1.443v1s-.746.5-.547-.647v-.249l-.7 1.244c-.348-.6.5-3.085 0-3.284a8.159 8.159 0 0 0-.945 2.687v1.294l-.3.4a20.8 20.8 0 0 0-1.207 6.515l.6-1.344v1.095h-.6c0 1.045.3 0 .5-.448a4.956 4.956 0 0 0 0 1.244l.7-2.14c0 .9-.448 1.742 0 2.289.3-1 0-2.04.5-2.687v1.045a4.43 4.43 0 0 1-.249 1.244c.3-.7.547 0 .8-1.443 0 1.294.7-.249.4 1.891a3.153 3.153 0 0 1 .747-1.692c-.6 2.538.647 0 0 2.986.5-2.339 1-.945 1.542-2.239v.448c0-.1.249.945.348 1.393a18.758 18.758 0 0 1 .9-3.533 27.623 27.623 0 0 1-.4 4.081c0-1.593.647-1.543.647-2.836a8.55 8.55 0 0 1 0 2.189c0-2.438 0-.4.548-1.891 0 1.194 0 2.289.348 1.543a3.783 3.783 0 0 1 .033 1.442zm8.608-4.13zm.7 0h-.3v-.945a8.385 8.385 0 0 1 .3.9zm-1.692-9.6v.348-.348z" class="cls-1" transform="translate(156.4 90.938)"/>
        <path id="Path_73730" d="M576.121 407.309c.3 0-.6-1.692-1-2.687s.7 1.194 1.194 1.99c0-.547-.547-2.14-.4-2.14a2.282 2.282 0 0 1 .348.7c-.4-1.393.6-.348 0-2.09l.249.4-1.194-2.239a3.343 3.343 0 0 0 .3.8v-.5c.9 1.443 0 .6.7 1.742 0-.647-.448-2.04 0-1.692.846 1.493 0 .7.8 1.941l-.547-.448c1.443 2.289-.249 0 1.244 2.339.6.249 0-.945.6-.7-.348-.9-.7-1.244-1.045-2.09-.349-1.742 2.438 3.483 1.692 1.343-.448-1.045-1.493-2.936-.647-2.09l.846 1.692c.448 0-1.194-2.438 0-1.543s0 .7 0 .846c1 1.194-.4-1 0-1.095l.9 1.393c.249-.448 0-1.692 0-2.19a7.185 7.185 0 0 0 .845 1.294c0-1 1.145-.5 2.14 0l-.647-1.343a3.773 3.773 0 0 1 .6.746c.448.349-.547-.746-.8-1.294s.647.6.8 1c-.348-1.194-.7-2.737.547-1.742v.4c.6.3-1.543-2.587-.5-1.642.945 0 .647-1.393 2.388 0-1.244-1.692 1.095.348-.7-1.99 1.194.9 1.443 1.393 2.438 1.791a12.307 12.307 0 0 1-1.045-1.891l.945 1.194-.846-1.393 1.293 1.343v-.4a3.831 3.831 0 0 1-.8-.8c-.3-.7 1.145.448 1.642 1.045l-.4-1.393a5.481 5.481 0 0 1 .646 1.045c-.8-1.393 1.095 1.194.4 0l-.8-.945c.7.6 1 .4.9 0l.647.8c.5 0 .348-1 .746-1.294a6.277 6.277 0 0 1-1.692-1.841l1.145 1.145c-.6-.8-.547-.348-1.194-1.393a7.959 7.959 0 0 1 1.592 1.742v-.547l.846 1.045c-.6-.8 1.393.945.3-.448l.349.348c.348-.3 0-.846.348-1.194A14.122 14.122 0 0 1 591 392.58c.5 0 1.493.7 1.642.4s-.747-.9-1.244-1.592c.9.9 1.045.6 1.543 1.393v-1.642a6.792 6.792 0 0 1-.846-.8s.5 0 .9.7c-.9-1.791 3.533 1.742 1.991-.5l-.647-1.294c.3 0 .6.746 1.244 1.194-1.144-1.891.8-.348 0-1.642 2.886 2.438.647-1.045 2.588.348l-.6-.6c-.547-.7.448.249.647.348s-.647-.5-.945-.846c0-1.493 2.239-.5 3.483-.647.448 0-3.085-3.433-1.294-2.239l1.095 1.244c-.9-1.891 1.095-1 .348-2.687 0 .3.6.647.547.7.945.7.448-.348-.249-1.045 0 0 .647.6 1.045.9s-.846-1.343 0-.6l.3.4c-.349-.448.448 0-.6-1.095.647.249 0-.8.647-.4-1.045-1.194.8 0-.7-1.343 1.592 1.592 1.592.9.946 0 .448.5.647.4 1.244 1.095 0 0 0-.6-.9-1.343 2.14 1.592-1.095-2.04 1.543.249a10.414 10.414 0 0 1-.747-2.936c1.592 1.542 0 .547 1.493 2.139-.348-1-1.542-2.488-.8-2.488s.647.746.9 1.045c-.348-1 .8-.547 0-1.692l.4.5s.349 0-.4-.647v.249a22.068 22.068 0 0 1-2.537-2.936c1.99 2.139.8 0 3.333 2.936a4.967 4.967 0 0 0-.945-1 2.635 2.635 0 0 1 1.045.9c0-.6-1.045-1.244-.845-1.443l.846.945c-.6-.8-1.194-1.543-.746-1.443s.5.5.448.547-1.393-2.289-.4-1.941c1.443 1.542.6.348 1.991 1.642l-.249-.547-.746-.547s-.7-1.194 0-.9l.448.6v-.5l-.647-.348c-.6-.8-1.741-1.592-1.194-1.393a6.925 6.925 0 0 1 1.045.5c-.349-.448-.747-.945-.3-.746l1.791 1.692c-1.095-1.145 0-.647-1.095-1.891a11.321 11.321 0 0 0 1.095 1.095l-.846-.9a3.978 3.978 0 0 1 1.045.846c.4 0-1.792-1.543-.8-1.095a3.917 3.917 0 0 1 .3.4c.647 0 0-1.045.547-.846 1.443 1.194 0 .5 1.393 1.493 0-.547-1-2.189-.4-2.189-1.891-1.841 1.194.647.4-.348a6.186 6.186 0 0 0 .846.846c.5 0 0-.9-.349-1.791l.448.5c.547.3.6 0 .946 0a5.533 5.533 0 0 0-1.094-1.145c3.284 2.189-.747-2.189 1.99-.4l.348.5v-.746a9.094 9.094 0 0 0-1.294-1c-.448-.5-.746-.945-.7-1a7.212 7.212 0 0 0 1.941 1.592l-.8-.746c1.642 1.194-1.692-1.592-.5-.9l.448.448c0-.3-.647-.9-.448-.9 1.045.846.4.5 1.194 1.244 0 0-1.642-1.941-.547-1.145 0 .3 0 .348.4.647 1.244.945 1 .647 1.244.746l.7.249h-.348c-2.438-2.488 0-.746-1.642-2.488 1.393 1.642.9.846 1.99 1.891a4.272 4.272 0 0 1 1.095.746c-.8-.9.9.448-.3-.846a10.436 10.436 0 0 0 1.045.746c0-.4-.7-.547-1.145-.945-1-1.343 1.991.846.6-1-.5-.846-1.642-1.99-2.04-2.786a6.568 6.568 0 0 1 1.244 1.244c.7.348.7 0 .349-.3a10.886 10.886 0 0 0 1.045.846s-1.244-1.244-.6-.9l1.393 1.393c-.249-.448-.8-1.145-1.045-1.543a7.869 7.869 0 0 1 1.294 1.294 3.932 3.932 0 0 0-1.195-1.741l-.448-.249s.846.746 1 .945-.5 0-.846-.448v-.3c-2.239-1.791 0 .647-.3.7l-1.443-1.443 1.095 1.294a6.709 6.709 0 0 1-1.493-1.343c-.846-.547.448.6-.5 0a1.157 1.157 0 0 1 0-.249l.348.547c-.3-.348-1.145-.945-.846-.846-1.095-.6.846 1.393-.4.4.249.8 1.145 1.045 2.239 2.488l-2.936-2.388 1.095 1.045-.647-.4c.647.8.5.4 1.194 1.145-1.194-.8 0 .8-1.742-.746.8.8.8.448 1.244 1.145-1.991-1.692 0 .448-.846 0s-.348-.6-1.344-1.244c1.592 1.592-.647 0-.4.3 1.343 1.244.3.746.6 1.343-.448-.4-1.095-.3-1.741-.547 1.343 1.244.9 1.194 1.045 1.592a10.988 10.988 0 0 1-1.393-1.443 4.991 4.991 0 0 1 .7.9l-1-.945s.846 1.393 0 1a23.653 23.653 0 0 1 3.201 3.048 15.294 15.294 0 0 1-1.542-1.493s.348.448 0 .3l-.747-.846c-.5-.249.647.7.5.7a5.109 5.109 0 0 1-1.144-.945c-.547-.5.348 0 0 0a4.178 4.178 0 0 1-1.344-.8 6.552 6.552 0 0 1 1.046 1.045 16.162 16.162 0 0 0-1.394-1 12.8 12.8 0 0 1 .9 1.145s-.547-.4-.846-.647c.4.5 0 .5 1 1.493.846 1.244-1.144 0-.945.7l-.349-.3c0 .547 0 .6.547 1.393a4.621 4.621 0 0 1-1.194-.9c0 .4.547.746 0 .4s-.6-.448-.3-.547c-.5 0-1.095-.647-.3.448-.846-.9-1.294-.945-1.045-.6l.747.5-1.194-1.145c-1.791-1.045 1.941 2.936-.8.9.8.9.8.348 1.692 1.393a25.384 25.384 0 0 1-2.24-1.443c-.845-.4 1.593 1.841.9 1.642a10.187 10.187 0 0 1 1.891 1.99 7.91 7.91 0 0 1-2.239-1.941h.3a2.394 2.394 0 0 0-.746-.846l.4.448c-.5-.348-.647 0-1.343-.8a2.137 2.137 0 0 0 .995.846c-.846-.4-.348.3-.945 0l.747.647c-.8 0 .7.9.7 1.294-.747-.5-1.493-1.493-1.145-.8a4.983 4.983 0 0 1-1.493-1.443c.647 1-.846 0-1.095 0l-.3-.4v.348l.946.746a1.294 1.294 0 0 1-.6-.4c.5.6 1.443 1.294 2.09 2.14-.5-.3.249.7-.9-.348.6 0-1.194-1.045-1.194-1.443l-.249-.348c-1.244-.7 1.145 1.343.9 1.543-.6-.647-1.244-1.095-1.144-.9s1.095.945 1.493 1.493c-.647-.3.249.547 0 .547h.3c.647.647.448.647.547.945-.5-.5-.249-.448-.5-.6 1 1.194-1.393-.846-.8 0-.5-.348-1.244-1.145-1.592-1.343.647.945-1.045-.647-.547 0a4.974 4.974 0 0 1 1.393 1.493l-.3-.9 1.045 1.393s-.348-.746 0-.647a4.378 4.378 0 0 0 1.145 1.194c-1.443-1.095.5 1-.547.3l-2.09-2.04c-1.144-.7.7 1.443 0 1.244h.5c.8.846 0 .3 0 .746a13.381 13.381 0 0 0-1.493-1.294c.547.547-.249 0 1.145 1.593l-1.045-.746c-.6 0 1.742 2.189 1.244 2.189a13.684 13.684 0 0 1-1.692-1.891v.5c-.5-.348.746 1.145 0 .6.249.3 1 1.045.846 1.095l-.348-.348a7.505 7.505 0 0 0 1.194 1.294c-2.438-1.941-.5.8-2.538-.846a2.444 2.444 0 0 1 0 1.045s-.349-.349 0-.3c-.846-.448 1.841 2.14.9 1.642s-.5-.746-.995-1.095c-2.289-2.239 0 .647-1.443-.547-.9-.647.6 1.145 0 1.194l-.3-.348a6.025 6.025 0 0 1 1.294 2.488 7.463 7.463 0 0 0-1.343-1.443s1.492 1.443 1.542 1.841a15.674 15.674 0 0 1-2.04-1.692c-1.344-1.194 0 0-.448 0l-.547-.547c0 .448 1.294 1.841.945 1.99l.448.4c1.194 1.543-.9-.647 0 .547l-1.393-1.393a17.484 17.484 0 0 1 1.095 2.14 18.076 18.076 0 0 1-1.741-2.587 2.57 2.57 0 0 0 .4 1.145s-.348-.547 0-.348c.946 1.194 1.344 1.891 1.145 2.04-2.687-2.737-1.194 0-3.384-2.14.647 1.343-1.095.249-1.294.846 2.189 1.941 0 0 2.09 2.289l-1.543-1c-.7-.547-.4-.547-.9-1.045a8.98 8.98 0 0 0-1.642-1.294c.8.746 1 1.194.6 1l1.144.846c.846 1.443-1.991-1.592-1.144 0l-.6-.746c0 .547-.547.5 1.045 2.389a4.673 4.673 0 0 1-1-1c-.547 0 1.045 2.637-.249 1.791l-.5-.547s.846 1.095 0 .647a2.636 2.636 0 0 0-.547-.547s.747 1.095.349.846l-.5-.647c-1-.4.9 1.941.945 2.587-1.493-1.592-2.239-1.891-2.637-1.99v-.249c-.547 0 .6 1.941.8 2.936-1.841-1.543-1.443 0-2.687-.746a9.947 9.947 0 0 1 1.194 1.493c-.4-.249.746 1.393-.547 0-1.344-1.443-1.194-.9-1.344-.8l1.692 1.99c-2.836-2.587 0 1.891-2.438-.547.3.547 0 .647.547 1.244l-.9-1.095c-.5 0-.7 0-.8.348l-.547-.8c-.249 0 2.289 3.334 2.189 3.533l-1.344-1.642c-.3.249-1.692-.945-.846.8a3.836 3.836 0 0 1-.548-.846s-1.393-.747.4 1.493c-1.144-1.493-.4 0 0 .9l-.8-1.145c.9 1.543 1.194 1.941 1.244 2.488s-.647-.9-.4-.647c-.6-.5.647 1.194 0 .7l-.4-.8a3.018 3.018 0 0 0 .547 1.343c.547.9-.547 0-1.244-1.095.4.647.9 1.543.6 1.343a4.965 4.965 0 0 1-.5-.8c-.8-.6.5 1.592-.448.6a4.334 4.334 0 0 0-.5-.7h.5a22.035 22.035 0 0 1-1.841-2.687c.4.846 1.294 2.787.846 2.389l-.3-.348h-.348c-.547-.9-.5-.348-.6-.348a13.858 13.858 0 0 0 1.244 1.99v-.249c.3.647.547 1.194 0 .6l1.095 1.99c-1.144-1.592-1.941-2.339-2.588-3.334a5.329 5.329 0 0 0 .8 3.185c0 .3-.5-.647-.7-.945a2.745 2.745 0 0 0 0-.6c0 .647-.3.448.5 2.09-.6-.6-.647-1.543-.8-1.145l-.249-.5c-1.841-2.339 1.244 4.677-1.045 1.543l.349.547c-1.393-1.145-.9 2.14-2.588 0-.4-.4 0 .7 0 1.543l-.531-1.374.348 1.742c0 1.294-1.692-3.334-1.344-.945l.348.945s0 .7-.547-.4v1.144c-.4-.448-.747-2.986-1.145-3.035a15.278 15.278 0 0 0 .3 2.836 3.6 3.6 0 0 1 .5 1.194v.4a23.329 23.329 0 0 0 1.742 6.07v-1.443l.348 1.045c.4 1 0 0 0-.6a3.334 3.334 0 0 0 .448 1.144l-.3-2.189a10.331 10.331 0 0 0 .7 2.19 22.042 22.042 0 0 1-.647-2.637c.4 1 .6 1.841.547.9a3.8 3.8 0 0 1 .249 1.244c0-.746.3-.4 0-1.642.5 1.194.349-.448 1.045 1.642a5.742 5.742 0 0 1 0-1.891c.6 2.587.547 0 1.393 2.687-.6-2.289.349-1.244 0-2.587v.448a6.493 6.493 0 0 1 .846 1.145 19.132 19.132 0 0 1-.9-3.533 30.4 30.4 0 0 1 1.492 3.831c-.6-1.493 0-1.642-.8-2.787a16.282 16.282 0 0 1 1.095 1.891c-.946-2.239 0-.448-.5-1.891.7 1 1 2.09.945 1.294a3.532 3.532 0 0 1-.842 1.397zm3.782-6.817zm.448-.3a2.892 2.892 0 0 1-.5-.8 3.19 3.19 0 0 0 .5.945zm-6.021-7.663l.249.249z" class="cls-1" transform="translate(265.142 205.075)"/>
        <path id="Path_73781" d="M582.089 402.7c.3 0-.9-1.592-1.393-2.538s.9 1 1.592 1.692c0-.547-.846-2.04-.647-2.09a1.638 1.638 0 0 1 .448.647c-.6-1.393.7-.547 0-2.289l.3.348c-.547-.7-1.095-1.443-1.493-2.04s-.4-1.095.348 0a1.068 1.068 0 0 0 .349.746v-.5c1.095 1.294 0 .6.846 1.642 0-.647-.547-2.04 0-1.791 1.045 1.393 0 .846 1 1.841l-.7-.3c1.791 2.04-.3 0 1.543 2.189.746 0 0-1.045.746-.945-.448-.846-.846-1.145-1.294-1.941-.4-1.841 2.936 3.085 2.09.945-.547-1-1.741-2.787-.8-2.09l1 1.642c.547 0-1.344-2.389 0-1.692.348.7 0 .746 0 .9 1.194 1.045-.4-1 0-1.145l1.045 1.294c.3-.5 0-1.841.349-2.438a5.223 5.223 0 0 0 .9 1.244c0-1.144 1.443-.8 2.637-.448l-.647-1.344a1.992 1.992 0 0 1 .6.746c.547.249-.548-.746-.8-1.294s.7.547.9.945c-.349-1.294-.5-2.986.9-2.09v.4c.7.249-1.443-2.637-.3-1.791v.249c1.095 0 1.045-1.692 2.936-.4-1.194-1.742 1.294 0-.5-2.14 1.294.8 1.493 1.294 2.687 1.642.249 0-.946-1.642-.946-2.04l1 1.194-.8-1.443 1.294 1.344v-.448a2.932 2.932 0 0 1-.846-.8c0-.746 1.343.3 1.841.9v-1.493a4.978 4.978 0 0 1 .6 1.095c-.647-1.493 1.095 1.194.5 0a4.335 4.335 0 0 1-.746-1c.746.6 1.095.3 1.095 0l.6.846c.647 0 .7-1.244 1.244-1.642a5.676 5.676 0 0 1-1.642-1.941l1.144 1.194c-.547-.846-.547-.348-1.144-1.443.3 0 1.294 1.294 1.542 1.791v-.647c.349.4.448.6.846 1.095-.547-.846 1.443.9.448-.547l.349.348c.547-.448.4-1.045.8-1.493-.9-1.045-.547-.945-1.145-1.941.6 0 1.642.6 1.941 0s-.7-1-1.145-1.692c.9.945 1.145.5 1.592 1.393.3-.6.4-.7.249-1.99a4.363 4.363 0 0 1-.846-.8c0-.249.547 0 .945.647-.647-1.99 3.981 1.443 2.687-1l-.4-1.493c.349 0 .5.846 1.194 1.244-.9-2.09 1.095-.6.6-2.04 2.886 2.438 1.045-1.344 3.185 0l-.647-.6c-.5-.746.5 0 .7.249s-.647-.448-.9-.846c.3-1.742 2.986-1.095 4.578-1.543.547 0-2.985-3.483-1-2.438l1 1.294c-.6-2.14 1.642-1.543 1.144-3.433.249.3.6.647.5.7 1.045.7.647-.547 0-1.244a11.718 11.718 0 0 0 1.095.9c.448.3-.746-1.493 0-.746l.3.4c-.348-.5.547-.348-.547-1.244.8 0 0-.945.9-.6-.946-1.194 1.045 0-.5-1.542 1.592 1.592 1.791.8 1.194 0 .448.547.647.348 1.294 1.045a2.14 2.14 0 0 0-.846-1.443c2.338 1.443-.9-2.289 1.841 0a11.157 11.157 0 0 1 0-3.483c1.642 1.543-.4.8 1.344 2.339 0-1.145-1.344-2.737-.448-2.886s.647.7.9 1.045c0-1.145 1.095-.945.6-2.239a1.3 1.3 0 0 1 .348.547s.448 0-.3-.7v.3a14.92 14.92 0 0 1-2.538-2.985c2.04 2.09.946 0 3.483 2.737a2.739 2.739 0 0 0-.9-1.045 4.061 4.061 0 0 1 1.045.9c0-.7-1-1.294-.747-1.592a8.2 8.2 0 0 1 .9.945c-.6-.8-1.194-1.592-.647-1.592s.547.448.448.5-1.244-2.438 0-2.289c1.493 1.542.7.3 2.14 1.493v-.647l-.8-.448s-.6-1.343 0-1.145l.448.7v-.7h-.746c-.547-.846-1.791-1.493-1.145-1.443s0 0 1.145.348c-.349-.5-.747-1-.249-.9s1.543 1.393 1.891 1.592c-1.095-1.095 0-.8-1.045-2.04a7.162 7.162 0 0 0 1.194 1.045l-.9-.9a2.934 2.934 0 0 1 1.144.8c.448 0-1.891-1.443-.8-1.144l.3.348c.746 0 0-1.244.8-1.194 1.542 1.095 0 .6 1.393 1.493 0-.746-.846-2.488 0-2.737h-.249c-1.99-1.742 1.344.448.6-.6a8.385 8.385 0 0 0 .846.8c.6 0 0-1.144 0-2.189l.5.5c.647 0 .7-.3 1.144-.348-.5-.5-.3-.547-1.144-1.045 3.583 1.692-.6-2.587 2.388-1.244 0 0 .348.547.4.5v-.9a8.6 8.6 0 0 0-1.393-.8c-.5-.5-.8-.945-.7-1.095a4.975 4.975 0 0 0 2.04 1.443l-.846-.7c1.791 1-1.791-1.443-.448-1l.448.4c0-.348-.647-.945-.4-1 1.095.746.4.547 1.244 1.194 0 0-1.692-1.941-.5-1.294.249.3 0 .4.349.746 1.393.746 1.095.448 1.443.448h.4c-2.588-2.339 0-.9-1.642-2.637 1.443 1.642.945.8 2.14 1.742a3.82 3.82 0 0 1 1.194.6c-.846-.9.946.3-.3-1.045.4.3 0 0 1.145.647 0-.448-.7-.448-1.194-.846-1.095-1.344 2.19.4.746-1.443-.448-1-1.741-2.04-2.09-2.886a4.229 4.229 0 0 1 1.344 1.145c.746 0 .746 0 .448-.6a4.986 4.986 0 0 0 1.095.746c0-.249-1.343-1.145-.6-.945a17.814 17.814 0 0 1 1.443 1.294c0-.448-.8-1.194-1.045-1.642a5.969 5.969 0 0 1 1.363 1.318 3.084 3.084 0 0 0-1.244-1.891h-.5a4.328 4.328 0 0 1 1.095.846c.746.8-.547 0-.946-.249v-.348c-2.438-1.493 0 .846-.4 1.045l-1.592-1.343 1.194 1.294a5.326 5.326 0 0 1-1.593-1.194c-.995-.4.448.6-.6 0h-.3l.349.547c-.3-.3-1.194-.846-.846-.8-1.244-.348.846 1.493-.547.7 0 .9 1.194.945 2.338 2.389l-3.184-1.99 1.194.945-.746-.348c.7.846.6.4 1.294 1.095-1.294-.6 0 1.045-1.991-.348.9.746.9.3 1.343 1.045-2.139-1.493 0 .547-.945 0s-.348-.647-1.443-1.145c1.692 1.493-.747 0-.5.547 1.443 1.095.3.846.547 1.543-.5-.4-1.244 0-1.991 0 1.443 1.194.946 1.244 1.045 1.692a5.476 5.476 0 0 1-1.443-1.393v.249a2.284 2.284 0 0 1 .7.9l-1.045-.9c0 .3.846 1.543 0 1.294 1 .846 3.035 1.941 3.433 2.836a14.281 14.281 0 0 1-1.642-1.393s.348.448 0 .348l-.8-.9c-.5 0 .7.7.547.746s-.647-.348-1.244-.846.4 0 0 0a2.837 2.837 0 0 1-1.493-.547c.448.348 1.045.8 1.095 1s-1.045-.647-1.543-.8a9.327 9.327 0 0 1 .946 1.144 4.181 4.181 0 0 1-.946-.6c.4.547-.348.8 1 1.592.747 1.343-1.393.4-1.294 1.244l-.348-.3c0 .6-.249.8.448 1.642a4.134 4.134 0 0 1-1.294-.8c0 .448.547.8-.3.6s-.647-.4-.348-.6c-.547 0-1.194-.448-.4.647-.9-.9-1.344-.8-1.194-.448l.846.4c0 .249 0 .3-.348.348l-1.194-1.095c-1.991-.8 1.841 3.135-1.095 1.343.8.9.9.249 1.791 1.244-.349 0-2.388-1.194-2.438-1.095-.995-.3 1.592 1.841.8 1.791a6.569 6.569 0 0 1 1.941 1.941 6.547 6.547 0 0 1-2.389-1.742c-.249-.448 0 0 .348 0a1.59 1.59 0 0 0-.8-.8l.448.4c-.547-.249-.8 0-1.443-.6a1.392 1.392 0 0 0 1 .8c-.9-.249-.4.448-1.144.4a1.33 1.33 0 0 1 .8.6c-.946 0 .7.945.6 1.443-.8-.448-1.543-1.493-1.244-.7a4.135 4.135 0 0 1-1.542-1.344c.647 1-1 0-1.294 0l-.249-.5v.448l.945.7a1 1 0 0 1-.647-.3 26.912 26.912 0 0 1 2.189 2.09c-.547-.3 0 .8-1.045 0 .7 0-1.244-1.045-1.144-1.493s0 .249 0 0a1.631 1.631 0 0 1-.3-.3c-1.344-.6 1.194 1.294.846 1.642-.647-.6-1.343-1-1.244-.846a19.037 19.037 0 0 1 1.542 1.493c-.7 0 0 .6 0 .7h.349c.647.647.448.7.5 1.045-.5-.448 0-.5-.5-.6.995 1.194-1.543-.7-1 .249-.547-.249-1.244-1.095-1.642-1.244.6 1.045-1.144-.5-.746.4a3.236 3.236 0 0 1 1.442 1.493v-1.038l1 1.493v-.8a2.936 2.936 0 0 0 1.145 1.194c-1.493-1 .4 1.095-.7.5l-2.19-1.99c-1.244-.547.6 1.642-.4 1.592h.547c.8.846 0 .4 0 .846a8.1 8.1 0 0 0-1.542-1.194c.547.5-.349.3 1.045 1.692l-1.144-.7c-.7 0 1.692 2.339 1.095 2.438-.7-.846-1.344-1.145-1.692-1.891 0 0-.3 0 0 .547-.547-.348.647 1.194 0 .7.3.348 1 1.045.846 1.145l-.348-.348c.348.348.249.647 1.144 1.294-2.538-1.742-.8 1.145-2.986-.4a3.227 3.227 0 0 1 0 1.294s-.348-.348 0-.348c-.945-.3 1.841 2.189.747 1.841s-.4-.8-.946-1.095c-2.388-2.239 0 .7-1.692-.348-.946-.6.448 1.294 0 1.443l-.349-.348a4.326 4.326 0 0 1 1.045 2.737c-.8-1-.348-.647-1.344-1.493 0 .249 1.543 1.443 1.493 1.941a13.36 13.36 0 0 1-2.139-1.592v-.3c-1.393-1.145-.3.348-.647 0l-.5-.547c0 .5 1.145 1.891.647 2.189l.5.4c1.095 1.592-.946-.6 0 .647l-1.393-1.344a12.959 12.959 0 0 1 .8 2.339 15.876 15.876 0 0 1-1.493-2.786 1.321 1.321 0 0 0 0 1.343s-.3-.647 0-.448c.9 1.244 1.194 2.04.9 2.289-2.588-2.787-1.393 0-3.682-1.941.5 1.493-1.393.5-1.841 1.244 2.239 1.941 0 0 2.04 2.388l-1.692-.945c-.7-.547-.3-.6-.8-1.095a6.794 6.794 0 0 0-1.741-1.244c.8.746.945 1.244.5 1.095l1.194.8c.7 1.592-2.089-1.542-1.393 0l-.547-.846c0 .647-.8.746.647 2.737-.3-.249-.9-.8-.946-1.045s.547 2.986-.846 2.239l-.448-.6c0 .249.747 1.194 0 .746a4.193 4.193 0 0 0-.5-.6s.6 1.195 0 1l-.448-.7c-1.145-.3.6 2.189.5 2.986a4.976 4.976 0 0 0-2.787-1.941c-.747.3 0 2.239 0 3.384-1.891-1.543-1.841.249-3.235-.3a4.967 4.967 0 0 1 1.095 1.543c-.4 0 .6 1.493-.647 0-1.343-1.443-1.294-.8-1.542-.7l1.642 2.09c-2.985-2.538-.6 2.289-3.085 0 .3.647 0 .746.4 1.393l-.9-1.095c-.6 0-.9 0-1.144.647l-.547-.846c-.3 0 2.189 3.433 1.991 3.732l-1.393-1.592c-.448.4-2.04-.7-1.344 1.144 0-.249-.547-.746-.5-.846s-1.742-.5 0 1.742c-1.145-1.493-.6.249-.349 1.095l-.8-1.145c.846 1.592 1.145 1.941 1.145 2.587s-.747-.846-.448-.647c-.647-.4.6 1.194 0 .846l-.448-.8c-.3 0 0 .448.5 1.393s-.7 0-1.493-.9c.448.647.9 1.543.547 1.393a3.435 3.435 0 0 1-.5-.8c-.946-.448.348 1.742-.747.9l-.547-.647c.349 0 .7-.348.7-.249a13.792 13.792 0 0 1-1.991-2.588c.349.946 1.244 2.886.6 2.588l-.3-.348v.249c0 .249-.348 0-.4 0-.7-.8-.647 0-.846 0 .846 1.095.547 1.045 1.393 1.841v-.249l.3-.3c.3.647.547 1.194 0 .7l1.144 1.941c-1.344-1.443-2.338-2.04-3.085-2.986a3.933 3.933 0 0 0 .647 3.433c0 .4-.6-.5-.9-.8s0-.3 0-.647c0 .746-.547.746.5 2.289-.8-.5-.846-1.493-1.045-1l-.3-.5c-2.488-1.841 1.393 4.976-1.692 2.289a2.039 2.039 0 0 1 .5.448c-1.991-.647-1.244 2.786-3.732 1.244-.6-.249 0 .746.349 1.642l-.9-1.244.647 1.642c.249 1.344-2.787-2.587-1.991 0l.6.8c-.3 0-.3.9-.9 0 0 0 .5.945 0 .547l-.448-.7v1.493c-.647-.249-1.592-2.687-2.239-2.438a7.72 7.72 0 0 0 1 2.687 2.426 2.426 0 0 1 .9.945v.448a19.917 19.917 0 0 0 3.682 4.976l-.448-1.393.746.9c.7.8.3 0 0-.647a4.435 4.435 0 0 0 .8.945l-.9-2.09c.547.746.846 1.642 1.344 1.891-.448-.945-1.244-1.592-1.393-2.339.746.8 1.144 1.543.846.647a3.479 3.479 0 0 1 .6 1.095c0-.7.249-.547-.3-1.592.846.945.349-.647 1.543 1.194a4.98 4.98 0 0 1-.547-1.791c1.145 2.339.647-.249 2.14 2.14-1.145-2.09 0-1.343-.249-2.687 0 0 .3.5 0 .448s.747.547 1.145.846a16.5 16.5 0 0 1-1.543-3.334c1.294 1.393 1.145 1.99 2.24 3.433-.9-1.294-.448-1.592-1.294-2.637a8.477 8.477 0 0 1 1.493 1.642c-1.344-2.04 0-.448-.747-1.791.946.8 1.344 1.841 1.244 1a3.78 3.78 0 0 1-1.239-.034zm4.578-8.459zm.6-.448h-.3c-.3-.348-.6-.8-.5-.8a2.785 2.785 0 0 0 .8.8zm-6.966-6.917z" class="cls-1" transform="translate(275.396 116.486)"/>
    </g>
</svg>
