<svg xmlns="http://www.w3.org/2000/svg" width="52" height="40" viewBox="0 0 52 40">
    <path fill="#fff" d="M19.767 56.89a1.852 1.852 0 0 1-2.259-.161l-1.23-1.536a1.813 1.813 0 0 1 .592-2.31q3.325-2.74 4.834-4.239a23.437 23.437 0 0 0 4.393-6.18c.22-.47-.342-.769-.634-.864q-10.9-3.55-10.9-12.516a11.212 11.212 0 0 1 3.53-8.583 12.45 12.45 0 0 1 8.846-3.3q4.735 0 8.39 4.291a12.975 12.975 0 0 1 3.571 8.747q0 13.787-19.133 26.651zm27.661 0a1.852 1.852 0 0 1-2.259-.161l-1.23-1.536a1.813 1.813 0 0 1 .592-2.31q3.325-2.74 4.834-4.239a23.433 23.433 0 0 0 4.393-6.18c.22-.47-.342-.769-.633-.864q-10.9-3.55-10.9-12.516a11.212 11.212 0 0 1 3.53-8.583A12.452 12.452 0 0 1 54.6 17.2q4.735 0 8.39 4.291a12.977 12.977 0 0 1 3.572 8.748Q66.56 44.026 47.428 56.89z" transform="translate(-14.56 -17.2)"/>
</svg>
