<svg xmlns="http://www.w3.org/2000/svg" width="100.25" height="36" viewBox="0 0 100.25 36">
    <defs>
        <linearGradient id="linear-gradient" x1=".804" x2=".196" y1="-.026" y2="1.026" gradientUnits="objectBoundingBox">
            <stop offset=".003" stop-color="#bd38ff"/>
            <stop offset=".503" stop-color="#785fff"/>
            <stop offset="1" stop-color="#00f8ff"/>
        </linearGradient>
        <style>
            .cls-3{fill:#fff}
        </style>
    </defs>
    <g id="Logos" transform="translate(-137 -50.721)">
        <path id="Path_75805" fill="#00063d" stroke="#00063d" stroke-width="0.5px" d="M2.854-11.665a1.818 1.818 0 0 1-1.274-.452 1.442 1.442 0 0 1-.5-1.108 1.391 1.391 0 0 1 .5-1.1 1.879 1.879 0 0 1 1.274-.428 1.875 1.875 0 0 1 1.279.428 1.4 1.4 0 0 1 .491 1.1 1.436 1.436 0 0 1-.492 1.125 1.85 1.85 0 0 1-1.278.435zM4.37-.381H1.3v-9.743h3.07zm11.95-1.113a5.447 5.447 0 0 1-1.6 4.2A6.593 6.593 0 0 1 10.069 4.2a7.509 7.509 0 0 1-3.189-.561V1.1a6.208 6.208 0 0 0 3.1.875 3.386 3.386 0 0 0 2.411-.8 2.852 2.852 0 0 0 .856-2.184v-.771h-.039a3.45 3.45 0 0 1-3.1 1.636 3.767 3.767 0 0 1-3.024-1.312 5.248 5.248 0 0 1-1.118-3.52 5.845 5.845 0 0 1 1.244-3.93 4.1 4.1 0 0 1 3.277-1.456 3.043 3.043 0 0 1 2.723 1.37h.039v-1.132h3.073zm-3.033-3.568v-.771a2.337 2.337 0 0 0-.559-1.575 1.825 1.825 0 0 0-1.454-.652 1.893 1.893 0 0 0-1.6.78 3.61 3.61 0 0 0-.583 2.2 3.049 3.049 0 0 0 .554 1.927 1.821 1.821 0 0 0 1.517.709 1.9 1.9 0 0 0 1.538-.72 2.9 2.9 0 0 0 .587-1.898zM28.048-.381h-3.063v-5.537q0-2.141-1.595-2.141a1.647 1.647 0 0 0-1.322.6 2.28 2.28 0 0 0-.506 1.522v5.556h-3.073V-14.8h3.073v6.127h.038a3.509 3.509 0 0 1 3.063-1.684q3.384 0 3.384 4zM39.026-4.4h-6.5q.156 2.122 2.732 2.122a5.423 5.423 0 0 0 2.888-.761v2.173a7.727 7.727 0 0 1-3.588.723 5.116 5.116 0 0 1-3.743-1.308A4.881 4.881 0 0 1 29.487-5.1a5.15 5.15 0 0 1 1.439-3.844 4.848 4.848 0 0 1 3.539-1.418A4.4 4.4 0 0 1 37.834-9.1a4.809 4.809 0 0 1 1.191 3.435zm-2.849-1.842q0-2.093-1.731-2.093a1.667 1.667 0 0 0-1.279.6 2.692 2.692 0 0 0-.656 1.494zm10.773-1.17a2.713 2.713 0 0 0-1.293-.295 1.879 1.879 0 0 0-1.565.718 3.086 3.086 0 0 0-.564 1.955v4.653h-3.073v-9.743h3.073v1.808h.039a2.65 2.65 0 0 1 2.625-1.979 2.018 2.018 0 0 1 .758.114zm5.7 7.269a5.422 5.422 0 0 1-3.914-1.365 4.892 4.892 0 0 1-1.424-3.706A4.893 4.893 0 0 1 48.788-9a5.659 5.659 0 0 1 4-1.365A5.356 5.356 0 0 1 56.674-9a4.8 4.8 0 0 1 1.41 3.611 5.09 5.09 0 0 1-1.454 3.838 5.481 5.481 0 0 1-3.981 1.408zm.078-7.916a2.069 2.069 0 0 0-1.692.733 3.181 3.181 0 0 0-.6 2.074q0 2.807 2.314 2.807 2.207 0 2.207-2.883-.004-2.731-2.231-2.731z" transform="translate(178.916 74.026)"/>
        <g id="Group_18853" transform="translate(137 50.721)">
            <rect id="Rectangle_2393" width="36" height="36" fill="url(#linear-gradient)" rx="10" transform="translate(0 0)"/>
            <g id="Letters_icon" transform="translate(8.983 6.408)">
                <path id="Path_75804" d="M272.566 149.248c-1.367-.456-4.257-.159-7.411.72a26.043 26.043 0 0 1 .871-7.565.522.522 0 0 0-.1-.514c-.547-.532-2.116-1.657-3.685.971-1.234 2.067-1.186 5.8-.942 8.442a27.435 27.435 0 0 0-2.782 1.342 19.249 19.249 0 0 1 .336-4.712c.3-1.587-2-.442-2.38.877a17.368 17.368 0 0 0-.05 5.174c-1.958 1.447-3.334 3.152-3.519 5.033-.568 5.774 6.139 6.977 6.86 2.458a8.584 8.584 0 0 0-.222-2.709c-.173-.759-.33-1.47-.468-2.15a19.265 19.265 0 0 1 2.857-1.116 31.687 31.687 0 0 1 .268 8.222.466.466 0 0 0 .175.462c.425.247 1.389.536 2.253-1.16.893-1.752.932-6 .822-8.334a42.747 42.747 0 0 1 8.274-.461 1.008 1.008 0 0 0 .12-.006h.013a.743.743 0 0 0 .709-.4 1.023 1.023 0 0 0 .16-.308c.421-1.33.647-3.33-2.159-4.266zm-15.342 12.587c.125 2.5-4.509 1.879-2.755-1.252a8.639 8.639 0 0 1 2.378-2.612c.172 1.493.327 2.865.377 3.864z" class="cls-3" transform="translate(-252.869 -141.189)"/>
                <ellipse id="Ellipse_6475" cx="1.315" cy="1.307" class="cls-3" rx="1.315" ry="1.307" transform="translate(3.642 2.106)"/>
            </g>
        </g>
    </g>
</svg>
