<svg xmlns="http://www.w3.org/2000/svg" xmlns:xlink="http://www.w3.org/1999/xlink" width="174.251" height="54" viewBox="0 0 174.251 54">
  <defs>
    <style>
      .cls-1 {
        fill: #00063d;
        stroke: #00063d;
        stroke-width: 0.5px;
      }

      .cls-2 {
        fill: url(#linear-gradient);
      }

      .cls-3 {
        fill: #fff;
      }
    </style>
    <linearGradient id="linear-gradient" x1="0.804" y1="-0.026" x2="0.196" y2="1.026" gradientUnits="objectBoundingBox">
      <stop offset="0.003" stop-color="#bd38ff"/>
      <stop offset="0.503" stop-color="#785fff"/>
      <stop offset="1" stop-color="#00f8ff"/>
    </linearGradient>
  </defs>
  <g id="Logo" transform="translate(-137 -50.721)">
    <path id="Path_75805" data-name="Path 75805" class="cls-1" d="M4.437-8.856a3.444,3.444,0,0,1-2.413-.856,2.732,2.732,0,0,1-.94-2.1,2.636,2.636,0,0,1,.94-2.091,3.561,3.561,0,0,1,2.413-.811A3.553,3.553,0,0,1,6.86-13.9a2.647,2.647,0,0,1,.93,2.091,2.721,2.721,0,0,1-.93,2.127A3.5,3.5,0,0,1,4.437-8.856Zm2.874,21.38H1.489V-5.935H7.311Zm22.643-2.109q0,5.138-3.04,7.959T18.108,21.2a14.227,14.227,0,0,1-6.043-1.064v-4.8A11.762,11.762,0,0,0,17.942,17a6.416,6.416,0,0,0,4.569-1.523,5.4,5.4,0,0,0,1.621-4.137V9.874h-.074a6.537,6.537,0,0,1-5.877,3.1,7.137,7.137,0,0,1-5.73-2.488,9.944,9.944,0,0,1-2.119-6.67,11.075,11.075,0,0,1,2.358-7.445A7.77,7.77,0,0,1,18.9-6.386a5.766,5.766,0,0,1,5.158,2.6h.074V-5.935h5.822Zm-5.748-6.76V2.195A4.427,4.427,0,0,0,23.146-.789a3.458,3.458,0,0,0-2.754-1.235,3.587,3.587,0,0,0-3.04,1.478,6.839,6.839,0,0,0-1.105,4.164A5.777,5.777,0,0,0,17.3,7.27a3.45,3.45,0,0,0,2.874,1.343,3.592,3.592,0,0,0,2.92-1.361A5.5,5.5,0,0,0,24.206,3.655Zm27.967,8.869h-5.8V2.033q0-4.056-3.021-4.056A3.121,3.121,0,0,0,40.843-.888,4.319,4.319,0,0,0,39.885,2V12.524H34.063V-14.8h5.822V-3.2h.074a6.648,6.648,0,0,1,5.8-3.191q6.411,0,6.411,7.571Zm20.8-7.607H60.667q.295,4.02,5.177,4.02a10.276,10.276,0,0,0,5.472-1.442v4.11a14.641,14.641,0,0,1-6.8,1.37A9.693,9.693,0,0,1,57.424,10.5,9.248,9.248,0,0,1,54.9,3.583,9.759,9.759,0,0,1,57.627-3.7a9.186,9.186,0,0,1,6.706-2.686,8.342,8.342,0,0,1,6.384,2.4,9.111,9.111,0,0,1,2.257,6.508Zm-5.4-3.5q0-3.966-3.279-3.966a3.158,3.158,0,0,0-2.423,1.136A5.1,5.1,0,0,0,60.63,1.42ZM87.989-.8a5.14,5.14,0,0,0-2.45-.559A3.56,3.56,0,0,0,82.573,0a5.846,5.846,0,0,0-1.069,3.7v8.815H75.682V-5.935H81.5V-2.51h.074q1.382-3.75,4.974-3.75a3.824,3.824,0,0,1,1.437.216Zm10.8,13.773a10.273,10.273,0,0,1-7.415-2.587,9.268,9.268,0,0,1-2.7-7.022,9.271,9.271,0,0,1,2.8-7.166,10.722,10.722,0,0,1,7.572-2.587A10.148,10.148,0,0,1,106.413-3.8a9.089,9.089,0,0,1,2.671,6.841,9.644,9.644,0,0,1-2.754,7.265A10.385,10.385,0,0,1,98.786,12.975Zm.147-15A3.92,3.92,0,0,0,95.728-.635a6.028,6.028,0,0,0-1.142,3.93q0,5.318,4.385,5.318,4.182,0,4.182-5.462Q103.152-2.023,98.933-2.023Z" transform="translate(201.916 73.026)"/>
    <g id="Group_18853" data-name="Group 18853" transform="translate(137 50.721)">
      <path id="Path_75839" data-name="Path 75839" class="cls-2" d="M15,0H39A15,15,0,0,1,54,15V39A15,15,0,0,1,39,54H15A15,15,0,0,1,0,39V15A15,15,0,0,1,15,0Z"/>
      <g id="Letters_icon" transform="translate(13.475 9.612)">
        <path id="Path_75804" data-name="Path 75804" class="cls-3" d="M282.415,153.278c-2.051-.684-6.385-.238-11.116,1.081a39.065,39.065,0,0,1,1.307-11.347.783.783,0,0,0-.152-.771c-.82-.8-3.174-2.485-5.528,1.457-1.851,3.1-1.779,8.7-1.412,12.663a41.152,41.152,0,0,0-4.173,2.013,28.873,28.873,0,0,1,.5-7.068c.446-2.38-3-.663-3.569,1.315-.458,1.6-.358,4.544-.075,7.761-2.937,2.171-5,4.728-5.279,7.55-.852,8.661,9.208,10.465,10.29,3.687a12.875,12.875,0,0,0-.333-4.063c-.259-1.139-.5-2.2-.7-3.225a28.9,28.9,0,0,1,4.285-1.674,47.529,47.529,0,0,1,.4,12.333.7.7,0,0,0,.263.693c.637.371,2.083.8,3.38-1.74,1.339-2.628,1.4-9,1.232-12.5a64.12,64.12,0,0,1,12.411-.691,1.514,1.514,0,0,0,.18-.009h.019a1.115,1.115,0,0,0,1.064-.6,1.534,1.534,0,0,0,.24-.462C286.284,157.681,286.624,154.681,282.415,153.278ZM259.4,172.158c.188,3.757-6.763,2.818-4.133-1.879a12.959,12.959,0,0,1,3.567-3.918C259.093,168.6,259.327,170.659,259.4,172.158Z" transform="translate(-252.869 -141.189)"/>
        <ellipse id="Ellipse_6475" data-name="Ellipse 6475" class="cls-3" cx="1.973" cy="1.961" rx="1.973" ry="1.961" transform="translate(5.464 3.159)"/>
      </g>
    </g>
  </g>
</svg>
