<svg xmlns="http://www.w3.org/2000/svg" width="124" height="179" viewBox="0 0 124 179">
  <path id="decor_flower" data-name="decor / flower" d="M37.429,524.413c.138-1.805,1.877,4.134,1.38.455l-1.49-3.376c.566.51.759-1.6,1.1-2.067-1.159-1.282-.731,4.809-2.76.827-.718-.882-1.132-4.134-1.269-5.7.414,3.624-.856,0-1.38-1.378,0-2.274-.69-5.774-.262-6.89a8.864,8.864,0,0,1-.7-3.183l.29-.165c-.635-2.591-.179.937-.593.317-.345-1.9-.166-4.975-.552-8.075a46.455,46.455,0,0,0,1.863,7.8c-.235-5.719,1.683.785,2.677,1.915-1.007-4.465-1.849-6.118-2.76-9.756.1-4.575,2.291.083,2.525,1.185-.469-2.012-1.076-4.065-1.642-5.884s-1.021-3.4-1.3-4.492c1.5,2.935,1.808,2.37,3.091,4.988.331-3.335-.552-3.9-1.173-5.416a6.482,6.482,0,0,1,.207,2.646c-.262-3.886-2.07-3.059-3.063-5.03.3-2.935.166-8.433,1.38-8.1l-1.173.083c-.4-3.348.538-1.764.911-2.3-.814-1.226-2.028.386-2.387-5.319,1.89.868.166-5.071,1.9-4.878,0-2.6-.9-3.845-.58-6.573.649-1.474,1.063-.413,1.38,1.226a14.752,14.752,0,0,1,.345,4.6c0,3.762-.787-.51-.814.992l.524,3.624c.179-1.006.373-2.494.621-3.665s.635-2,1.021-1.75c-.207-3.638-.952,2.894-1.214-1.1l.538-2.384c-.207-4.01-1.38.744-1.214-4.465.511,3.541.5-5.636,1.821-5.14-.759-.193-.483-2.508-.138-4.906s.994-4.809.483-5.512l-.9,2.618.8-.455c-.248,1.461-.469,2.756-.58,4.134a30.9,30.9,0,0,1-.635,4.258c-.235-2.48-1.38.661-1.532-2.219-.152-5.512,1.035-1.282,1.131-2.039-.1-1.447,0-2.866,0-4.313L32.089,442.3c.193-1.667.511-3.61.9-5.719s1.1-4.272,1.739-6.477c3.05-6.1.566,1.02,2.939-3.224a16.21,16.21,0,0,0,.207-2.039,6.511,6.511,0,0,1,.856-2.522c-1.09,1.378-.9,2.756-1.38,3.845-.718.524-.386-.8,0-2.287s1.049-2.99.552-3.032c.842-1.02,1.1-.634,1.09.427.4-1.158.828-2.3,1.256-3.376L29.55,415.924c.359,3.9.3,7.3-.524,8.916l1.38,2.246c.235,9.288-1.545-6.256-1.752,1.585a29.34,29.34,0,0,0,.952,7.758l-.138-2.756c.8,2.081,1.242,1.888,1.9,5.264,0,2.425-.842,1.185,0,4.065-.207,7.427-1.7,2.37-2.884,1.268-.29,5.415-2.456-2.577-1.725,1.02l.207-.992,1.932,5.512c1.021-5.319-1.38-2-.152-4.134l-.083-3.128c.745.937.7,8.171,1.5,8.778-.386.083-1.38-.634-1.6-3.872l-1.38,2.026c0,1.888,1.021,3.073.414,4.134-.8,2.852-1.752-4-1.752,2.894.083,7.358,1.89,6.807,1.9,11.809a9.124,9.124,0,0,0,.179-3.321c.58,1.6.842-1.281,1.38,1.378-.911,1.6-.593,6.89-.386,10.886-.593-1.034-1.007,1.571-1.38.331a16.076,16.076,0,0,0,.966,4.754c.386-8.268,1.187,7.9,1.918,1.488.207,6.38-.649,7.648-1.035,11.616-.317-.248-.9-7.3-1.118-1.64,1.3,6.463,1.38-1.213,2.87,3.789l.221-4.134c1.269-.565.58,7.083.9,8.116-.235,2.549-.483-3.5-1.269-1.006-.152,3.776.7,5.65.317,8.075a23.408,23.408,0,0,1-1.38-3.486c.3,8.847-1.021-.413-1.38,6.353.235,2.136.952.758.856,4.2.883-2.039,1.2-1.791,1.063-7.372,1.38,1.874-.083,7.455.787,11.093a17.408,17.408,0,0,0,0-4.23c1.118-.482,1.269-1.722,2.4,1.3-.4-3.6-1.656-5.154-1.5-10.362,1.118-1.461,1.09,6.353,2.594,6.38.842,2.6.4,8.847-.317,11.41a30.755,30.755,0,0,1,.124,7.289c-.166,2.343-.552,4.437-.649,6.228-.1.152-.193.317-.317.551l6.982,1.282A32.285,32.285,0,0,0,40.3,535.7c-.152-1.378-.442-2.976-.511-4.644s-.221-3.417-.276-5.14a34.711,34.711,0,0,1,.317-5.016c.593-.992,1.38-8.13,1.545-3.982-.166-.592.386-6.1-.386-4.754a10.321,10.321,0,0,1-.221,2.384l-.69-1.171a36.524,36.524,0,0,0,.662-5.03c.083-.854.152-1.709.276-2.536a11.536,11.536,0,0,1,.69-2.343c.442-.413.193,1.034,0,2.343s-.193,2.536.386,1.585a8.863,8.863,0,0,1-.166-1.585c0-.634.083-1.378.166-2.191a48.053,48.053,0,0,1,.869-5.512c.469-1.915.994-3.845,1.518-5.512a30.808,30.808,0,0,1,1.642-3.817c1.062-2.411,2.139-2.315,2.691-3.252l1.67-4.037c.511-.317.883-.22,1.614-.772a17.074,17.074,0,0,0,1.959-4.506,8.643,8.643,0,0,1,1.766-2.15c.4-.317.593-.276.662,0a14.823,14.823,0,0,1-.607,3.417l-1.725,2.632c-.152.565-.386,1.158-.593,1.722s-.359,1.116-.469,1.543c-.235.841-.193,1.226.607.537a3.4,3.4,0,0,0,.193-2.2l1.38-1.378c.235-.909.883-2.522,1.38-3.9s.911-2.453.442-2.4c1.214-1.488,2.125-3.293,3.229-4.933l.8-1.226.29-.413.207-.289a4.137,4.137,0,0,1,.952-.951c-.5.289-.593.1-.621-.234s0-.785-.29-.854l-1.6,2.012.235-.413.179-.372.414-.813a13.772,13.772,0,0,1,.994-1.722,10.09,10.09,0,0,1,2.235-2.687c0,.786,0,.978.718.91-.5,0,0-.827.4-1.695s.787-1.681-.359-1.006a27.277,27.277,0,0,1-2.346,3.376c-1.132-.165.331-2.356,1.242-4.382l2.76-3.789c1.09-1.488,2.429-3.045,3.532-4.492.607-.427.869-.22,1.3-.193s.925-.22,2.153-1.778l.221-.3H73.6c-.718,0-.3-.854.69-2.274.386-.551.842-1.158,1.38-1.819l.386-.5.193-.262c0-.083.138-.193.166-.124l.469.372a5.978,5.978,0,0,0,.911.593,1.591,1.591,0,0,0,.4.11h.3a29.889,29.889,0,0,0,1.38,4.382,16.517,16.517,0,0,1,.524,1.86,11.092,11.092,0,0,1,.083,2.411c-.3-1.1-1.656-6.532-2.76-6.187a20.76,20.76,0,0,1-1.228,2.563.842.842,0,0,1-.869.4,1.381,1.381,0,0,1-.552-.331,2.757,2.757,0,0,1-.29-.358l-.166-.22s0-.138-.1,0l-.152.165.152-.11v.234l.124.427.221.717a6.267,6.267,0,0,0,.386.9c.248.413.386.482.566.427s.662-.689,1.145.234l-.607-1.585c.511.234.58-2.508,1.076-.841A23.918,23.918,0,0,1,77.969,457a47.235,47.235,0,0,1-1.187,6.2c.58-1.378,1.159.069,1.076,1.089-.524,2.26-.938,2.356-1.38,2.4s-.938,0-1.656,1.2a3.468,3.468,0,0,1,.317,1.75c0,.579,0,.951.331.537-.248,1.378-.4.661-.787,1.571A3.647,3.647,0,0,1,75,473.289a11.987,11.987,0,0,1-.635,3.142c-.248-.317-.5-.785.276-3.2-.952,2.687-2.36,3.335-2.539,2.012.276-.7.566-1.378.8-2.122.138-.427.193-.51.276-.73l.262-.62c-.235-.606-.442,0-.69.634l-.083.248-.138.413c-.1.3-.207.593-.3.841-.221.482-.428.8-.58.717.1-.5.235-.937.345-1.378a1.943,1.943,0,0,1,.193-.606,3.069,3.069,0,0,1,.124-.317,2.065,2.065,0,0,0,.276-1.02,1.515,1.515,0,0,0-.483.648,6.966,6.966,0,0,0-.276,1.24c-.262,1.378-.538,2.908-.828,4.01-1.38,3.376-1.587,1.86-1.973,1.791-.221,1.53-.166,1.9.138,1.709a6.022,6.022,0,0,0,1.228-1.778c.925-1.612,1.849-3.335,1.449-.413.193,2.4-2.07,7.62-3.739,11.244,2.373-2.673,1.173.992-.593,4.837,2.594-4.823,1.766-.661,4.015-6.752l.773.207c-.58,1.268-1.38,2.577-2.1,3.886s-1.559,2.591-2.277,3.776c.1-.606-.373-.138,0-.978-1.256,2.439-2.553,4.864-3.946,7.248v-.992c-2.76,4.272-6.9,9.081-8.417,11.754,1.38-2.067,3.229-3.376,1.932-1.116a27.547,27.547,0,0,1-3.27,5.746c-1.463.469-6.61,7.758-4.14,2.618-3.808,6.228-2.153,4.134-5.616,10.2l2.429-4c.938-.069-.262,3.789,2.649.4-2.58,4.561.345,2.549-3.353,8.406-1.9,2.122-.814-1.516,1.242-4.864A18.864,18.864,0,0,0,44.259,535c-1.38.923,1.145-3.693.842-3.665-2.015,2.99.373.165-1.38,3.114a8.57,8.57,0,0,1-2.76,3.982,8.131,8.131,0,0,0-2.76,3.8c.58-1.116,1.89-2.935,1.449-1.461-.759,1.378-1.269,2.287-1.573,2.935l-.524,1.089.745-.923c2.1-2.591.814-2,3.615-5.512,2.981-1.516,2.76.234,6.5-3.114-.69.62-1.38,1.309-1.973,1.957a28.353,28.353,0,0,0,4.94-3.734c6.9-7.7,12.695-14.317,21.319-20.973-1.021.785-2.084,1.53-3.077,2.356-.635.234,0-.317.69-.978s1.614-1.378,1.476-1.474l2.3-.923c.138-1.02-5,2.37-4.14.951a4.708,4.708,0,0,0,1.38-.827L69.3,512.645a63.572,63.572,0,0,0,5.713-4.134,15.421,15.421,0,0,1,5.409-2.756c-4.25,2.6-4.278,3.293-4.278,3.969s0,1.378-3.864,4.134c4.14-3.032,1.2.193,1.821.193,2.332-1.3.759-1.24,3.45-2.591.193.455-4.9,4.4-2.291,3.183-.193-.9,2.111-2.219,2.939-3.362,2.015-.937.235.5,1.214.234a21.214,21.214,0,0,1,2.456-1.819l-.455.882c2.829-1.226,3.174-1.571,3.532-2.095s.787-1.185,3.946-2.687c0-.358-.566-.248-1.38.124s-1.863,1.075-3.1,1.833c-1.021-.3.745-1.778,2.663-3.307s3.988-3,3.353-3.624c5.989-3.142-1.38,1.309,4.043-.717,3.3-.372-3.353,2.756-4.264,4.134l2.76-1.02,2.76-.923c-1.228,2-4.636,3.238-5,4.8a59.965,59.965,0,0,0,7.037-4.2c-6.9,2.026,2.47-2.067-1.78-1.571a50.011,50.011,0,0,0,6.761-2.232c-2.76,1.378.3,1.075-3.394,2.632,5.933-2.563,4.14-2.232,10.211-4.575,1.587-1.612-6.61,1.13.538-2.246,1.628-.551,1.38-.1.455.221,2.663-.689,2.36-.91,1.766-1.13s-1.573-.455.248-1.3c2.594-.978,3.491-.882,2.429-.289a8.572,8.572,0,0,0,2.76-1.612,3.271,3.271,0,0,1,1.877-1.02l-1.214.165c.621-.289.193-.593.373-1.02s.994-.965,4.264-1.667a7.072,7.072,0,0,1,2.222-.207c1.476.138.5.51.442.744a6.377,6.377,0,0,1,6.9,3.748c0-.317.331-.234.828.7a7.669,7.669,0,0,1,.966,2.866,2.45,2.45,0,0,1-.1,1.254,2.973,2.973,0,0,0-.5,1.654,29.607,29.607,0,0,0-.138,3.376c.083.386.345.22.607.083s.58-.262.69.262a8.176,8.176,0,0,1-.745,4.134,19.488,19.488,0,0,0,1.228-11.382c.262.1.58.124.731-.179a2.752,2.752,0,0,0-.248-2.15c-.359.11-.993-.744-2.028-1.888a11.992,11.992,0,0,0-4.388-3.073c-.276-.537,2.332.1,3.85,1.5a12.415,12.415,0,0,0,1.5,1.281c.179,0,.11-.551-.911-2a14.349,14.349,0,0,1,3.546,7.951c-.635-1.282-.235,1.1-.373,3.252a11.877,11.877,0,0,1-.373,2.522c-.166.427-.248.262-.359-.951a17.63,17.63,0,0,1-.911,4.341l-.58,1.874c-.235.593-.524,1.158-.773,1.695a22.439,22.439,0,0,1-1.518,2.99c-.552.909-1.007,1.805-1.587,2.618s-1.132,1.654-1.725,2.494-1.1,1.378-1.656,2.177c-1.131,1.378-2.456,3-4.14,4.947a32.453,32.453,0,0,1,2.511-4.23l4.968-7.579.745-.317c.911-1.819.952-2.4.8-2.246a4.78,4.78,0,0,0-.469.7l-.9,1.378-1.049,1.543c-.373.51-.773.965-1.1,1.378-.676.772-1.132,1.171-1.118.772a23.192,23.192,0,0,1-1.725,2.756,32.22,32.22,0,0,1-2.084,2.535,38.191,38.191,0,0,1-5.382,4.451,122.028,122.028,0,0,1-12.253,7.5c1.739-.358.124.716,0,1.378,1.766-.909,2.415-1.378,3.036-1.722a21.6,21.6,0,0,1,2.539-1.034c-.083.414-.662.868-1.38,1.378a11.908,11.908,0,0,0-1.932,1.378c-.607,1.1,2.76-1.378,4.14-1.888-1.545,1.158-2.263,1.681-2.76,2.108s-.869.841-1.78,1.6a14.073,14.073,0,0,1-3.767.193c-4.347,1.847-6.223,2.756-7.893,3.528a26.159,26.159,0,0,1-6.9,2.356c4.057-.909-2.056-.179,2.36-1.1-.8.207-1.614.372-2.429.551,2.994-1.226,7.106-2.756,10.211-4.244s5.175-2.977,4.347-3.459c-2.332,1.13-4.319,2.232-6.472,3.238a40.847,40.847,0,0,1-7.576,2.756l.179-.358c-4.429,1.061.166.358-.814.909-4.871,1.736-6.734-.11-9.963,1.626,1.725-.207,3.436-.427,5.147-.7-3.726,1.378,1.159-.11.442,1.13a78.223,78.223,0,0,1-13.136,2.632c-5.037.661-10.4,1.171-15.179,1.957a27.946,27.946,0,0,0,7.231,0c-1.518,1.6-3.008,1.516-1.1,2.6l4.485-.358.193,1.378a22.679,22.679,0,0,1-3.56.165c-.552.91-6.775.317-6.982,1.13l3.753-.413c1.9.537-2.553.841-5.147,1.282,2.539.661,8.155-.689,13.661-1.378-.442-.441,4.94-2.067-.428-1.557,0-.551,3.146-1.185,5.271-1.474-1.076.427,4.36.923-.593,1.957,4.733-1.282,2.125-.248,7.479-1.378-.345.234,2.015-.152,4.443-.551s4.9-.785,4.719-.138c.814-.455.69-.868,1.159-1.378s1.5-1.075,4.664-2.039c-1.78-.248-8.776,1.378-4.319-.648-.952.427-1.932.882-2.9,1.268-4.429.593.98-1.02-4.719-.179,1.67-.262,4.912-1.447,5.8-1.089-.925-.661,1.118-1.378,3.339-2.136s4.678-1.709,4.595-2.356c1.38.069,3.008-.413,5.933-1.819-.221.606,1.628.3-.593,1.6a31.753,31.753,0,0,1-5.644,1.722c1.725,1.24,8.2-2.26,13.136-4.671-.745.248-1.007.207.207-.73,1.545-.675,3.933-1.957,5.726-2.935s3.036-1.585,2.4-.592a61.01,61.01,0,0,0,12.654-12.5c.1,0,0,.22-.138.482a5.974,5.974,0,0,1-.593.827c-.483.634-1.1,1.378-1.38,1.791.566-.606,1.09-1.282,1.614-1.943l.856-1.075c.345-.427.69-.992,1.035-1.474.662-1.02,1.38-2.012,2.015-3.045l1.739-3.156c1.09-1.378.635-.317-.124,1.378-.4.841-.814,1.833-1.27,2.687a10.865,10.865,0,0,0-.938,1.97c.5-.772,1.035-1.529,1.518-2.315l1.283-2.384a37.7,37.7,0,0,0,2.222-4.823v1.378a5.616,5.616,0,0,1,.414-1.309c.1-.276.193-.579.317-.9a4.8,4.8,0,0,0,.179-.51l.11-.51c.152-.717.331-1.488.511-2.3a22.143,22.143,0,0,0,.5-2.494,71.316,71.316,0,0,0,.373-8.1,15.01,15.01,0,0,0-2.153-5.03,14.752,14.752,0,0,0-2.76-3,17.937,17.937,0,0,0-3.6-2.4,19.336,19.336,0,0,0-5.3-1.86,6.577,6.577,0,0,0-2.677-.152,2.761,2.761,0,0,1,1.173-.524,6.492,6.492,0,0,1,1.849,0,17.142,17.142,0,0,1,3.532.951,18.351,18.351,0,0,1,1.752.8c.566.276,1.076.551,1.518.785a6.9,6.9,0,0,0-1.173-.9,12.42,12.42,0,0,0-1.656-.9,18.99,18.99,0,0,0-3.753-1.157,7.2,7.2,0,0,0-2.47-.221,3.909,3.909,0,0,1-1.587-.124,58.183,58.183,0,0,0-6.251,1.378,11.206,11.206,0,0,0-1.932.689,12.835,12.835,0,0,0-1.38.882,42.467,42.467,0,0,1-4.912,3.169c-4.14,1.378-3.767,1.089-3.491.73a6.527,6.527,0,0,1,1.269-.758c.483-.276.869-.5.759-.524a12.056,12.056,0,0,0-1.987.841l-1.38.923a3.411,3.411,0,0,1-2.76.785c-1.145.758-2,1.447-2.084,1.819s.566.345,2.484-.193a28.286,28.286,0,0,0-6.9,3.665c.842-1.033,0-.854-1.1-.468s-2.511.978-2.884.579c-1.035.427-2.4.937-3.864,1.64s-3.063,1.474-4.636,2.3a30.093,30.093,0,0,0-7.465,5.346l.359-1.833-4.4,2.756c-3.781,1.378,3.463-3.169,5.727-4.506a138.126,138.126,0,0,0-15.441,9.8c1.711-.841.952,0,1.932-.138-1.476,1.709-4.14,3.114-5.864,4.658-.649,0-.607-.358.759-1.516l-3.394,2.756c-.248-.882-1.959.427,1.173-2.673-1.035.91-2.084,1.764-3.077,2.756-3.629,2.687-.29-.689.414-1.6l-5.644,4.423c-1.614,2.053,1.587-.386-1.946,3.045-5.52,3.789-11.287,9.908-16.379,15.42l4.14-3.376c-3.2,3.183-1.573,3.431-2.056,4.85l-.442.455,13.412,9.329a80.684,80.684,0,0,1,6.154-9.453c-1.38,3.4.235,2.66,2.567.193A16.527,16.527,0,0,0,57.12,532.5a10.051,10.051,0,0,1,1.242-3.79c-.58,3.776,3.657-4.134,3.974-2.99a282.434,282.434,0,0,0,17-27.146c-.317.11-2.111,2.825-1.38.965,1.78-3.8,3.215-5.319,3.795-5.691a40.644,40.644,0,0,0,2.222-6.228,19.585,19.585,0,0,0,.69-3.858c-.621,2.315-.993,2.4-1.256,1.833,1.7-5.14,2.318-3.39,3.022-8.612,1.3-1.089-1.173,5.7-.248,5.512.428-1.144.69-2.232.98-3.224a27.594,27.594,0,0,0,.621-2.866l.373-2.026c.138-.7.193-1.378.29-2.012.1-1.3.207-2.591.3-3.927.8-1.3-.649,4.947.5.813a66.054,66.054,0,0,0,.524-8.709,58.006,58.006,0,0,0-.731-7.937,56.949,56.949,0,0,0-1.449-6.614c-.607-1.9-1.2-3.569-1.725-5.043V438.44a43.691,43.691,0,0,0-3.477-8.02c-.718-2.756,0-1.213.98.937-.442-1.226-.938-2.467-1.38-3.693l-.179-.455a1.97,1.97,0,0,0-.207-.248l-.414-.441c-.276-.3-.552-.579-.828-.841L72.726,433.2c.552-1.13,2.663-2.577,3.7-3.982-3.132,2.756-6.5,6.256-9.563,9.522-1.518,1.681-2.939,3.238-4.236,4.547s-2.484,2.287-3.477,3.211a9.65,9.65,0,0,1,1.518-1.943,18.78,18.78,0,0,0-1.587,1.805l-1.545,1.888-3.008,3.734-1.476,1.846-1.38,1.971c-.469.634-.9,1.378-1.38,2.039l-1.435,2c-.552.882-1.118,1.764-1.642,2.756l-1.545,2.756-1.6,2.894c-.552.992-1.021,2.039-1.559,3.087-2.429,3.665-2.429,4.451-2.3,5.236s.262,1.585-1.476,5.429c-1.007-.386-2.015,2.329-3.008,5.512-.538,1.571-.883,3.321-1.256,4.864a26.748,26.748,0,0,1-1.076,3.707l.621-1.006a56.325,56.325,0,0,1-3.339,12.4A89.454,89.454,0,0,0,29.191,518.5c-.069,1.97-.1,3.955-.083,5.829a39.81,39.81,0,0,0,.428,5.236l-.442-1.254c.428,4.671.262,7.772.856,12.1l3.56,26.1,9.659-23.674c.221-.565.455-1.144.662-1.764.083.207-.676,2.439.483.289a38.928,38.928,0,0,0,3.008-10.417A63.838,63.838,0,0,0,47.957,521c0-3.2-.152-6.187-.276-9.177l-.428-8.971c-.635-11.961-1.38-23.894-1.9-35.717-.649-16.246-1.6-33.912-2.939-52.06L40.4,387.51l-11.77,24.969a108.3,108.3,0,0,0-8.031,24.542A136.8,136.8,0,0,0,18,462.2a236.7,236.7,0,0,0,4.705,46.466,106.719,106.719,0,0,0,6.237,9.329C32.268,522.373,35.938,526.259,37.429,524.413Z" transform="translate(142 566.51) rotate(180)" fill="#8564d5"/>
</svg>
