<svg xmlns="http://www.w3.org/2000/svg" width="92" height="154" viewBox="0 0 92 154">
  <g id="decor_spots" data-name="decor / spots" transform="translate(-1256.547 -173.147)">
    <path id="Path_75789" data-name="Path 75789" d="M24.031,2.312S23.5,4.679,23.2,6.045c-.267.667.333-1.767.533-3-.2.6-.733,2.8-.767,2.7L23.2,4.712c-.467,1.9-.233,0-.833,2.433v-.6c-.233,1.233-.5,2.433-.667,3.333h0a6.178,6.178,0,0,0,.267-1.1l-.167.7c.433-2.3.2-.8.567-2.466-.233.733-.733,2.566-.667,1.933.433-2.233.3-.733.633-2.7v.867c.633-3.533,0,.233.7-3.5,0-.667-.367,1.1-.367.433L22,7.079c-.667,2.166,1-5.6.267-2.666-.367,1.466-.967,4.266-.733,2.766l.533-2.5c0-.266-.8,3.6-.6,1.866.233-.967.267-.8.3-1.1.333-2-.333,1.4-.4,1.4L21.8,4.612c-.2.333-.7,1.9-.933,2.266A11.684,11.684,0,0,1,21.3,4.846c-.433,1.066-.367-.333-.3-1.7l-.467,1.9a3.1,3.1,0,0,1,.233-1.233c.233-.366-.233,1.2-.433,1.966a11.893,11.893,0,0,1,.3-1.7c-.433,1.6-1.067,3.333-.8,1.367V4.879c0-.8-.933,3.9-.667,2.1V6.645c0-.867-.7.833-.267-2.1-.6,2.766,0-1.267-.767,2.566.233-1.933.4-2.6.5-3.933,0-.167-.567,2.4-.7,2.8l.4-2.033-.5,2.1.433-2.4v.5A4.464,4.464,0,0,1,18,5.645c-.267.6,0-1.466.267-2.5l-.533,1.666a4.723,4.723,0,0,1,.367-1.6c-.5,2.033.4-2.1,0-.267l-.333,1.633c.2-1.233,0-1.267,0-.767l.267-1.4c0-.366-.467.6-.633.533a32.659,32.659,0,0,1-.633,3.333l.4-2.133a14.757,14.757,0,0,1-.5,2.4,28.821,28.821,0,0,1,.6-3.1l-.233.733.4-1.8c-.3,1.333.267-2.166-.233,0V1.746c-.2,0-.4.667-.567.733-.367,1.833-.367,1.433-.7,2.9,0-.6.2-2.066,0-1.933-.267.9-.333,1.566-.6,2.633.333-1.666.167-1.533.467-2.733-.2.233-.267.3-.7,1.633a2.819,2.819,0,0,1-.3,1.567,8.268,8.268,0,0,1,.233-1.533V4.846c-.7,2.466.467-5-.4-1.533V3.146l-.5,1.8c0-.333.267-1.267.4-2.3-.733,2.733-.2-.467-.733,1.367.833-4.966-.5.267,0-2.933l-.2,1.167c-.267,1.133,0-.667,0-.967a2.893,2.893,0,0,1-.3,1.7c-.633,1.333-.433-1.833-.6-2.966,0-.333-1.2,6-.867,3.333L12.3,1.179c-.767,2.533-.567-.2-1.233,1.967a6.958,6.958,0,0,1,.267-1.133c.233-1.6-.2,0-.467,1.167,0-.167.233-1.167.3-1.833s-.5,2-.233.4a4.229,4.229,0,0,1,0-.6c0,.733,0-.233-.433,1.567,0-.867-.333.8-.233-.3-.433,2,0-1-.533,1.866.567-2.966.267-2.433,0-1.066A15.352,15.352,0,0,1,10.1,1.046a7.435,7.435,0,0,0-.5,2.1c.5-3.566-.8,2.8,0-1.766-.533,1.566-.933,2.6-1.233,3.333.533-2.966.267-.267.8-3.333-.4,1.167-.967,3.7-1,2.933a10.011,10.011,0,0,1,.367-1.766C8.1,3.713,8.2,2.213,7.766,3.779v-.8s0-.433-.233.9V3.513c-.3,1.966-.867,4.066-1.067,5.1.767-3.833,0-1,.967-5.866,0,.267-.2.9-.367,1.8A17.49,17.49,0,0,1,7.4,2.713a18.263,18.263,0,0,1-.567,2.1l.333-1.667C6.9,4.413,6.6,5.679,6.6,5.112a1.506,1.506,0,0,1,.2-.9c.033,0-.867,3.333-.8,2.1.533-2.833,0-.967.533-3.333l-.233.7v1.2s-.467,1.7-.4.9l.233-1L5.9,5.212v.967c-.3,1.233-.533,3.1-.533,2.4a13.564,13.564,0,0,1,.167-1.5h0c-.2.8-.367,1.6-.333.967s.5-2.7.567-3.333c-.4,2.067-.267.533-.7,2.733l.367-2.066L5.1,7.046a5.037,5.037,0,0,1,.3-1.833c0-.333-.533,3.1-.4,1.733v-.6c0-.733-.433,1-.433.167.4-2.5.233-.6.533-2.7-.233.433-.867,2.9-.933,2.3v.267c-.633,3.333,0-1.733-.2,0,0-.233.233-1.167.3-1.533s-.4.833-.767,1.867l.167-.867V4.912c-.167.9-.167.733-.367,2.033.633-5.133-.9,2.666-.367-1.633L3.1,4.546l-.333.8a9.821,9.821,0,0,1-.3,2.1,10.526,10.526,0,0,1-.367,1.6c.233-1,.4-2.466.533-3.333L2.366,7.146c.367-2.7-.533,3.066-.333,1.233v-.8a10.7,10.7,0,0,1-.333,1.2c.267-1.766.167-.8.433-2.266,0,0-.7,3.333-.467,1.533l.267-.933a13.336,13.336,0,0,0,.2-1.9h0V4.846c-.867,4.533-.333.8-.967,3.766.6-2.833.3-1.633.667-3.633a15.447,15.447,0,0,1,.233-1.733c-.333,1.6,0-1.3-.367,1.033,0-.633,0,0,.233-1.667a5.139,5.139,0,0,1-.3,1.933c-.5,2.166,0-2.733-.467.267C.8,6.012.433,8.145.1,9.212A8.967,8.967,0,0,1,.533,6.879c0-.933,0-.767-.167,0L.633,5.146S.2,7.446.3,6.512L.767,3.946.2,6.279A9.834,9.834,0,0,1,.667,3.846,14.5,14.5,0,0,0,0,6.579v.667S.233,5.712.3,5.379c.3-1.367,0,.633,0,1.3v.4c-.567,3.766.3-.567.367-.333l-.5,2.733L.633,7.212A12.948,12.948,0,0,1,.167,9.845C0,11.212.4,8.912.167,10.412v.467l.2-.8A4.824,4.824,0,0,1,.1,11.612c0,1.6.533-2,.2,0v.167c.333-.9.367-2,.867-4.333L.433,12.412l.333-2a3.63,3.63,0,0,1,0,1.033c.3-1.367.167-.867.4-2.166-.233,1.833.367-.833-.167,2.366.3-1.5,0-1.167.4-2.233-.567,3.333.2-.567,0,1.033a20.642,20.642,0,0,0-.433,2.4c.567-2.967,0,.7.2,0,.4-2.4.3-.966.533-1.733a15.979,15.979,0,0,0,0,2.233v.4c.433-2.433.433-1.967.6-2.433-.233,1.433-.367,2-.5,2.633h0a8.39,8.39,0,0,1,.333-1.433l-.333,1.8s.533-2.1.433-.866c.3-1.667.733-4.7,1.033-5.8a14.227,14.227,0,0,1-.5,2.833c-.1.367.167-.733,0-.333l-.333,1.5c0,.7.267-1.266.267-1.133a9.425,9.425,0,0,1-.3,1.966h0a8.427,8.427,0,0,1-.2,2,15.931,15.931,0,0,1,.367-1.9s-.267,1.567-.3,2.233a18.883,18.883,0,0,0,.4-1.866,4.48,4.48,0,0,1-.233,1.433A7.666,7.666,0,0,0,3,12.112v-.233H3c.5-1.9,0,1.167.433.367v.633a9.029,9.029,0,0,0,.6-1.767,6.669,6.669,0,0,1-.3,1.967c.167-.5.3-1.2.2,0s0,1.033-.233.833c0,.567-.167,1.6.233,0-.3,1.633-.3,2.1,0,1.6v-1.2h0l-.4,2.2c-.3,2.666,1.133-4.466.467,0,.333-1.5,0-1.1.467-2.866,0,.3-.433,3.333-.433,3.333,0,1.233.667-3.166.667-2.3a31.24,31.24,0,0,1,.7-3.6c0,.3-.5,3.333-.667,3.9v-.433a7.854,7.854,0,0,0-.3,1.433v-.767a16.65,16.65,0,0,1-.233,2,8.3,8.3,0,0,0,.267-1.667v.833A7.731,7.731,0,0,1,4.7,15.045c0,1,.333-1.467.5-1.8-.167,1.2-.533,2.833-.233,1.866a15,15,0,0,1-.5,2.7c.367-1.466,0,1.033,0,1.3l-.167.633c0-.366,0-.366.167-.333L4.7,17.845a4.632,4.632,0,0,1,0,.933c.2-1.033.433-2.6.733-4,0,.8.3-.8,0,1.267,0-.733-.367,2.066-.533,2.366h0v.533c-.2,1.867.467-2.3.6-2.233a11,11,0,0,0-.3,1.966,7.471,7.471,0,0,1,.167-1.1,7.9,7.9,0,0,1,.367-1.733c0,.933.2-.667.233-.533v-.433a3.9,3.9,0,0,1,.367-1.367c0,.9,0,.6-.233,1,.433-2.033-.233,2.166,0,.8a17.826,17.826,0,0,1-.467,2.733c.4-1.5,0,1.6.167.367a18.446,18.446,0,0,1,.533-2.7l-.367,1.067.5-2.233s-.267.967-.267.7c.3-1.266.2-.9.433-2.2-.367,2.366.367-1.333.167.267l-.7,3.866c-.2,1.766.567-1.933.567-.933v-.7c.3-1.533,0-.2.3-.8l-.433,2.566a15.761,15.761,0,0,0,.6-2.466L6.9,16.578c0,.733.833-3.666.867-3.333-.3,1.4-.4,2.333-.667,3.333,0,0,0,.233.2-.633,0,.8.433-1.733.233-.5a5.72,5.72,0,0,1,.4-1.8v.633c0-.633.233-.867.433-2.3-.6,4.066.433-.233,0,3.333a4.527,4.527,0,0,1,.433-.9v.533c0,1.2.767-3.7.633-2.333-.333,2.1-.267,1.1-.367,1.9-.8,4.266.267-.533,0,1.966v.233c-.2,1.467.467-1.566.533-1.267v.667a21.271,21.271,0,0,1,.967-3.333c-.333,1.633-.2.866-.5,2.566,0-.233.5-2.733.667-3.333a24.562,24.562,0,0,1-.533,3.533h0c-.367,2.333,0,0,0,.367l-.2,1c.2-.3.7-2.866.8-2.666v-.767c.567-2.533-.2,1.433.233-.433l-.467,2.6c.167-.633.667-2.466.833-2.933-.4,1.9-.7,2.866-.967,3.966,0,0,.2,0,.467-1.4,0,.233-.2.867,0,.466a11.464,11.464,0,0,1,.833-2.966c-.967,5.033,0,1.333-.633,5.233.533-1.8.2.867.467.6.667-3.9,0,0,.833-4.1h0l-.333,2.4c-.167,1.167-.2.867-.367,1.766,0,.333-.3,1.7-.433,2.8.267-1.433.433-2.066.4-1.5l.267-1.867c.567-2.1-.5,3.333,0,1.3l-.267,1.267a9.731,9.731,0,0,0,.967-3.133,18.521,18.521,0,0,1-.367,1.866c0,.5,1.1-3.333.833-1.333l-.2.966c0-.266.433-1.833.267-.833a5.521,5.521,0,0,1-.2,1.033c0,.067.433-1.7.367-1.133l-.267,1.1c0,1.333.833-2.633,1.1-3.333a29.191,29.191,0,0,0-.633,4.333v.4a34.474,34.474,0,0,0,1.233-3.333c-.5,3.133.167,1.367,0,3.333a19.672,19.672,0,0,1,.533-2.533c0,.6.533-1.966,0,.667h0c-.467,2.566-.267,1.9-.2,2l.7-3.333c-.8,5.066.9-1.733,0,2.766l.467-1.667L15.9,20.344c0,.5,0,.767.3.333l-.3,1.333s1.2-5.333,1.3-5.4l-.533,2.766c.167,0,0,2.433.5,0a5.8,5.8,0,0,1-.3,1.3c-.033.1,0,1.9.633-1.866-.5,2.466,0,.267.433-.8l-.4,1.8c.567-2.3.7-2.933.933-3.566,0,.233-.3,1.467-.233,1,0,.967.433-1.733.333-.733l-.3,1.167a11.965,11.965,0,0,0,.5-1.833c.2-.733,0,.5-.267,2.133.233-1,.533-2.333.5-1.833l-.267,1.167c0,1.267.633-2.066.367-.266l-.2,1.1a.266.266,0,0,1,0-.3c-.367,1.666-.333,1.966-.867,4.266.333-1.233,1-3.966.933-3.166v.6h0v-.267a4.914,4.914,0,0,1,0,.533c-.267,1.4,0,.767,0,.833.367-1.833.367-1.533.633-3.033a1.129,1.129,0,0,1,0,.267v.2h0c.233-.933.433-1.7.267-.667l.667-2.966c-.433,2.6-.667,4-.967,5.566a15.96,15.96,0,0,0,1.267-4.033,11.348,11.348,0,0,1-.267,1.533,4.859,4.859,0,0,0-.2.767,14.844,14.844,0,0,0,.8-2.7c0,1.1-.533,2.2-.3,1.833l-.167.733c-.567,3.9,1.7-6.066.933-1.067l.167-.867c0,2.233,1.1-1.9.667,1.6,0,.733.3-.8.6-1.966l-.4,1.966.567-2.266c.5-1.633-.8,4.9,0,1.767l.267-1.333c0,.266.333-.733,0,.8,0-.233.333-1.367.2-.7l-.2,1.033.5-1.733c0,.767-.867,4.1-.767,4.333.167-.4.833-2.966.967-3.666a8.521,8.521,0,0,1,.3-1.7v-.5c.667-3.033,1.366-6.133,1.7-8.3l-.5,1.833.267-1.467h0c.267-1.4,0,0-.267.667l.333-1.633L25.3,7.812c.233-1.2.533-2.333.633-3-.333,1.333-.533,2.666-.8,3.533.233-1.4.5-2.5.2-1.333A12.841,12.841,0,0,1,25.7,5.379a13.336,13.336,0,0,0-.6,1.967c.333-1.7-.267.433.367-2.466A19.791,19.791,0,0,1,24.8,7.246c.833-3.333,0-.233.7-3.933-.733,3.1-.533,1.333-1,3.033,0-.233.167-.733,0-.567s.2-1.2.267-1.8C24.231,6.512,24,7.079,23.6,8.645c.467-2.466.7-2.966,1.167-5.366-.433,2.1-.567,2.066-.9,3.8a18.385,18.385,0,0,1,.533-2.9,25.075,25.075,0,0,1-.633,2.5c.233-1.6.6-3,.3-2.033A4.962,4.962,0,0,1,24.031,2.312ZM20.7,7.445Zm-.2,0h0a12,12,0,0,1-.267,1.266,12.1,12.1,0,0,0,.233-1.3Zm-2.233,12.8v0Z" transform="matrix(0.883, -0.469, 0.469, 0.883, 1315.036, 247.166)" fill="#8564d5"/>
    <path id="Path_75790" data-name="Path 75790" d="M27.281,9.233a35.155,35.155,0,0,0-2.2,3.133c-.5.5.966-1.533,1.633-2.6-.433.467-1.733,2.333-1.733,2.2a3.623,3.623,0,0,1,.6-.867c-1.167,1.567-.267,0-1.733,1.9a4.337,4.337,0,0,0,.333-.5l-1.866,2.8h0a6.3,6.3,0,0,0,.667-.9l-.433.567a21.232,21.232,0,0,1,1.467-2.033c-.533.566-1.7,2.066-1.367,1.5,1.233-1.9.567-.533,1.6-2.266l-.4.8c1.933-3,0,.233,2-2.966.267-.633-.767.867-.533.233-.733,1-1.033,1.533-1.766,2.566-1.433,1.733,3.066-4.8,1.233-2.4-.867,1.233-2.5,3.566-1.733,2.266l1.467-2.1c0-.3-2.133,3-1.3,1.5a7.515,7.515,0,0,1,.733-.9c1.033-1.733-.9,1.167-.967,1.1L24.248,10.4c-.333.2-1.367,1.466-1.766,1.7a19.69,19.69,0,0,0,1.167-1.733c-.8.833-.233-.467.367-1.7l-1.167,1.567.7-1.067c.333-.633-.7,1.033-1.167,1.666A6.9,6.9,0,0,1,23.315,9.4c-1.067,1.267-2.333,2.7-1.3.9l.367-.467c.333-.733-2.366,3.333-1.433,1.666l.2-.267c.267-.867-.967.467.533-2.066-1.633,2.3.5-1.2-1.733,2.033.967-1.667,1.4-2.233,1.966-3.333,0-.2-1.433,1.966-1.733,2.266l1.167-1.7-1.3,1.733L21.382,8.1l-.333.4-.833,1.3c-.6.7.6-1.333,1.2-2.2L20.249,8.9c.467-.667.667-.9.967-1.3-1.267,1.667,1.2-1.8,0-.266l-.933,1.333c.667-1.067.567-1.133,0-.767l.833-1.167c0-.4-.7.367-.833.233a27.468,27.468,0,0,1-1.9,2.766l1.2-1.8c-.767,1.1-.4.7-1.4,2.033a31.669,31.669,0,0,1,1.8-2.633l-.5.567c.333-.533.567-.8,1.033-1.5-.8,1.1,1.1-1.9-.267,0l.367-.533a3.449,3.449,0,0,1-.867.433c-1.033,1.533-.867,1.167-1.733,2.4.233-.567.933-1.867.733-1.8-.6.7-.9,1.3-1.566,2.2.933-1.433.733-1.367,1.5-2.366-.3,0-.4,0-1.333,1.2-.367.6-.533.867-.867,1.333s.333-.633.8-1.333h0c-1.633,2,2.333-4.433.167-1.6h0l-1.2,1.433c0-.3.767-1.033,1.3-1.933-1.766,2.233,0-.533-1.233.933,2.7-4.266-.633,0,1.033-2.766l-.667,1c-.667.933.333-.6.467-.833L16.216,5.6c-1.133.933.267-1.9.533-3.033,0-.333-3.533,5.033-2.1,2.566l1.3-1.767c-1.733,2-.467-.433-2,1.233l.7-.933c.867-1.333,0-.2-.867.9a16.692,16.692,0,0,1,1-1.567c.467-.8-1.3,1.6-.433.267l.4-.5c-.467.6,0-.267-1.067,1.267.4-.8-.633.567,0-.4-1.2,1.7.4-.933-1.233,1.5,1.7-2.5,1.2-2.133.333-1,.533-.733.467-.833,1.2-1.866A6.9,6.9,0,0,0,12.683,4c1.9-3.1-1.9,2.233.633-1.667a23.306,23.306,0,0,1-2.5,2.466c1.7-2.5.367,0,2.133-2.733-.867.9-2.4,2.966-2.166,2.266a5.416,5.416,0,0,1,1.067-1.5c-.867.933,0-.433-1.233.833A5.778,5.778,0,0,1,11.083,3s.2-.4-.567.733l.233-.3C9.683,5.1,8.284,6.766,7.717,7.633c2.233-3.333.4-.9,3.333-4.933,0,.2-.533.7-1.033,1.467a11.074,11.074,0,0,1,1-1.533c-.5.533-1.3,1.766-1.367,1.7.367-.567.533-.767.967-1.4C9.85,3.966,9.083,5,9.317,4.5a2,2,0,0,1,.533-.767c.033,0-2.166,2.7-1.633,1.567,1.666-2.366.467-.833,1.866-2.9l-.5.567L8.95,4s-1.133,1.367-.733.633l.633-.8-.4.3-.467.833c-.8,1-1.766,2.6-1.467,1.966a10.684,10.684,0,0,1,.733-1.3h0c-.467.633-1,1.3-.7.767S8.117,4.133,8.384,3.667c-1.2,1.7-.467.366-1.767,2.166.3-.4,1.033-1.5,1.2-1.7l-1,1.367c.267-.467.433-.7,1-1.533,0-.333-1.733,2.633-1.1,1.4l.4-.5c.267-.667-.833.733-.467,0,1.367-2.1.433-.433,1.566-2.233-.4.267-2,2.266-1.833,1.667v.267c-2,2.9.867-1.533,0-.2.167-.2,1.133-1.6.9-1.3.2-.533-.7.6-1.5,1.4l.533-.733c.4-.733,0-.5.267-.9a18.8,18.8,0,0,0-1.2,1.7C8.084.1,3.417,6.566,5.651,2.866l.5-.633-.633.6a20.408,20.408,0,0,0-1.133,1.8A9.811,9.811,0,0,1,3.351,5.9,28.558,28.558,0,0,0,5.184,3.1c-.233.4-.567.833-.833,1.233,1.466-2.333-1.733,2.533-.8.933L3.984,4.6c-.267.333-.9,1.2-.8.967.966-1.5.5-.667,1.333-1.866,0,0-2.033,2.7-1.1,1.2.3-.4.367-.366.667-.767,1.1-1.767.8-1.333.933-1.633h0l.4-.867-.267.5c-2.7,3.766-.667.6-2.466,3.033,1.733-2.333.933-1.367,2.1-3.033a14.086,14.086,0,0,1,.933-1.5c-.967,1.333.633-1.1-.8.8.367-.533,0,0,.933-1.433a19.334,19.334,0,0,0-1.1,1.633c-1.333,1.767,1.267-2.4-.567,0-.833.933-2.1,2.733-2.833,3.566.567-.9,1.367-1.933,1.367-1.933.467-.833.333-.733,0-.167.333-.433.567-.867.967-1.467,0,0-1.367,1.933-.9,1.1L4.317.6c-.4.467-1.133,1.433-1.533,1.867.633-.933,1-1.4,1.433-2a19.289,19.289,0,0,0-1.767,2.2l-.3.567A17.606,17.606,0,0,1,3.184,1.7c.867-1.133-.267.567-.633,1.1l-.267.333c-2.1,3.166.5-.4.467-.166l-1.6,2.266L2.551,3.4c-.4.6-1.267,1.9-1.533,2.2-.7,1.2.6-.767-.2.533l-.267.4L1.084,5.9c-.333.467-1.1,1.6-.9,1.267-.8,1.4,1.333-1.6.2.167h0c.667-.7,1.133-1.7,2.6-3.6L.218,7.933,1.384,6.266a3.964,3.964,0,0,1-.533.9c.833-1.133.467-.733,1.267-1.8-.967,1.566.667-.6-1.133,2.1A20.17,20.17,0,0,1,2.284,5.6c-1.933,2.9.4-.433-.433.933A15.53,15.53,0,0,0,.484,8.566c1.733-2.5-.267.633,0,.166C1.851,6.733,1.151,8,1.717,7.4a13.932,13.932,0,0,0-.966,2l-.233.333C1.884,7.7,1.717,8.166,2.084,7.8L.518,10h0a10.435,10.435,0,0,1,.9-1.2L.384,10.3s1.367-1.666.8-.567c.967-1.4,2.566-4,3.333-4.866-.533.767-1.4,2.066-1.633,2.366s.467-.6.267-.267L2.217,8.233c-.333.6.767-1.067.7-.933-.733,1.1-.5.8-1.067,1.667h0A18.234,18.234,0,0,1,.818,10.732c.433-.633,1-1.466,1.133-1.6s-.867,1.333-1.2,1.933A17,17,0,0,0,1.917,9.5l-.8,1.233A6.433,6.433,0,0,0,2.584,8.9h0c1.233-1.533-.333,1.1.267.5l-.367.533a8.87,8.87,0,0,0,1.3-1.366,17.247,17.247,0,0,1-1.067,1.667c.333-.367.767-.967.233,0s-.533.867-.533.667c-.233.5-.8,1.4.3,0-1,1.366-1.133,1.8-.833,1.4l.633-1.033h0l-1.267,1.8c-1.333,2.366,2.866-3.566.467.233.933-1.233.533-.967,1.6-2.433a30.423,30.423,0,0,1-1.8,3.033c-.567,1.067,1.933-2.633,1.566-1.866.433-.667,1.6-2.4,2.1-2.966A30.65,30.65,0,0,1,3.017,12.4a.65.65,0,0,1,.233-.4,8.1,8.1,0,0,0-.867,1.2l.467-.633a13.329,13.329,0,0,1-1.033,1.767A6.271,6.271,0,0,0,2.751,12.9c-.533,1,0,0-.167.833A11.566,11.566,0,0,1,3.317,12.6c-.4.9.9-1.2,1.2-1.4-.6,1.033-1.633,2.366-.967,1.6-.4.7-1.167,1.733-1.533,2.266.933-1.2-.4.933-.5,1.2l-.4.5c.233-.3.233-.267.267-.267l.867-1.3a5.162,5.162,0,0,1-.466.8c.6-.833,1.433-2.2,2.3-3.333-.433.7.6-.633-.567,1.133.267-.7-1.167,1.733-1.467,1.933s.167-.167,0,0l-.333.433c-.933,1.633,1.367-1.9,1.466-1.8a9.431,9.431,0,0,0-1.067,1.7A24.647,24.647,0,0,1,3.751,13.7c-.433.8.467-.533.467-.4l.2-.4a7.425,7.425,0,0,1,.867-1.1c-.5.767-.4.5-.6.867,1.233-1.7-1.067,1.866-.2.767-.4.667-1.233,1.833-1.533,2.3.967-1.2-.8,1.4,0,.433a27.694,27.694,0,0,1,1.6-2.266l-.8.833L5.15,12.9s-.667.733-.533.5a14.831,14.831,0,0,0,1.266-1.833c-1.266,2.033.9-1.066,0,.334L3.651,15.232c-.867,1.533,1.333-1.533.933-.633l.333-.6c.9-1.267.233,0,.633-.6-.733,1.1-1,1.5-1.433,2.2a17.765,17.765,0,0,0,1.567-2.033l-.9,1.5c-.3.666,2.233-3,2.1-2.566-.833,1.167-1.333,1.966-1.966,2.766,0,0,0,.266.433-.5-.433.7,1.1-1.4.433-.333.367-.467,1.133-1.6,1.1-1.5l-.367.567c.367-.567.567-.7,1.367-1.933-2.2,3.333.5,0-1.367,2.966.333-.3.667-.6.8-.6s-.367.533-.333.4c-.567,1.1,2.2-3.066,1.566-1.866-1.133,1.8-.733.9-1.133,1.6-2.4,3.6.467-.4-.867,1.766l-.167.2c-.767,1.267,1.067-1.267,1-.933l-.367.533a22.262,22.262,0,0,1,2.3-2.733c-.966,1.366-.533.7-1.5,2.166.2-.2,1.533-2.3,1.9-2.666-.5.8-.867,1.5-1.9,3.033h0c-1.3,2,0,0,0,.367l-.6.866c.3-.2,1.8-2.366,1.8-2.1L9.45,13.9c1.533-2.1-.733,1.233.4-.3L8.417,15.8c.4-.5,1.6-2,1.966-2.333C9.217,15.032,8.55,15.8,7.85,16.8c0,0,.267,0,1.033-1.1-.167.2-.567.7-.333.367C9.75,14.4,10.417,13.6,10.483,13.7c-2.9,4.2-.467,1.233-2.633,4.566,1.233-1.433,0,.9.267.766a29.716,29.716,0,0,1,2.4-3.333c.167-.167.167,0,0,0L9.284,17.8c-.633,1-.567.7-1.067,1.467s-.933,1.467-1.466,2.4c.8-1.2,1.2-1.7.967-1.2l.967-1.6c1.367-1.7-1.8,2.9-.467,1.233L7.45,21.132c.5-.6.267.2,2.166-2.466a18.261,18.261,0,0,1-1.033,1.566c0,.5,2.333-2.633,1.333-.867l-.567.8c.2-.2,1.1-1.5.6-.633a8.625,8.625,0,0,0-.6.866c.2-.267,1.067-1.4.767-.866l-.633.9c-.567,1.2,1.766-2.1,2.3-2.567A23.072,23.072,0,0,0,9.55,21.632l-.233.333c0,.433,1.7-1.8,2.533-2.6-1.667,2.7-.367,1.367-1.2,2.966.267-.467,1.3-1.9,1.5-2.133-.3.533,1.267-1.6-.267.633h0c-1.467,2.2-.967,1.7-.933,1.8l1.966-2.9c-2.7,4.366,1.533-1.233-.933,2.633.533-.7.567-.667,1.133-1.366L12.05,22.565c-.167.467-.233.733,0,.433l-.767,1.1c0,.167,3.133-4.433,3.333-4.466L13.05,22s-1.067,2.2.5.2l-.767,1.067s-.8,1.766,1.333-1.467c-1.4,2.1,0,.333.733-.533L13.783,22.8a27.239,27.239,0,0,1,2.233-2.933c0,.2-.833,1.233-.6.8-.467.867,1.067-1.4.6-.533l-.7.966c0,.167.333-.366,1.167-1.466s0,.467-1.067,1.867c.6-.833,1.4-1.933,1.167-1.5a10.045,10.045,0,0,1-.7,1c-.567,1.133,1.4-1.667.467,0l-.6.933a.3.3,0,0,1,0-.366C14.783,23,14.683,23.3,13.283,25.2c.8-1,2.5-3.333,2.1-2.533l-.3.5v.167l.2-.2c.2-.2-.233.433-.2.466-.8,1.167-.333.7-.333.767,1.033-1.533.933-1.267,1.733-2.566l-.2.233h0c.567-.766,1.067-1.4.5-.5l1.767-2.466c-1.4,2.2-2.1,3.333-3,4.766A14,14,0,0,0,18.316,20.5a11.4,11.4,0,0,1-.833,1.333l-.5.633a10.437,10.437,0,0,0,1.8-2.166c-.533.967-1.333,1.833-.967,1.6l-.467.6c-1.933,3.333,3.933-4.933,1.367-.567.167-.266.233-.4.467-.733-.967,2.033,1.8-1.3,0,1.8-.3.667.6-.633,1.3-1.6l-1.1,1.7,1.4-1.867c1.067-1.333-2.566,4.233-.6,1.667l.733-1.133c0,.266.633-.533-.233.766,0-.2.8-1.167.433-.567l-.6.867,1.167-1.4c-.333.7-2.366,3.333-2.333,3.733a37.815,37.815,0,0,0,2.266-3.033,11.689,11.689,0,0,1,.9-1.433l.367-.433c1.733-2.566,3.566-5.166,4.666-7.033l-1.167,1.5.8-1.266h0c.767-1.2,0,0-.467.5.433-.667.733-1.133.867-1.4l-1.733,2.4c.667-1,1.366-1.967,1.7-2.566-.833,1.133-1.5,2.3-2.066,3,.733-1.2,1.4-2.133.667-1.2a11.923,11.923,0,0,1,.967-1.333,9.431,9.431,0,0,0-1.3,1.6c.933-1.467-.4.267,1.233-2.166-.4.567-1.367,1.833-1.467,1.933,2.033-2.866,0-.3,2.066-3.333-1.833,2.566-1,1.033-2.066,2.4,0-.2.433-.6.367-.467a12.413,12.413,0,0,1,.9-1.567c-1.466,2.133-1.9,2.566-2.866,3.866,1.367-2.133,1.766-2.5,3.1-4.533-1.167,1.766-1.3,1.667-2.266,3.166.833-1.333.367-.667,1.566-2.466-1.833,2.7-.367.4-1.533,2.033.833-1.367,1.7-2.533,1.067-1.767a15.828,15.828,0,0,1,1.367-2.333Zm-5.2,3.333Zm-.2,0h0c-.367.533-.733,1.1-.733,1.067a11.969,11.969,0,0,0,.733-1.2Zm-6.933,11c-.167.2,0,0,.233-.433h.2v-.2c-.1,0-.267.3-.433.5Z" transform="matrix(0.883, -0.469, 0.469, 0.883, 1277.302, 270.336)" fill="#8564d5"/>
    <path id="Path_75791" data-name="Path 75791" d="M16.165,1.679s-1.4,1.966-2.233,3.133c-.433.533,1.033-1.5,1.766-2.533L14.032,4.545l.6-.867c-1.133,1.6,0,0-1.533,2.033l.333-.5L11.5,7.978h0a7.312,7.312,0,0,0,.667-.867l-.433.533c1.333-1.9.467-.633,1.467-2.033-.467.6-1.567,2.166-1.2,1.6,1.3-1.833.467-.6,1.6-2.233l-.467.7c2.033-2.933,0,.233,2.033-2.9.367-.566-.7.9-.333.333l-1.8,2.566c-1.367,1.8,3.333-4.7,1.466-2.233-.867,1.233-2.533,3.566-1.666,2.3l1.467-2.1c0-.2-2.133,3-1.167,1.567.567-.8.5-.667.667-.9,1.167-1.667-.833,1.167-.867,1.167l1.3-1.866c-.233.266-1.2,1.566-1.467,1.9l1.2-1.7c-.7.9,0-.3.8-1.433L13.6,3.979l.733-1.033c.4-.633-.7,1-1.167,1.633,0,0,.633-.933,1-1.4-1,1.333-2.166,2.866-.967,1.133l.333-.467c.433-.667-2.333,3.333-1.3,1.733l.2-.267c.433-.733-.667.7,1-1.767-1.633,2.3.667-1.067-1.6,2.166l2.233-3.333s-1.433,2-1.7,2.333l1.2-1.7L12.3,4.778l1.4-2.033-.3.433-.867,1.233A17.925,17.925,0,0,1,13.9,2.345l-1.033,1.4L13.8,2.412c-1.233,1.7,1.267-1.766,0-.2-.267.367-.7,1-.967,1.333.733-1.033.7-1.067.367-.633l.833-1.167c.167-.3-.467.5-.5.467-.367.533-1.766,2.533-1.933,2.733l1.267-1.766c-.8,1.067-.467.667-1.433,2a20.528,20.528,0,0,1,1.833-2.6l-.467.6,1.067-1.467c-.8,1.1,1.2-1.833,0,0l.367-.533s-.467.533-.567.6L11.932,4.212c.3-.5,1.133-1.733,1-1.633-.533.767-.9,1.3-1.566,2.2,1-1.4.867-1.267,1.6-2.266a9.173,9.173,0,0,0-1.1,1.333l-.9,1.333c0,.2.4-.6.867-1.3h0C10.3,5.945,14.6-.254,12.5,2.612h0l-1.1,1.5a11.167,11.167,0,0,1,1.333-1.933c-1.666,2.3.167-.367-.933,1.133,2.866-4.133-.333.233,1.5-2.433l-.7.967c-.667.967.4-.533.533-.767-.533.733-.6.867-.967,1.4-.9,1.1.833-1.533,1.367-2.466a29.786,29.786,0,0,0-1.966,2.666l1.267-1.8c-1.566,2.1,0-.167-1.4,1.633.267-.433.667-.966.667-.966.9-1.3,0,0-.767.966,0,0,.7-.966,1.067-1.5s-1.2,1.633-.3.333l.367-.5a11.828,11.828,0,0,0-.967,1.3c.467-.733-.533.667,0-.266-1.2,1.7.533-.833-1.167,1.567,1.733-2.466,1.367-2.033.533-.867L12.132.746,10.865,2.512c2.033-3-1.733,2.333.9-1.466l-2.1,2.7c1.733-2.466.233-.2,2.033-2.8-.767,1-2.266,3.066-1.9,2.466s.767-1.067,1.067-1.5c-.733,1,0-.267-.9,1.033l.467-.667L9.9,3.045l.233-.3C9,4.378,7.7,6.078,7.1,6.978c2.266-3.333.533-.833,3.333-4.866L9.366,3.578l1.067-1.5-1.3,1.733,1-1.366a14.98,14.98,0,0,1-1.2,1.6c.233-.3.5-.733.5-.733S7.4,6.078,8.1,5.045c1.666-2.333.533-.8,1.966-2.833l-.467.6-.667,1s-1.067,1.433-.6.733l.6-.833-.3.367-.533.8c-.767,1.033-1.833,2.566-1.433,2A9.361,9.361,0,0,1,7.5,5.611h0c-.467.633-.967,1.333-.6.8L8.766,3.745c-1.2,1.7-.367.433-1.666,2.233l1.233-1.7-1,1.367L8.4,4.145c0-.267-1.8,2.566-1.067,1.433l.4-.5c.367-.6-.7.833-.233,0L9.066,2.845c-.3.366-1.8,2.4-1.5,1.9v.233c-2.066,2.866.967-1.466,0,0a8.417,8.417,0,0,1,.9-1.3A12.571,12.571,0,0,0,7.233,5.245l.533-.733A4.2,4.2,0,0,0,8.2,3.745L7,5.445c2.933-4.266-1.7,2.2.733-1.367L8.2,3.445l-.5.667L6.466,5.845a9.333,9.333,0,0,1-.967,1.3c.633-.8,1.433-2,1.933-2.7l-.867,1.2c1.567-2.266-1.766,2.533-.733,1L6.3,5.978c-.267.333-.867,1.2-.767,1L6.866,5.111S4.9,7.844,5.9,6.378c.3-.4.333-.4.6-.8A12.946,12.946,0,0,0,7.566,4.011h0L8.1,3.245l-.333.467c-2.7,3.766-.533.667-2.3,3.133,1.7-2.333.967-1.367,2.133-3.033.3-.467.667-.967,1-1.433-.967,1.333.7-1.067-.667.867.367-.533,0,0,.967-1.4-.333.433-.667.933-1.133,1.6-1.3,1.8,1.5-2.233-.3.233-.733,1-2,2.8-2.666,3.666L6.166,5.411c.533-.8.433-.667,0,0L7.2,3.945S5.833,5.878,6.366,5.078s1.1-1.533,1.5-2.1c-.333.467-1.067,1.433-1.4,1.933.633-.933,1-1.4,1.433-2-.333.4-.633.8-1.667,2.266l-.367.533L6.933,4.178c.833-1.133-.333.533-.7,1.066l-.267.333c-2.166,3.1.4-.5.3-.3l-1.6,2.266L6,5.678c-.4.6-1.3,1.866-1.567,2.2-.767,1.133.6-.8-.267.467l-.267.4.467-.667c-.333.467-1.1,1.6-.9,1.267-.9,1.3,1.233-1.666,0,0h0c.6-.733,1.2-1.633,2.6-3.566l-2.9,4.1,1.2-1.666-.6.867c.833-1.133.5-.733,1.267-1.8a16.945,16.945,0,0,1-1.3,1.967c.9-1.233.667-.967,1.3-1.833-2,2.866.367-.467-.533.833l-1.433,2c1.766-2.466-.333.567,0,0a8.34,8.34,0,0,1,1.1-1.433c-.467.667-.7,1.1-1.2,1.833l-.233.333a22.749,22.749,0,0,1,1.466-2l-1.566,2.2h0l.867-1.2-1.067,1.5s1.3-1.733.6-.7c1-1.4,2.733-3.9,3.333-4.833L4.7,8.311l.2-.3L4,9.278c-.367.567.767-1.066.7-.933l-1.133,1.6h0L2.433,11.611c.433-.633,1-1.467,1.133-1.6s-.933,1.3-1.3,1.866L3.4,10.311l-.833,1.2a10.143,10.143,0,0,0,1.4-1.9h0c1.167-1.6-.567.933,0,.3l-.367.533c.433-.6.3-.333,1.1-1.5,0,0-.667,1-1.133,1.633.3-.4.733-1,0,0s-.567.867-.5.7c-.3.467-.9,1.333,0,0-1,1.4-1.233,1.766-.933,1.366l.7-1h0l-1.3,1.8c-1.5,2.233,2.733-3.7,0,0,.9-1.267.6-.9,1.667-2.366L1.233,13.944c-.7,1.033,1.866-2.633,1.433-1.933l2.1-2.966A37.5,37.5,0,0,1,2.5,12.377l.267-.367L1.9,13.21l.467-.633c-.467.667-.4.633-1.133,1.666l.967-1.4c-.633.967,0,0-.4.7.267-.333.767-1.1.767-1.1-.5.833.9-1.233,1.133-1.467-.7.967-1.666,2.333-1.067,1.533l-1.6,2.233c.9-1.233-.533.833-.667,1.1l-.367.5.2-.267.933-1.3c0,.2,0,.233-.533.767.6-.833,1.5-2.166,2.333-3.333-.467.667.533-.7-.7,1.033.4-.6-1.2,1.733-1.4,1.966s0-.167,0,0l-.3.433C-.533,17.21,1.9,13.711,1.9,13.777L.767,15.41l1.666-2.333c-.5.767.4-.567.367-.467l.233-.367.833-1.133-.6.867c1.2-1.7-1.2,1.766-.4.633-.433.667-1.267,1.833-1.566,2.266.9-1.233-.9,1.367-.167.333l1.6-2.233-.667.867L3.4,11.977l-.433.567c.767-1.033.533-.733,1.267-1.8-1.333,1.966.833-1.1,0,.2L1.967,14.277c-1,1.467,1.2-1.6.667-.767l.4-.566c.9-1.3,0-.167.533-.7l-1.5,2.166,1.5-2.066-1,1.433c-.367.6,2.2-3.033,1.966-2.666L2.566,13.877s0,.233.4-.533c-.467.7,1.033-1.433.333-.4l1.067-1.5A5.666,5.666,0,0,1,4,11.977c.367-.533.533-.7,1.367-1.9-2.333,3.333.233-.2-1.766,2.7l.633-.733c-.233.333-.4.533-.3.433-.7,1,2.166-3.1,1.433-1.933-1.233,1.733-.7.9-1.133,1.566-2.5,3.566.367-.433-1.067,1.633l-.167.2c-.833,1.233,1-1.3.833-1.033l-.367.533c1.3-1.8,1.733-2.366,2.133-2.866L4.066,12.71c0-.167,1.6-2.233,1.9-2.633L3.933,13.01h0c-1.333,1.966,0,0,0,.3l-.6.867c.233-.267,1.733-2.4,1.666-2.233l.433-.633c1.5-2.1-.833,1.2.3-.367l-1.5,2.166c.367-.533,1.5-2.066,1.8-2.433l-2.4,3.333a9.058,9.058,0,0,0,.9-1.167c-.167.2-.533.7-.3.367,1.2-1.667,1.8-2.5,1.8-2.433C3.1,14.943,5.366,11.877,3.1,15.11c1.133-1.5-.4.733-.167.5,2.266-3.333,0,0,2.433-3.333h0L4,14.277c-.667,1-.533.733-1.067,1.5a17.559,17.559,0,0,1-1.566,2.3c.833-1.2,1.2-1.7.9-1.233L3.333,15.31c1.267-1.766-1.966,2.8-.667,1.067L1.9,17.41a23.508,23.508,0,0,0,1.967-2.566c-.267.367-.9,1.3-1.1,1.533s2.1-2.8.967-1.133l-.567.833c.167-.233,1.1-1.533.533-.7l-.6.867c.2-.3,1.033-1.433.7-.933l-.667.9c-.7,1.1,1.633-2.2,2.066-2.733C3.5,15.877,3,16.81,2.733,17.11l-.233.333c-.167.333,1.5-1.933,2.2-2.866-1.8,2.633-.667,1.167-1.666,2.666l1.5-2.1c-.333.5,1.2-1.633-.367.533h0c-1.5,2.166-1.067,1.6-1.1,1.667L5.1,14.477c-2.9,4.233,1.2-1.467-1.433,2.3l1.067-1.4-1.1,1.566c-.267.4-.367.6,0,.267l-.8,1.1S6,13.877,6.166,13.81l-1.6,2.3h0L3.8,17.21S2.766,18.81,5,15.643c-1.466,2.066,0,.233.533-.667l-1.067,1.5,2.6-3.3-.6.833c-.533.8,1.033-1.433.5-.6l-.7.967,1.1-1.533c.433-.6-.233.4-1.2,1.8L7.3,13.078l-.7,1c-.7,1.067,1.267-1.733.233-.233l-.633.933a.667.667,0,0,1,0-.267c-1,1.4-1.133,1.667-2.533,3.566.767-1.033,2.4-3.333,1.966-2.633l-.333.467v.167l.167-.2-.3.433c-.8,1.133-.4.633-.433.7l1.8-2.566a.734.734,0,0,1-.2.233v.167h0c.567-.8,1.033-1.433.433-.567l1.766-2.466c-1.5,2.133-2.3,3.333-3.333,4.633.633-.833.467-.533,2.5-3.333l-.9,1.267-.467.667c.533-.733.267-.266,1.666-2.266-.6.933-1.3,1.833-1.033,1.533l-.433.6c-2.233,3.333,3.7-5.066.867-.9l.467-.7c-1.2,1.866,1.366-1.6-.6,1.333-.367.6.533-.667,1.233-1.633L7.332,14.644,8.7,12.778c1-1.4-2.8,4.066-.9,1.467l.767-1.133c0,.233.5-.6-.4.667.167-.2.833-1.167.433-.567l-.6.867,1.067-1.466c-.4.633-2.4,3.333-2.5,3.633.267-.333,1.8-2.5,2.2-3.066,0,0,.367-.567,1-1.433l.3-.433,4.866-6.9L13.8,5.945l.867-1.233h0c.833-1.167,0,0-.4.533L15.2,3.879,13.465,6.312c.7-1,1.4-1.967,1.766-2.533l-2.1,2.966c.8-1.167,1.467-2.1.767-1.133l.967-1.366c-.567.8-.267.333-1.233,1.666,1-1.433-.3.333,1.4-2.066-.4.6-1.333,1.9-1.433,1.966,2.066-2.866,0-.2,2.266-3.333-1.833,2.566-.867,1.1-1.9,2.533,0-.2.433-.633.367-.5l1-1.5-2.8,3.933,3.166-4.5c-1.233,1.733-1.267,1.733-2.266,3.166l1.666-2.4c-1.9,2.666-.333.433-1.5,2.066.9-1.333,1.766-2.5,1.167-1.7C15.465,2.612,16.165,1.679,16.165,1.679ZM12.4,5.945Zm0,0h0l-.767,1.033a12.239,12.239,0,0,0,.7-1.033ZM5.033,16.611l.267-.4v-.367Z" transform="translate(1289.932 244.106) rotate(-110)" fill="#8564d5"/>
    <path id="Path_75792" data-name="Path 75792" d="M35.7,18.2v-.333h0l-.267.567-.5,1.1c-.167.3,0,0,.333-.733l.7-1.433c.233-.5-.2.333-.467.9a5.332,5.332,0,0,1-.567.967l.5-.933c-.9,1.733-.167,0-1.5,2.1l.267-.566L32.57,22.8h0a7.629,7.629,0,0,0,.6-.933l-.4.6a22.567,22.567,0,0,1,1.3-2.166c-.5.6-1.567,2.2-1.367,1.567,1.1-2,.6-.533,1.467-2.366l-.267.833c1.633-3.166,0,.267,1.733-3.133,0-.667-.8.9-.667.2L33.4,20.1c-1.4,1.8,2.6-5.066.9-2.566-.8,1.3-2.233,3.766-1.633,2.366L34,17.7c0-.333-1.933,3.133-1.3,1.533.567-.867.6-.667.7-.933.9-1.833-.8,1.2-.9,1.133l1.1-1.966c-.367.2-1.4,1.5-1.833,1.7C32.1,18.6,32.5,18,32.8,17.4c-.833.8-.467-.6,0-1.9l-1.1,1.6a9.707,9.707,0,0,1,.633-1.1c.267-.7-.633,1.067-1.1,1.7a7.537,7.537,0,0,1,.833-1.5c-1,1.333-2.333,2.766-1.466.867l.333-.5C31.2,15.8,28.7,19.9,29.5,18.264l.2-.3c0-.9-1.167.4,0-2.266-1.5,2.366.367-1.267-1.733,2.066a32.247,32.247,0,0,0,1.7-3.633c0-.167-1.4,2.033-1.7,2.333L29.037,14.7,27.8,16.465l1.233-2.133-.367.4a12.912,12.912,0,0,1-.733,1.333c-.633.7.433-1.4,1-2.3L27.7,15.032a15.443,15.443,0,0,1,1-1.3c-1.3,1.666,1.133-1.867,0-.333-.233.433-.667,1.033-.867,1.4.567-1.1.433-1.233,0-.867l.767-1.167c0-.433-.8.267-1.033,0a21.523,21.523,0,0,1-1.833,2.8l1.133-1.833c-.767,1.1-.367.733-1.333,2.066a17.036,17.036,0,0,1,1.7-2.666l-.5.533,1-1.5c-.767,1.1,1-1.933-.333,0l.333-.533c-.233,0-.733.367-1,.333-1.033,1.567-.9,1.167-1.766,2.4.167-.6.833-1.933.567-1.933q-.854,1.059-1.6,2.2A19.207,19.207,0,0,1,25.4,12.265c-.367,0-.467,0-1.5,1.067a11.581,11.581,0,0,1-.867,1.333c-.2.2.3-.667.767-1.333h0c-1.733,1.9,2.133-4.566,0-1.8h0L22.5,12.9c0-.333.8-1,1.333-1.933-1.9,2.133-.2-.633-1.5.767,2.733-4.233-.8,0,.833-2.9L22.5,9.8c-.733.9.333-.6.433-.833a12.3,12.3,0,0,1-.966,1.4c-1.3.8,0-2.133,0-3.333,0-.366-3.733,4.9-2.3,2.433l1.367-1.7c-1.9,1.833-.667-.633-2.366.9a7.91,7.91,0,0,1,.767-.9c.867-1.333-.233-.267-1.033.8a15.285,15.285,0,0,1,1.067-1.533c.367-.566-1.4,1.5-.5.2l.433-.5c-.533.6,0-.333-1.167,1.2.4-.8-.767.467-.2-.5-1.333,1.6.367-.967-1.433,1.333,1.833-2.366,1.267-2.1.3-1.033.6-.7.5-.8,1.3-1.8a6.676,6.676,0,0,0-1.467,1.6c2.033-3-2.133,2,.6-1.733a16.394,16.394,0,0,1-2.9,2.066c1.866-2.333.467,0,2.4-2.5-1,.8-2.733,2.7-2.533,1.933a10.661,10.661,0,0,1,1.2-1.367c-1.033.767-.3-.567-1.533.533a4.825,4.825,0,0,1,.533-.6s.2-.433-.667.633l.267-.233c-1.167,1.6-2.766,3.066-3.333,3.9,2.533-3,.4-.933,3.633-4.7a13.835,13.835,0,0,0-1.2,1.367A9.99,9.99,0,0,1,14.372,5.4c-.633.433-1.5,1.633-1.6,1.5l1.1-1.3c-.867.933-1.766,1.9-1.533,1.367a6.4,6.4,0,0,1,.6-.7c-.3,0-2.5,2.4-1.933,1.233a32.314,32.314,0,0,0,2.1-2.7l-.6.467-.7.967s-1.333,1.2-.9.5l.733-.7-.5.2-.5.8c-.933.9-2,2.433-1.7,1.8s0,0,.8-1.3h0c-.533.567-1.133,1.167-.833.633L11.04,5.633c-1.4,1.566-.633.266-2.1,1.9.333-.4,1.167-1.4,1.367-1.6L9.173,7.2a10.605,10.605,0,0,1,1.133-1.433c0-.367-2,2.433-1.267,1.267l.433-.467c.3-.7-1.033.533-.633-.233,1.566-1.966.533-.367,1.833-2-.5,0-2.4,1.867-2.233,1.233v.267c-2.333,2.633.967-1.467-.233-.3.2-.166,1.333-1.467,1.067-1.167.2-.567-.867.4-1.833,1.033l.633-.667c.433-.667,0-.533.267-.933A13.8,13.8,0,0,0,6.907,5.333c3.133-4.133-2.4,1.566.2-1.867l.6-.567-.767.433C5.907,4.5,6.34,4.066,5.573,5S4.407,6.133,4.34,6.066a18.462,18.462,0,0,0,2.2-2.5l-1,1.067c1.733-2.133-2.066,2.3-1,.8l.533-.6c-.333.267-1.1,1-1,.767,1.167-1.333.633-.567,1.6-1.633,0,0-2.433,2.333-1.333.933.4-.333.433-.267.8-.6,1.333-1.633.967-1.267,1.133-1.566h0l.5-.833-.367.467C3.074,5.7,5.607,2.8,3.44,4.9a29.594,29.594,0,0,0,2.5-2.666,14.5,14.5,0,0,1,1.1-1.4C5.873,2,7.807-.2,6.107,1.467A15.141,15.141,0,0,1,7.173.167,15.324,15.324,0,0,0,5.874,1.6C4.24,3.133,7.373-.667,5.14,1.4c-1.033.767-2.566,2.333-3.333,2.966A17.532,17.532,0,0,1,3.474,2.7c.567-.8.367-.733-.2-.267.4-.4.7-.767,1.167-1.3-.167,0-1.666,1.667-1.1.9L5.207.2,3.34,1.733A20.419,20.419,0,0,1,5.107,0a10.006,10.006,0,0,0-2.2,1.8l-.4.533S3.574,1.2,3.807.967C4.84.034,3.507,1.533,3.04,2l-.333.267c-2.566,2.833.667-.233.6,0L1.374,4.233l1.7-1.567A18.186,18.186,0,0,1,1.207,4.633c-.833,1.066.767-.667-.2.533L.674,5.5l.633-.533C.907,5.4-.026,6.433.207,6.1c-.933,1.3,1.666-1.3.3.267h0c.833-.5,1.4-1.5,3.166-3.1L.341,7.066l1.4-1.5s0,.233-.667.833c1.033-.967.6-.667,1.533-1.6-1.133,1.467.867-.367-1.3,2.033,1.1-1.1.7-.967,1.533-1.667-2.3,2.6.533-.333-.433.933a13.89,13.89,0,0,0-1.7,1.8c2.133-2.2-.233.667.233.3,1.633-1.8.833-.567,1.533-1.067a8.831,8.831,0,0,0-1.1,2l-.3.3c1.666-1.8,1.5-1.366,1.933-1.633-1,1.067-1.4,1.5-1.866,1.933h0a7.745,7.745,0,0,1,1.067-1L.974,10.065c.2,0,1.666-1.4,1.033-.333A55.668,55.668,0,0,1,5.94,5.366c-.6.7-1.633,1.866-1.933,2.133s.567-.533.333-.233l-1.1,1.1c-.4.6.9-.933.833-.767L2.807,9.1h0a9.1,9.1,0,0,1-1.167,1.666c.5-.567,1.2-1.333,1.333-1.433s-1,1.233-1.367,1.8A11.11,11.11,0,0,0,2.974,9.766a14.557,14.557,0,0,1-.9,1.167c.633-.6.467,0,1.766-1.6h0c1.5-1.3-.3,1.233.467.767l-.433.5c.6-.467.533,0,1.567-1.133a10.582,10.582,0,0,1-1.233,1.566c.4-.266.9-.833.333,0s-.633.8-.633.567c-.267.533-.9,1.367.4,0-1.167,1.233-1.3,1.7-.9,1.367l.667-1c.233,0,.2,0,.167.2L2.774,13.832c-1.5,2.266,3.333-3.133.7.467,1.067-1.1.567-.933,1.8-2.266A11.292,11.292,0,0,1,4.24,13.6c-.467.7-.933,1.333-.933,1.333-.633,1.067,2.2-2.366,1.833-1.6A31.653,31.653,0,0,1,7.573,10.6a23.33,23.33,0,0,1-2.466,3.1.55.55,0,0,1,.233-.367,6.26,6.26,0,0,0-.967,1.1l.5-.6a6.666,6.666,0,0,1-1.1,1.7A4.727,4.727,0,0,0,4.84,14.2c-.567,1,.2.233,0,.933.267-.333.833-1.067.867-1.067-.4.967,1.033-1.067,1.4-1.2-.667,1-1.833,2.2-1.067,1.533a12.955,12.955,0,0,1-1.733,2.133c1.1-1.067-.367.966-.467,1.266l-.467.433c.267-.266.3-.233.333-.2L4.674,16.8a2.8,2.8,0,0,1-.533.767C4.84,16.8,5.773,15.5,6.773,14.5c-.467.667.7-.533-.6,1.1.267-.7-1.3,1.667-1.666,1.8.167-.167.2,0,0,0l-.4.4c-1,1.6,1.6-1.767,1.733-1.6a6.865,6.865,0,0,0-1.167,1.6,16.7,16.7,0,0,1,1.833-2.2c-.433.8.566-.433.566-.3l.2-.4a3.336,3.336,0,0,1,1.033-.966c-.567.733-.467.433-.7.8,1.4-1.567-1.133,1.833,0,.833-.433.667-1.367,1.733-1.666,2.2,1.1-1.066-.867,1.4,0,.533a13.337,13.337,0,0,1,1.766-2.1l-.967.667L8.34,15.2s-.767.633-.633.4a14.408,14.408,0,0,0,1.4-1.733c-1.367,1.966,1.067-.9,0,.433L6.673,17.4c-.9,1.5,1.566-1.333,1.2-.4l.333-.567c1-1.233.267,0,.733-.5-.8,1-1.067,1.433-1.533,2.1.6-.767,0,.2,1.766-1.867l-.967,1.467c-.267.7,2.5-2.8,2.4-2.3-.933,1.066-1.4,1.866-2.166,2.6,0,0,0,.3.533-.433-.467.667,1.233-1.267.533-.233a11.066,11.066,0,0,1,1.233-1.4l-.4.5a15.77,15.77,0,0,0,1.467-1.8c-2.3,3.333.7,0-1.267,3.066a3.332,3.332,0,0,1,.967-.467c-.233.333-.4.533-.333.4-.567,1.1,2.366-2.933,1.733-1.7-1.167,1.767-.767.833-1.2,1.533-2.566,3.5.567-.3-.8,1.8l-.2.2c-.767,1.267,1.233-1.133,1.2-.767l-.4.533a14.412,14.412,0,0,1,2.567-2.533,20.206,20.206,0,0,0-1.567,2.1A29.39,29.39,0,0,1,14.539,16.2c-.5.767-.9,1.5-1.966,2.966h-.2c-1.333,1.967.233,0,0,.433l-.633.833c.4,0,1.933-2.233,2.033-1.933l.6-.767c1.633-2.033-.767,1.233.467-.233l-1.5,2.133c.433-.433,1.766-1.867,2.166-2.166a39.644,39.644,0,0,1-2.733,3.1s.367,0,1.167-1c0,.2-.567.7-.367.333,1.3-1.6,2-2.333,2.133-2.2-3,4.133-.367,1.333-2.533,4.633,1.367-1.333,0,1.033.567,1.033,2.166-3.333.167,0,2.5-3.333h0L15.072,22.2c-.633,1-.6.7-1.1,1.433a26.164,26.164,0,0,1-1.433,2.433c.8-1.2,1.233-1.666,1.033-1.133l.933-1.633c1.467-1.633-1.766,2.933-.3,1.333l-.8,1c.533-.533.433.333,2.4-2.3A9.1,9.1,0,0,1,14.739,24.9c0,.6,2.6-2.466,1.7-.633l-.6.8c.233-.2,1.167-1.467.667-.6l-.6.867c.233-.267,1.133-1.333.867-.8l-.667.867c-.467,1.3,1.933-1.967,2.533-2.366a16.031,16.031,0,0,0-2.066,3.833l-.233.367c0,.5,1.9-1.667,2.833-2.433-1.533,2.766,0,1.533-.733,3.333A13.091,13.091,0,0,1,19.9,26c-.267.533,1.267-1.6-.167.667h0c-1.367,2.266-.833,1.766-.767,1.9l1.9-2.966c-2.433,4.533,1.8-1.1-.467,2.9.533-.7.6-.633,1.167-1.333l-1.033,1.6c0,.533,0,.8.433.567l-.767,1.133c0,.2,3.033-4.533,3.333-4.533L22.1,28.33c.267,0-.767,2.4.8.367a8.812,8.812,0,0,1-.733,1.1s-.533,1.933,1.433-1.4c-1.3,2.133,0,.367.833-.533l-1,1.6a22.838,22.838,0,0,1,2.166-3c0,.233-.733,1.3-.533.867-.367.9,1-1.467.667-.533l-.667,1c0,.2.367-.367,1.133-1.5.467-.6,0,.533-.833,2,.533-.867,1.3-2,1.133-1.566a4.93,4.93,0,0,1-.667,1.033c-.4,1.233,1.433-1.667.667,0l-.533.967s-.267-.3,0-.4a41.5,41.5,0,0,1-2.2,3.766c.767-1.033,2.4-3.333,2.1-2.566l-.267.533h0c0,.167,0,0,.2-.167s0,.467,0,.5c-.7,1.233-.233.767-.2.867.933-1.633.9-1.333,1.567-2.7a.433.433,0,0,1-.2.233h-.233c.533-.8.967-1.433.533-.5l1.6-2.566c-1.2,2.333-1.733,3.633-2.5,5.066A10,10,0,0,0,29.1,27.464c.267-.367-.433.9-.7,1.4s-.2.233-.467.633A6.666,6.666,0,0,0,29.7,27.3c-.4,1.033-1.2,1.9-.8,1.666l-.4.633c-1.467,3.7,3.6-5.133,1.867-.367a3.332,3.332,0,0,1,.3-.8c0,1.167.5.9,1.033.733s.967-.267,1.133,1.6c.2.767.533-.767.9-1.933l-.233,2c.233-.733.467-1.5.633-2.233s.333.4.6,1.433.833,1.9,1.067.2l-.333-1.3c.333.2.567-.967,1,.533,0-.233-.333-1.367,0-.733l.367,1a7.4,7.4,0,0,0,0-1.933c.867.367,1.9,3.766,3.133,3.333.267-.7-1.067-3.133-1.7-3.5A4.042,4.042,0,0,1,36.9,26.564l-.267-.5L33.3,22.731l1.5,1.5h0v-.266a2.1,2.1,0,0,1,0-.367v-.433a4.913,4.913,0,0,1,0-.533,10.006,10.006,0,0,1,.3-1.433h0l.167-.566V20.3h0l-.167.433-.367,1c1.067-3.033.5-1.333.6-1.666V20.2a4.61,4.61,0,0,1,.433-1.133h0c0-.167,0-.167-.3.767l.8-1.9ZM31.47,19.6Zm-.267,0a5.4,5.4,0,0,1-.667,1.066,9.987,9.987,0,0,0,.667-1.2ZM25.271,31.063c-.2.2,0,0,0-.467h.2v-.2Z" transform="translate(1297.573 317.229) rotate(-72)" fill="#8564d5"/>
    <path id="Path_75793" data-name="Path 75793" d="M24.506,6.266a35.134,35.134,0,0,0-2.2,3.133A22.356,22.356,0,0,1,23.94,6.8c-.4.5-1.7,2.333-1.7,2.233l.6-.867c-1.167,1.566-.233,0-1.667,1.933l.3-.5c-.667,1.033-1.367,2.066-1.833,2.833h0l.667-.9-.433.567c1.233-1.967.5-.633,1.433-2.066-.467.567-1.633,2.133-1.3,1.533,1.233-1.9.533-.533,1.566-2.266l-.4.767c1.933-3.033,0,.233,1.966-2.966.267-.633-.733.867-.5.233l-1.733,2.6c-1.4,1.8,3-4.833,1.233-2.4-.867,1.267-2.433,3.633-1.7,2.333l1.433-2.133c0-.3-2.066,3.033-1.233,1.533.567-.833.533-.667.7-.933,1.033-1.733-.833,1.2-.9,1.133l1.233-1.9c-.333.233-1.333,1.533-1.666,1.8.367-.567.767-1.167,1.1-1.767-.767.867,0-.433.367-1.666l-1.1,1.6.667-1.067c.333-.667-.667,1.033-1.1,1.667a10.475,10.475,0,0,1,.9-1.467c-1,1.333-2.233,2.833-1.233,1L19.94,7.2c.333-.733-2.2,3.333-1.333,1.733l.2-.3c.267-.833-.867.567.533-2.033-1.5,2.4.467-1.2-1.6,2.166.9-1.733,1.3-2.333,1.833-3.533,0-.167-1.366,2.066-1.6,2.366L19.04,5.866l-1.2,1.8,1.233-2.133-.333.433s-.433.8-.733,1.3a12.225,12.225,0,0,1,1.1-2.233l-1.067,1.4c.433-.733.6-.933.9-1.4-1.167,1.767,1.1-1.866,0-.266l-.833,1.4c.6-1.067.5-1.133,0-.733l.7-1.367c0-.367-.633.433-.767.333-.3.6-1.533,2.7-1.7,2.866L17.407,5.4c-.7,1.133-.367.733-1.267,2.1a25.144,25.144,0,0,1,1.6-2.733l-.433.6.933-1.533c-.7,1.133,1-1.966-.233,0l.333-.567c-.167,0-.6.5-.767.533-.967,1.6-.8,1.233-1.6,2.533.233-.567.867-1.9.667-1.833-.533.766-.8,1.366-1.4,2.3.833-1.467.667-1.4,1.333-2.433-.267.167-.333.2-1.2,1.3-.333.633-.467.9-.767,1.4a7.164,7.164,0,0,1,.7-1.367h0c-1.433,2.1,2.033-4.6,0-1.567V3.966L14.241,5.5a20.3,20.3,0,0,1,1.133-2.033c-1.533,2.4,0-.5-1.133,1.067,2.333-4.466-.533,0,.867-2.8L14.541,2.8c-.6,1,.3-.633.4-.867-.433.8-.467.933-.8,1.5-1,1.1,0-1.867.333-3,0-.333-2.933,5.4-1.766,2.8L13.774,1.3c-1.466,2.233-.467-.333-1.733,1.533.267-.433.567-1.033.567-1,.7-1.466,0-.167-.733,1,0-.167.533-1.067.8-1.666s-1.033,1.766-.333.333a4.072,4.072,0,0,1,.3-.567c-.4.667,0-.267-.867,1.4.3-.833-.533.667,0-.367C10.808,3.8,12.074,1,10.741,3.6c1.367-2.666.967-2.233.267-1,.433-.8.367-.867.967-2a12.412,12.412,0,0,0-1.1,1.866c1.5-3.333-1.5,2.5.467-1.667-.9,1.333-1.566,2.233-2.033,2.8,1.333-2.7.3,0,1.7-3.033-.7,1.033-1.933,3.333-1.766,2.6a12.666,12.666,0,0,1,.833-1.633c-.7,1.033-.2-.4-1.067,1l.4-.7s0-.433-.467.8L9.108,2.3c-.8,1.833-1.9,3.7-2.333,4.633C8.508,3.6,7.042,6,9.241,1.566a16.37,16.37,0,0,1-.8,1.6A14.12,14.12,0,0,1,9.208,1.5c-.4.633-1,1.966-1.067,1.9l.733-1.533c-.6,1.167-1.2,2.3-1.033,1.767A1.915,1.915,0,0,1,8.275,2.8c.033,0-1.7,3-1.3,1.833,1.233-2.6.333-.9,1.367-3.166L7.975,2.1l-.5,1.133S6.608,4.766,6.908,4l.467-.9-.333.367-.3.9C6.108,5.5,5.408,7.232,5.608,6.566a14.4,14.4,0,0,1,.533-1.433h0c-.367.7-.733,1.467-.533.867L6.975,3.033c-.9,1.866-.4.433-1.367,2.433l.9-1.9L5.775,5.1c.2-.5.3-.767.733-1.7,0-.333-1.3,2.9-.833,1.6l.3-.567c.167-.7-.667.867-.433,0,1-2.3.333-.533,1.167-2.466-.333.333-1.533,2.6-1.433,2v.267c-1.467,3.333.6-1.633-.167-.167l.667-1.4c0-.567-.567.7-1.167,1.633l.4-.8c.267-.767,0-.5,0-.9a17.79,17.79,0,0,0-.867,1.866c1.867-4.833-1.466,2.4,0-1.633A2.932,2.932,0,0,0,4.475,2.1l-.467.733c-.567,1.433-.333.867-.8,1.966a9.985,9.985,0,0,1-.733,1.466c.467-.933.967-2.3,1.3-3.1l-.6,1.367c1-2.566-1.2,2.833-.6,1.1L2.909,4.9a8.314,8.314,0,0,1-.6,1.1c.667-1.667.367-.767.933-2.1,0,0-1.433,3.066-.8,1.4l.467-.9a7.033,7.033,0,0,0,.633-1.767h0l.267-.9-.2.533A34.918,34.918,0,0,1,1.842,5.6c1.2-2.6.667-1.533,1.433-3.333.2-.5.4-1.1.633-1.633-.667,1.5.4-1.2-.567.967a13.553,13.553,0,0,1,.6-1.6c-.267.467-.4,1.067-.733,1.8-.933,2.033.8-2.566-.5.2C2.109,3.1,1.276,5.133.742,6.1c.367-1,.933-2.2.933-2.2.3-.9.2-.767,0,0l.633-1.633s-.9,2.166-.6,1.267l1-2.4L1.642,3.266c.433-1.033.7-1.567.967-2.233a16.925,16.925,0,0,0-1.2,2.533l-.2.6a14.33,14.33,0,0,1,.7-1.733c.567-1.267-.167.633-.4,1.233l-.2.367c-1.367,3.566.367-.5.367-.267L.609,6.333l.967-2.1C1.309,4.9.742,6.333.542,6.7c-.467,1.3.433-.9,0,.533l-.2.467.367-.767c-.233.533-.733,1.833-.6,1.433-.5,1.533.933-1.867,0,0v.167c.5-.833.8-1.9,1.8-4.066L.076,9.166l.767-1.9a3.729,3.729,0,0,1-.367,1c.6-1.3.333-.833.867-2.033C.709,7.966,1.876,5.5.642,8.5c.6-1.433.4-1.133.867-2.1-1.3,3.333.3-.5-.233,1A17.739,17.739,0,0,0,.309,9.666c1.2-2.8,0,.633,0,0,.933-2.233.5-.9.9-1.6A17.832,17.832,0,0,0,.576,10.2v.367A7.43,7.43,0,0,1,1.709,8.332L.609,10.8h0a7.234,7.234,0,0,1,.633-1.333L.509,11.132s1-1.933.6-.767c.667-1.566,1.8-4.4,2.366-5.4-.367.833-1,2.3-1.167,2.633s.333-.7.2-.333L1.842,8.7c-.233.633.533-1.2.5-1.033-.5,1.2-.333.867-.767,1.833h0c-.2.533-.333.967-.7,1.9.267-.7.7-1.633.767-1.766a19.173,19.173,0,0,1-.833,2.1A11.739,11.739,0,0,0,1.642,10l-.533,1.333A9.991,9.991,0,0,0,2.175,9.266h0c.9-1.733-.2,1.133.233.433l-.233.6a13.332,13.332,0,0,0,.967-1.6l-.767,1.833c.233-.433.533-1.1.2,0s-.4.933-.4.767c-.167.533-.6,1.5.233,0-.733,1.533-.833,1.966-.6,1.5l.467-1.1h0l-.933,2.033c-.967,2.5,2.166-4.066.4,0,.667-1.4.367-1.033,1.167-2.666,0,.3-1.3,3.333-1.3,3.333-.433,1.167,1.433-2.9,1.167-2.1.333-.733,1.2-2.633,1.566-3.333a38.354,38.354,0,0,1-1.6,3.633v-.433A13.838,13.838,0,0,0,2.109,13.5l.333-.7a15.994,15.994,0,0,1-.767,1.867,9.224,9.224,0,0,0,.7-1.567c-.4,1.1,0,0,0,.833L2.909,12.7c-.267.966.7-1.333.933-1.6-.467,1.1-1.233,2.6-.733,1.733A21.419,21.419,0,0,1,1.942,15.3c.733-1.333-.267.967-.367,1.233l-.3.567.2-.3.667-1.433a4.937,4.937,0,0,1-.367.867L3.542,12.6c-.3.733.467-.733-.4,1.167.2-.7-.9,1.9-1.133,2.166s0-.2,0,0l-.233.5C1.042,18.164,2.842,14.3,2.909,14.4c-.533,1.067-.933,2.033-.833,1.8s.2-.467.467-1l.8-1.567c-.333.833.367-.6.367-.5v-.4a5.268,5.268,0,0,1,.7-1.2c-.4.8-.3.533-.467.9.933-1.833-.833,2-.167.767L2.609,15.7c.767-1.333-.6,1.5,0,.4s.5-1.1,1.233-2.466l-.6.966,1.1-2.033s-.533.833-.433.6a22.154,22.154,0,0,0,.967-2c-.967,2.166.733-1.2,0,.267L3.142,15c-.667,1.6,1.067-1.733.733-.8l.267-.633c.7-1.4,0-.166.5-.7L3.509,15.232A19.99,19.99,0,0,0,4.742,13l-.7,1.566c-.233.7,1.766-3.333,1.667-2.833-.667,1.267-1.033,2.133-1.567,3,0,0,0,.267.367-.567-.333.767.9-1.533.367-.4.267-.5.9-1.733.867-1.633l-.3.6c.3-.6.467-.767,1.1-2.1-1.766,3.733.4,0-1.1,3.066a5.542,5.542,0,0,1,.667-.733c-.2.367-.3.6-.267.467-.467,1.133,1.8-3.333,1.267-2.066-.933,1.9-.567,1-.9,1.733-1.966,3.866.367-.467-.7,1.8v.233c-.633,1.333.867-1.4.8-1.067l-.3.567a22.694,22.694,0,0,1,1.9-3.033c-.8,1.5-.467.8-1.233,2.333a21.169,21.169,0,0,1,1.567-2.866c-.4.833-.733,1.6-1.567,3.333h0c-1.067,2.133,0,0,0,.367l-.467.9c.233-.233,1.467-2.533,1.5-2.333l.333-.7c1.3-2.233-.6,1.333.367-.333L7.175,14.632c.333-.533,1.333-2.166,1.633-2.566-.933,1.7-1.5,2.533-2.1,3.533,0,0,.233,0,.867-1.233,0,.2-.467.767-.3.4A11.039,11.039,0,0,1,8.908,12.2c-2.433,4.466-.4,1.233-2.233,4.733,1.033-1.567,0,.867.2.7,1.866-3.533,0,0,2.066-3.666h0l-1.067,2.2c-.533,1.033-.467.766-.9,1.566s-.8,1.533-1.267,2.5c.7-1.266,1.033-1.8.8-1.3l.867-1.667c1.167-1.833-1.567,3.033-.433,1.2L6.308,19.6a10,10,0,0,0,1.833-2.7c-.2.4-.733,1.4-.9,1.633s2-2.866,1.133-1.033l-.5.867c.167-.266.967-1.6.5-.733l-.533.933c.2-.3.933-1.5.7-.966l-.6.966c-.5,1.2,1.566-2.266,2.033-2.8a35.015,35.015,0,0,0-2.033,3.9l-.2.333c0,.4,1.467-1.933,2.2-2.833-1.533,2.8-.367,1.3-1.133,2.933.233-.467,1.167-1.966,1.333-2.2-.267.533,1.133-1.7-.233.6h0c-1.333,2.266-.9,1.7-.867,1.8l1.8-3c-2.5,4.466,1.367-1.4-.933,2.566l1-1.4-.967,1.6c0,.467-.233.7,0,.367l-.733,1.133S12.141,17,12.274,16.931l-1.466,2.4s-1.067,2.233.4,0c-.2.333-.667,1.033-.733,1.1s-.8,1.766,1.233-1.533c-1.333,2.133,0,.267.633-.633l-1,1.566c1.333-1.966,1.666-2.5,2.1-3.033,0,.233-.8,1.267-.567.867-.467.867,1-1.466.533-.566l-.667.967a14.416,14.416,0,0,0,1.1-1.533c.433-.6,0,.467-1.033,1.9.567-.867,1.333-2,1.1-1.567L13.241,17.9c-.567,1.133,1.333-1.733.4-.167l-.567.966a.3.3,0,0,1,0-.333c-.933,1.433-1.033,1.733-2.333,3.7A20.055,20.055,0,0,1,12.708,19.4l-.333.533h0c0,.166,0,0,.2-.2l-.233.467c-.767,1.2-.367.7-.367.766,1.033-1.566.9-1.3,1.7-2.633a.467.467,0,0,1-.2.233h0c.533-.8,1-1.467.467-.567l1.7-2.5-2.933,4.833A21.422,21.422,0,0,0,15.307,17a11.411,11.411,0,0,1-.833,1.333c-.2.3-.2.233-.467.667a16.016,16.016,0,0,0,1.733-2.233c-.567.967-1.3,1.867-.967,1.6l-.433.6c-2,3.333,3.766-5.033,1.167-.667l.467-.733c-1,2,1.666-1.4,0,1.667-.333.633.533-.667,1.267-1.6L16.107,19.3l1.4-1.866c1.067-1.333-2.666,4.166-.7,1.6l.767-1.1c0,.233.6-.567-.3.7,0-.2.8-1.133.433-.567l-.6.867,1.133-1.4c-.333.7-2.4,3.333-2.4,3.666.267-.3,1.9-2.4,2.266-3,0,0,.333-.567.933-1.433l.367-.4c1.8-2.533,3.666-5.133,4.8-6.966L23.04,10.9l.833-1.266h0c.767-1.167,0-.167-.5.5l.9-1.367-1.766,2.366c.7-1,1.433-1.933,1.766-2.533-.833,1.1-1.533,2.266-2.133,2.966.8-1.2,1.466-2.133.733-1.167a11.95,11.95,0,0,1,.967-1.333,9.426,9.426,0,0,0-1.3,1.6c.933-1.466-.4.267,1.267-2.166a16.689,16.689,0,0,1-1.5,1.933c2.066-2.833,0-.267,2.166-3.333-1.867,2.566-1,1.033-2.066,2.433,0-.2.433-.633.367-.5a15.559,15.559,0,0,1,.9-1.533c-1.467,2.133-1.9,2.566-2.833,3.9,1.367-2.133,1.766-2.533,3.1-4.533C22.773,8.6,22.64,8.533,21.673,10L23.24,7.533A21.646,21.646,0,0,1,21.74,9.6c.833-1.366,1.7-2.533,1.067-1.766a15.831,15.831,0,0,1,1.7-1.567ZM19.574,9.8Zm0,0h0a6.67,6.67,0,0,1-.7,1.067A11.13,11.13,0,0,0,19.407,9.7ZM12.908,20.931c0,.2,0,0,.233-.433h.167v-.2Z" transform="matrix(0.883, -0.469, 0.469, 0.883, 1256.547, 184.652)" fill="#8564d5"/>
    <path id="Path_75794" data-name="Path 75794" d="M23.031,7.2S21.364,8.966,20.4,10c-.533.433,1.2-1.367,2.033-2.333l-2,2,.7-.8c-1.367,1.4-.2,0-1.9,1.733l.4-.467-2.266,2.5h0l.767-.8-.5.5c1.533-1.733.567-.567,1.733-1.833-.567.533-1.933,1.9-1.533,1.367,1.533-1.666.633-.467,1.933-2l-.533.667,2.4-2.633c.367-.567-.867.767-.5.2l-2.1,2.3c-1.633,1.567,3.7-4.3,1.6-2.133-1.033,1.1-2.966,3.333-2,2.033l1.733-1.866c0-.267-2.5,2.666-1.433,1.333.7-.733.633-.567.833-.833C21.064,7.4,18.731,10,18.7,9.966l1.5-1.7c-.3.2-1.5,1.333-1.866,1.533.467-.467.933-1,1.4-1.533-.9.733,0-.433.7-1.533L19.1,8.166l.8-.967c.467-.6-.8.933-1.333,1.5a8.3,8.3,0,0,1,1.1-1.3C18.5,8.566,17.1,9.866,18.4,8.232l.4-.433c.467-.667-2.733,2.933-1.6,1.533l.267-.267c.4-.733-.933.467.9-1.866-1.866,2.133.7-1.066-1.9,1.9,1.2-1.533,1.7-2.033,2.433-3.133,0,0-1.633,1.8-1.966,2.1L18.3,6.5,16.831,8.1,18.4,6.2l-.367.367s-.567.733-.967,1.167a10.568,10.568,0,0,1,1.5-1.967L17.3,6.966c.533-.633.733-.833,1.1-1.233-1.433,1.533,1.4-1.633,0-.233L17.331,6.732c.8-.967.733-1.033.333-.7L18.6,4.966c0-.333-.667.367-.767.233-.367.533-1.966,2.4-2.166,2.566l1.4-1.666c-.9,1-.5.633-1.6,1.866a17.906,17.906,0,0,1,2.066-2.433l-.567.533,1.2-1.367c-.9,1,1.333-1.733-.233,0l.433-.5a5.425,5.425,0,0,1-.8.433c-1.2,1.433-.967,1.066-1.966,2.2.3-.5,1.2-1.7,1-1.633-.633.667-1.033,1.2-1.766,2.033,1.1-1.3.9-1.267,1.733-2.166-.267,0-.333.167-1.333,1.133l-1,1.233A6.968,6.968,0,0,1,15.165,6.2h0c-1.766,1.866,2.866-4.066.5-1.433h0l-1.3,1.367c0-.3.833-.967,1.467-1.833-1.933,2.1,0-.467-1.233.9,3.133-3.933-.5,0,1.433-2.5l-.733.9c-.767.9.4-.533.533-.767-.567.7-.633.833-1.067,1.333C13.632,5.1,15.4,2.433,15.831,1.4c0-.3-3.9,4.766-2.233,2.466l1.4-1.7C13.165,4.1,14.7,1.8,13.132,3.433l.733-.9c.967-1.267,0-.167-.9.867,0,0,.733-.933,1.133-1.467s-1.367,1.533-.4.267l.433-.5c-.5.6,0-.233-1.1,1.233.467-.733-.633.533,0-.367-1.3,1.6.5-.867-1.3,1.433,1.866-2.366,1.4-2,.467-.933.567-.7.567-.733,1.333-1.733a9.338,9.338,0,0,0-1.4,1.633c2.133-2.933-1.933,2.166.833-1.533C11.832,2.6,11.032,3.366,10.5,3.833c1.833-2.366.3,0,2.233-2.633-.867.9-2.533,2.866-2.2,2.2A7.582,7.582,0,0,1,11.665,2c-.867.9,0-.4-1.167.833l.533-.633s.2-.4-.6.7l.233-.3A42.284,42.284,0,0,1,7.332,6.666c2.4-3.066.5-.833,3.533-4.733-.167.166-.567.7-1.1,1.4,0-.2.433-.633,1.1-1.467C10.332,2.4,9.5,3.6,9.432,3.5l1.033-1.333c-.8,1-1.6,2.033-1.333,1.533L9.7,2.966c-.233,0-2.233,2.633-1.6,1.566,1.766-2.266.533-.8,2.033-2.8l-.5.567-.7.967S7.766,4.633,8.2,3.933l.667-.767-.367.3-.533.8c-.8.967-1.866,2.5-1.533,1.9a12.166,12.166,0,0,1,.833-1.233h0c-.5.633-1.033,1.267-.7.767S8.232,3.5,8.532,3.066C7.266,4.7,8.066,3.433,6.732,5.2c.3-.433,1.1-1.467,1.267-1.667L6.966,4.866a18.3,18.3,0,0,1,1.067-1.5c0-.3-1.866,2.533-1.133,1.4l.4-.5c.333-.633-.8.733-.367,0C8.4,2.233,7.366,3.833,8.6,2.1c-.4.3-2.033,2.266-1.766,1.7v.233c-2.1,2.833.967-1.467,0-.167l.933-1.233c.267-.533-.667.6-1.433,1.4L6.9,3.3c.433-.667,0-.433.333-.833L6,4.133C8.9-.133,4.1,6.2,6.5,2.6L7,1.967l-.6.6c-.9,1.3-.533.8-1.233,1.766a12.115,12.115,0,0,1-1,1.267C4.8,4.8,5.6,3.6,6.1,2.9c-.3.367-.6.8-.867,1.167C6.766,1.8,3.4,6.6,4.4,5.033l.467-.667c-.267.333-.9,1.167-.8.967,1.033-1.467.5-.667,1.367-1.833,0,0-2.033,2.666-1.067,1.2l.667-.767c1.167-1.733.867-1.3,1-1.6h0l.467-.8L6.2,2c-2.766,3.733-.633.6-2.466,3.033,1.766-2.3,1-1.333,2.166-3,.3-.467.633-1,.967-1.433-.967,1.3.7-1.1-.733.8.367-.533,0,0,.933-1.4-.333.367-.633.933-1.1,1.6C4.6,3.366,7.366-.733,5.5,1.6L2.7,5.166C3.266,4.3,4.066,3.233,4.066,3.233c.5-.8.367-.667,0,0L5.1,1.767S3.7,3.7,4.2,2.866s1.133-1.5,1.533-2.1l-1.5,1.866C4.9,1.7,5.266,1.267,5.7.667a20,20,0,0,0-1.766,2.2L3.6,3.433S4.5,2.167,4.7,1.9c.833-1.133-.3.533-.7,1.067L3.733,3.3c-2.133,3.133.467-.433.4-.2l-1.6,2.266L3.9,3.5c-.4.6-1.267,1.9-1.533,2.2-.767,1.167.6-.767-.267.5l-.267.4.533-.667C2,6.4,1.233,7.533,1.433,7.2c-.833,1.367,1.333-1.633,0,0h0C2.066,6.5,2.6,5.533,4.066,3.633L1.2,7.766,2.4,6.1a5,5,0,0,1-.567.867L3.1,5.2c-1,1.533.667-.6-1.2,2.033.9-1.233.633-1,1.3-1.833-2,2.833.4-.467-.467.867a23.679,23.679,0,0,0-1.433,2c1.8-2.467-.3.6,0,0C2.7,6.3,1.966,7.5,2.5,6.9A16.685,16.685,0,0,0,1.4,8.8l-.267.333C2.6,7.166,2.366,7.566,2.733,7.2L1.1,9.366h0L2,8.2.933,9.7s1.367-1.666.7-.633c1-1.4,2.733-3.9,3.333-4.766l-1.7,2.333s.5-.633.267-.3L2.6,7.566c-.367.6.767-1.033.7-.9-.733,1.1-.533.767-1.133,1.633h0a15.114,15.114,0,0,1-1.1,1.7C1.5,9.4,2.1,8.566,2.233,8.433s-.9,1.3-1.267,1.866c.533-.733,0,0,1.167-1.533L1.3,9.966a12.486,12.486,0,0,0,1.5-1.8h0c1.267-1.5-.467,1.033,0,.433l-.4.533a10.221,10.221,0,0,0,1.267-1.4S3,8.733,2.533,9.366c.333-.367.767-.967.2,0s-.6.833-.566.633c-.267.5-.9,1.367.233,0-1.033,1.333-1.233,1.733-.9,1.333l.7-1h0L.866,12.1c-1.5,2.266,2.933-3.533.333,0,.933-1.2.567-.9,1.7-2.333A26.666,26.666,0,0,1,.933,12.632c-.667,1.033,2-2.533,1.567-1.8.467-.667,1.7-2.366,2.2-2.9,0,.267-1.933,2.7-2.333,3.333l.267-.366a9.109,9.109,0,0,0-.9,1.167l.467-.6c-.467.633-.333.633-1.133,1.666a8.88,8.88,0,0,0,1-1.4c-.6.967,0,0-.3.767l.8-1.067c-.5.833.933-1.167,1.2-1.4-.667,1-1.733,2.3-1.067,1.533a24.518,24.518,0,0,1-1.667,2.166c1-1.167-.467.9-.633,1.133l-.4.5c.233-.3.267-.267.267-.267L1.2,13.832a5.509,5.509,0,0,1-.533.767l2.466-3.333c-.467.667.6-.633-.667,1.033C2.833,11.7,1.2,14,.933,14.232s.167-.2,0,0L.567,14.7c-1.033,1.533,1.5-1.866,1.533-1.8A10.407,10.407,0,0,0,.933,14.532a10.812,10.812,0,0,1,.633-.9l1.1-1.4c-.5.767.467-.5.433-.4l.233-.367A6.268,6.268,0,0,1,4.266,10.4l-.667.833c1.3-1.633-1.2,1.767-.3.7l-1.666,2.2c1-1.167-.933,1.333,0,.366a27.51,27.51,0,0,0,1.7-2.166l-.767.833,1.467-1.8s-.667.767-.533.533c.833-1.033.567-.7,1.367-1.766-1.4,1.933.933-1.033,0,.267l-2.4,3.133c-1,1.433,1.367-1.5.833-.633l.4-.567c.967-1.233.2,0,.6-.6L2.733,13.8a21.724,21.724,0,0,0,1.633-1.933l-1,1.4c-.367.6,2.366-2.9,2.166-2.5-.9,1.133-1.433,1.9-2.1,2.666,0,0,0,.233.433-.5-.5.667,1.167-1.333.4-.333.367-.467,1.233-1.533,1.2-1.433l-.4.533c.4-.533.567-.667,1.467-1.833-2.466,3.333.4,0-1.733,2.733a4.451,4.451,0,0,1,.767-.6l-.333.4c-.7,1,2.4-2.933,1.6-1.8-1.267,1.7-.733.867-1.2,1.5-2.7,3.333.433-.367-1.067,1.633l-.167.2c-.9,1.167,1.1-1.2.967-.933l-.4.533a32.9,32.9,0,0,1,2.4-2.633c-1.066,1.3-.6.667-1.633,2.033.167,0,1.7-2.166,2.066-2.5L5.633,13.265h0c-1.467,1.9,0,0,0,.333l-.667.833c.3-.2,1.933-2.266,1.9-2.033l.5-.633c1.666-1.966-.9,1.167.367-.3L6.1,13.532c.433-.467,1.7-1.9,2.066-2.233l-2.7,3.1s.2,0,1.033-1.066c-.167.167-.6.667-.333.333A16.124,16.124,0,0,1,8.2,11.432c-3.333,3.933-.633,1.133-3.1,4.233,1.3-1.367-.3.8,0,.667,2.466-3.133,0,0,2.666-3.333h0L6.3,14.932c-.733.933-.6.7-1.167,1.4S4.066,17.665,3.4,18.565c.933-1.133,1.367-1.6,1.033-1.167L5.6,15.932c1.466-1.6-2.1,2.7-.667,1.1L4.1,18a17.711,17.711,0,0,0,2.266-2.333c-.3.366-1,1.233-1.2,1.433s2.466-2.466,1.267-.867L5.766,17c.2-.2,1.233-1.4.633-.6l-.7.8c.233-.267,1.2-1.3.833-.833L5.8,17.2c-.733,1.1,1.9-1.966,2.433-2.4a34.754,34.754,0,0,0-2.7,3.333l-.267.333c0,.366,1.766-1.7,2.633-2.5-2,2.5-.633,1.233-1.666,2.666.3-.4,1.467-1.733,1.7-1.933-.367.467,1.367-1.5-.367.566h0c-1.7,2.033-1.2,1.533-1.2,1.633l2.3-2.666c-3.333,3.966,1.5-1.167-1.433,2.333l1.233-1.233L7.232,18.765c-.267.4-.367.633,0,.367l-.9,1s3.633-4.066,3.766-4.1L8.266,18.165s-1.433,1.967.333,0l-.9,1S6.6,20.731,9.132,17.8c-1.666,1.9,0,.267.7-.5L8.6,18.665c1.6-1.733,2.033-2.233,2.533-2.666,0,.2-.967,1.133-.667.767-.6.767,1.2-1.3.6-.5l-.8.867s.367-.333,1.3-1.367-.233.433-1.333,1.7C10.9,16.7,11.865,15.7,11.565,16.1l-.833.9c-.767,1,1.566-1.5.4,0l-.733.833a.266.266,0,0,1,0-.3C9.265,18.8,9.132,19.065,7.5,20.865a23.824,23.824,0,0,1,2.333-2.333L9.465,19h0l.2-.167-.3.4c-.933,1.067-.467.633-.467.7,1.233-1.4,1.067-1.167,2.066-2.333a.433.433,0,0,1-.233.2h-.167c.667-.7,1.233-1.267.567-.467L13.165,15.1,9.5,19.4a24.969,24.969,0,0,0,3.066-2.933l-1.033,1.2-.567.567A18.49,18.49,0,0,0,13,16.265c-.7.867-1.567,1.633-1.233,1.4l-.5.567c-2.5,3.033,4.466-4.433,1.2-.567L13.032,17c-1.3,1.8,1.8-1.167-.433,1.567-.433.567.667-.567,1.5-1.4l-1.367,1.467L14.365,17c1.233-1.2-3.333,3.733-.933,1.467l.9-1c0,.2.667-.5-.4.633.167-.167.967-1,.5-.5l-.733.767,1.333-1.233c-.467.633-2.866,3.033-2.933,3.333L14.765,17.8s.433-.533,1.133-1.3l.433-.366c2.133-2.266,4.333-4.533,5.733-6.2L20.7,11.266l1-1.133h0c.933-1.067,0-.167-.533.433l1.1-1.233-2.1,2.1C21,10.566,21.831,9.7,22.264,9.2c-.967.967-1.833,2-2.5,2.6.933-1.033,1.733-1.866.867-1.033l1.167-1.2c-.7.7-.367.233-1.5,1.433,1.167-1.3-.4.233,1.6-1.9l-1.733,1.7c2.433-2.533,0-.267,2.6-3a19.24,19.24,0,0,1-2.333,2.133c.167-.2.533-.566.433-.433S21.631,8.566,22,8.1c-1.766,1.9-2.233,2.3-3.333,3.333C20.331,9.533,20.8,9.2,22.4,7.4c-1.433,1.567-1.5,1.467-2.666,2.8L21.664,8c-2.233,2.4-.433.367-1.8,1.833C20.9,8.6,21.931,7.566,21.2,8.233A7.437,7.437,0,0,0,23.031,7.2ZM17.9,10.166Zm0,0h0l-.867.933Zm-8.466,10,.3-.366h.2v-.167Z" transform="matrix(0.883, -0.469, 0.469, 0.883, 1292.541, 201.112)" fill="#8564d5"/>
  </g>
</svg>
